Shrikhand-Regular.ufo
<glyph name="numbersign" format="1">
  <advance width="584"/>
  <unicode hex="0023"/>
  <outline>
    <contour>
      <point x="283" y="107" type="line" smooth="yes"/>
      <point x="270" y="67"/>
      <point x="285" y="45"/>
      <point x="320" y="45" type="curve" smooth="yes"/>
      <point x="343" y="45"/>
      <point x="362" y="58"/>
      <point x="375" y="99" type="curve" smooth="yes"/>
      <point x="533" y="573" type="line" smooth="yes"/>
      <point x="546" y="612"/>
      <point x="531" y="634"/>
      <point x="495" y="634" type="curve" smooth="yes"/>
      <point x="473" y="634"/>
      <point x="454" y="621"/>
      <point x="441" y="580" type="curve" smooth="yes"/>
    </contour>
    <contour>
      <point x="427" y="168" type="line" smooth="yes"/>
      <point x="464" y="168"/>
      <point x="490" y="179"/>
      <point x="499" y="210" type="curve" smooth="yes"/>
      <point x="506" y="237"/>
      <point x="491" y="256"/>
      <point x="456" y="256" type="curve" smooth="yes"/>
      <point x="117" y="256" type="line" smooth="yes"/>
      <point x="79" y="256"/>
      <point x="53" y="246"/>
      <point x="45" y="215" type="curve" smooth="yes"/>
      <point x="37" y="188"/>
      <point x="52" y="168"/>
      <point x="88" y="168" type="curve" smooth="yes"/>
    </contour>
    <contour>
      <point x="95" y="106" type="line" smooth="yes"/>
      <point x="82" y="66"/>
      <point x="97" y="45"/>
      <point x="133" y="45" type="curve" smooth="yes"/>
      <point x="155" y="45"/>
      <point x="173" y="58"/>
      <point x="187" y="99" type="curve" smooth="yes"/>
      <point x="345" y="573" type="line" smooth="yes"/>
      <point x="358" y="613"/>
      <point x="343" y="634"/>
      <point x="308" y="634" type="curve" smooth="yes"/>
      <point x="285" y="634"/>
      <point x="267" y="621"/>
      <point x="253" y="580" type="curve" smooth="yes"/>
    </contour>
    <contour>
      <point x="511" y="423" type="line" smooth="yes"/>
      <point x="549" y="423"/>
      <point x="575" y="433"/>
      <point x="583" y="464" type="curve" smooth="yes"/>
      <point x="591" y="491"/>
      <point x="576" y="511"/>
      <point x="540" y="511" type="curve" smooth="yes"/>
      <point x="201" y="511" type="line" smooth="yes"/>
      <point x="164" y="511"/>
      <point x="138" y="500"/>
      <point x="129" y="469" type="curve" smooth="yes"/>
      <point x="122" y="442"/>
      <point x="137" y="423"/>
      <point x="172" y="423" type="curve" smooth="yes"/>
    </contour>
  </outline>
</glyph>
<glyph name="dollar" format="1">
  <advance width="655"/>
  <unicode hex="0024"/>
  <outline>
    <contour>
      <point x="305" y="-64" type="curve" smooth="yes"/>
      <point x="322" y="-4" type="line"/>
      <point x="358" y="-4" type="line" smooth="yes"/>
      <point x="475" y="-4"/>
      <point x="579" y="48"/>
      <point x="612" y="159" type="curve" smooth="yes"/>
      <point x="659" y="314"/>
      <point x="527" y="380"/>
      <point x="442" y="432" type="curve"/>
      <point x="474" y="549" type="line"/>
      <point x="491" y="539"/>
      <point x="503" y="527"/>
      <point x="529" y="497" type="curve" smooth="yes"/>
      <point x="571" y="447"/>
      <point x="587" y="428"/>
      <point x="619" y="428" type="curve" smooth="yes"/>
      <point x="647" y="428"/>
      <point x="659" y="440"/>
      <point x="668" y="472" type="curve" smooth="yes"/>
      <point x="710" y="610" type="line" smooth="yes"/>
      <point x="721" y="647"/>
      <point x="698" y="668"/>
      <point x="661" y="668" type="curve" smooth="yes"/>
      <point x="634" y="668"/>
      <point x="617" y="660"/>
      <point x="586" y="635" type="curve" smooth="yes"/>
      <point x="563" y="616" type="line"/>
      <point x="535" y="633"/>
      <point x="511" y="645"/>
      <point x="501" y="646" type="curve"/>
      <point x="519" y="710" type="line" smooth="yes"/>
      <point x="530" y="748"/>
      <point x="518" y="778"/>
      <point x="486" y="779" type="curve" smooth="yes"/>
      <point x="454" y="780"/>
      <point x="432" y="770"/>
      <point x="421" y="730" type="curve" smooth="yes"/>
      <point x="405" y="670" type="line"/>
      <point x="363" y="672" type="line" smooth="yes"/>
      <point x="252" y="672"/>
      <point x="156" y="611"/>
      <point x="128" y="519" type="curve" smooth="yes"/>
      <point x="78" y="356"/>
      <point x="203" y="293"/>
      <point x="287" y="241" type="curve"/>
      <point x="253" y="116" type="line"/>
      <point x="237" y="124"/>
      <point x="214" y="143"/>
      <point x="184" y="185" type="curve" smooth="yes"/>
      <point x="146" y="238"/>
      <point x="126" y="259"/>
      <point x="94" y="259" type="curve" smooth="yes"/>
      <point x="66" y="259"/>
      <point x="47" y="246"/>
      <point x="36" y="211" type="curve" smooth="yes"/>
      <point x="-13" y="62" type="line" smooth="yes"/>
      <point x="-26" y="23"/>
      <point x="-4" y="0"/>
      <point x="33" y="0" type="curve" smooth="yes"/>
      <point x="60" y="0"/>
      <point x="77" y="9"/>
      <point x="110" y="36" type="curve" smooth="yes"/>
      <point x="146" y="66" type="line"/>
      <point x="179" y="40"/>
      <point x="208" y="25"/>
      <point x="225" y="18" type="curve"/>
      <point x="209" y="-44" type="line" smooth="yes"/>
      <point x="199" y="-83"/>
      <point x="213" y="-107"/>
      <point x="244" y="-113" type="curve" smooth="yes"/>
      <point x="275" y="-119"/>
      <point x="294" y="-103"/>
    </contour>
    <contour>
      <point x="422" y="130" type="curve" smooth="yes"/>
      <point x="415" y="103"/>
      <point x="384" y="89"/>
      <point x="347" y="91" type="curve"/>
      <point x="379" y="202" type="line"/>
      <point x="415" y="184"/>
      <point x="429" y="158"/>
    </contour>
    <contour>
      <point x="305" y="540" type="curve" smooth="yes"/>
      <point x="312" y="567"/>
      <point x="343" y="581"/>
      <point x="380" y="579" type="curve"/>
      <point x="348" y="468" type="line"/>
      <point x="312" y="486"/>
      <point x="298" y="512"/>
    </contour>
  </outline>
</glyph>
<glyph name="parenleft" format="1">
  <advance width="473"/>
  <unicode hex="0028"/>
  <outline>
    <contour>
      <point x="616" y="807" type="curve" smooth="yes"/>
      <point x="658" y="807"/>
      <point x="683" y="791"/>
      <point x="675" y="765" type="curve" smooth="yes"/>
      <point x="657" y="706"/>
      <point x="428" y="682"/>
      <point x="343" y="330" type="curve" smooth="yes"/>
      <point x="258" y="-20"/>
      <point x="444" y="-123"/>
      <point x="425" y="-176" type="curve" smooth="yes"/>
      <point x="421" y="-187"/>
      <point x="412" y="-193"/>
      <point x="392" y="-193" type="curve" smooth="yes"/>
      <point x="288" y="-193"/>
      <point x="16" y="24"/>
      <point x="82" y="351" type="curve" smooth="yes"/>
      <point x="144" y="661"/>
      <point x="467" y="807"/>
    </contour>
  </outline>
</glyph>
<glyph name="asterisk" format="1">
  <advance width="414"/>
  <unicode hex="002A"/>
  <outline>
    <contour>
      <point x="431" y="681" type="curve" smooth="yes"/>
      <point x="399" y="681"/>
      <point x="371" y="662"/>
      <point x="339" y="633" type="curve"/>
      <point x="350" y="649"/>
      <point x="364" y="676"/>
      <point x="368" y="690" type="curve" smooth="yes"/>
      <point x="382" y="736"/>
      <point x="359" y="766"/>
      <point x="325" y="766" type="curve" smooth="yes"/>
      <point x="292" y="766"/>
      <point x="269" y="744"/>
      <point x="259" y="713" type="curve" smooth="yes"/>
      <point x="250" y="682"/>
      <point x="259" y="651"/>
      <point x="262" y="634" type="curve"/>
      <point x="242" y="665"/>
      <point x="221" y="681"/>
      <point x="190" y="681" type="curve" smooth="yes"/>
      <point x="163" y="681"/>
      <point x="136" y="668"/>
      <point x="127" y="638" type="curve" smooth="yes"/>
      <point x="115" y="599"/>
      <point x="144" y="561"/>
      <point x="225" y="561" type="curve"/>
      <point x="190" y="549"/>
      <point x="150" y="530"/>
      <point x="139" y="493" type="curve" smooth="yes"/>
      <point x="127" y="455"/>
      <point x="152" y="427"/>
      <point x="181" y="427" type="curve" smooth="yes"/>
      <point x="216" y="427"/>
      <point x="256" y="460"/>
      <point x="283" y="527" type="curve"/>
      <point x="285" y="470"/>
      <point x="309" y="427"/>
      <point x="350" y="427" type="curve" smooth="yes"/>
      <point x="376" y="427"/>
      <point x="403" y="440"/>
      <point x="413" y="474" type="curve" smooth="yes"/>
      <point x="426" y="520"/>
      <point x="395" y="545"/>
      <point x="353" y="561" type="curve"/>
      <point x="416" y="561"/>
      <point x="464" y="579"/>
      <point x="475" y="614" type="curve" smooth="yes"/>
      <point x="485" y="645"/>
      <point x="471" y="681"/>
    </contour>
  </outline>
</glyph>
<glyph name="plus" format="1">
  <advance width="657"/>
  <unicode hex="002B"/>
  <outline>
    <contour>
      <point x="128" y="286" type="curve" smooth="yes"/>
      <point x="544" y="286" type="line" smooth="yes"/>
      <point x="584" y="286"/>
      <point x="608" y="305"/>
      <point x="619" y="340" type="curve" smooth="yes"/>
      <point x="627" y="375"/>
      <point x="611" y="394"/>
      <point x="572" y="394" type="curve" smooth="yes"/>
      <point x="156" y="394" type="line" smooth="yes"/>
      <point x="118" y="394"/>
      <point x="91" y="375"/>
      <point x="82" y="340" type="curve" smooth="yes"/>
      <point x="72" y="305"/>
      <point x="89" y="286"/>
    </contour>
    <contour>
      <point x="340" y="525" type="curve" smooth="yes"/>
      <point x="244" y="169" type="line" smooth="yes"/>
      <point x="232" y="125"/>
      <point x="253" y="99"/>
      <point x="291" y="99" type="curve" smooth="yes"/>
      <point x="320" y="99"/>
      <point x="346" y="116"/>
      <point x="356" y="155" type="curve" smooth="yes"/>
      <point x="451" y="511" type="line" smooth="yes"/>
      <point x="463" y="555"/>
      <point x="442" y="581"/>
      <point x="404" y="581" type="curve" smooth="yes"/>
      <point x="375" y="581"/>
      <point x="350" y="564"/>
    </contour>
  </outline>
</glyph>
<glyph name="hyphen" format="1">
  <advance width="569"/>
  <unicode hex="002D"/>
  <outline>
    <contour>
      <point x="177" y="291" type="curve" smooth="yes"/>
      <point x="410" y="291" type="line" smooth="yes"/>
      <point x="455" y="291"/>
      <point x="482" y="313"/>
      <point x="494" y="352" type="curve" smooth="yes"/>
      <point x="503" y="391"/>
      <point x="485" y="413"/>
      <point x="441" y="413" type="curve" smooth="yes"/>
      <point x="208" y="413" type="line" smooth="yes"/>
      <point x="165" y="413"/>
      <point x="135" y="391"/>
      <point x="125" y="352" type="curve" smooth="yes"/>
      <point x="114" y="313"/>
      <point x="133" y="291"/>
    </contour>
  </outline>
</glyph>
<glyph name="period" format="1">
  <advance width="297"/>
  <unicode hex="002E"/>
  <outline>
    <contour>
      <point x="8" y="90" type="curve" smooth="yes"/>
      <point x="9" y="38"/>
      <point x="49" y="-3"/>
      <point x="102" y="-3" type="curve" smooth="yes"/>
      <point x="170" y="-3"/>
      <point x="215" y="56"/>
      <point x="214" y="111" type="curve" smooth="yes"/>
      <point x="213" y="162"/>
      <point x="172" y="202"/>
      <point x="119" y="202" type="curve" smooth="yes"/>
      <point x="51" y="202"/>
      <point x="8" y="142"/>
    </contour>
  </outline>
</glyph>
<glyph name="one" format="1">
  <advance width="452"/>
  <unicode hex="0031"/>
  <outline>
    <contour>
      <point x="173" y="628" type="line" smooth="yes"/>
      <point x="143" y="622"/>
      <point x="132" y="615"/>
      <point x="129" y="601" type="curve" smooth="yes"/>
      <point x="115" y="554"/>
      <point x="206" y="554"/>
      <point x="188" y="493" type="curve" smooth="yes"/>
      <point x="84" y="125" type="line" smooth="yes"/>
      <point x="67" y="64"/>
      <point x="-12" y="80"/>
      <point x="-25" y="39" type="curve" smooth="yes"/>
      <point x="-30" y="18"/>
      <point x="-19" y="0"/>
      <point x="15" y="0" type="curve" smooth="yes"/>
      <point x="316" y="0" type="line" smooth="yes"/>
      <point x="367" y="0"/>
      <point x="385" y="8"/>
      <point x="391" y="27" type="curve" smooth="yes"/>
      <point x="404" y="75"/>
      <point x="318" y="63"/>
      <point x="335" y="123" type="curve" smooth="yes"/>
      <point x="466" y="582" type="line" smooth="yes"/>
      <point x="483" y="643"/>
      <point x="463" y="670"/>
      <point x="427" y="670" type="curve" smooth="yes"/>
      <point x="417" y="670"/>
      <point x="405" y="669"/>
      <point x="384" y="665" type="curve" smooth="yes"/>
    </contour>
  </outline>
</glyph>
<glyph name="four" format="1">
  <advance width="786"/>
  <unicode hex="0034"/>
  <outline>
    <contour>
      <point x="128" y="603" type="curve" smooth="yes"/>
      <point x="105" y="531"/>
      <point x="206" y="466"/>
      <point x="181" y="384" type="curve" smooth="yes"/>
      <point x="157" y="300"/>
      <point x="48" y="281"/>
      <point x="30" y="218" type="curve" smooth="yes"/>
      <point x="19" y="181"/>
      <point x="44" y="153"/>
      <point x="89" y="153" type="curve" smooth="yes"/>
      <point x="187" y="153"/>
      <point x="288" y="179"/>
      <point x="497" y="179" type="curve"/>
      <point x="533" y="272" type="line"/>
      <point x="398" y="272"/>
      <point x="313" y="266"/>
      <point x="179" y="245" type="curve"/>
      <point x="330" y="297"/>
      <point x="396" y="342"/>
      <point x="421" y="428" type="curve" smooth="yes"/>
      <point x="455" y="553"/>
      <point x="344" y="666"/>
      <point x="234" y="666" type="curve" smooth="yes"/>
      <point x="181" y="666"/>
      <point x="142" y="645"/>
    </contour>
    <contour>
      <point x="603" y="628" type="line" smooth="yes"/>
      <point x="551" y="628"/>
      <point x="528" y="613"/>
      <point x="514" y="566" type="curve" smooth="yes"/>
      <point x="387" y="118" type="line" smooth="yes"/>
      <point x="369" y="58"/>
      <point x="327" y="69"/>
      <point x="318" y="37" type="curve" smooth="yes"/>
      <point x="313" y="15"/>
      <point x="329" y="0"/>
      <point x="365" y="0" type="curve" smooth="yes"/>
      <point x="595" y="0" type="line" smooth="yes"/>
      <point x="631" y="0"/>
      <point x="650" y="6"/>
      <point x="655" y="25" type="curve" smooth="yes"/>
      <point x="664" y="58"/>
      <point x="621" y="56"/>
      <point x="638" y="118" type="curve" smooth="yes"/>
      <point x="762" y="559" type="line" smooth="yes"/>
      <point x="775" y="601"/>
      <point x="758" y="628"/>
      <point x="711" y="628" type="curve" smooth="yes"/>
    </contour>
    <contour>
      <point x="579" y="179" type="line"/>
      <point x="700" y="179" type="line" smooth="yes"/>
      <point x="746" y="179"/>
      <point x="775" y="193"/>
      <point x="783" y="225" type="curve" smooth="yes"/>
      <point x="791" y="254"/>
      <point x="767" y="272"/>
      <point x="727" y="272" type="curve" smooth="yes"/>
      <point x="577" y="272" type="line"/>
    </contour>
  </outline>
</glyph>
<glyph name="eight" format="1">
  <advance width="720"/>
  <unicode hex="0038"/>
  <outline>
    <contour>
      <point x="319" y="85" type="curve" smooth="yes"/>
      <point x="276" y="85"/>
      <point x="239" y="115"/>
      <point x="256" y="183" type="curve" smooth="yes"/>
      <point x="273" y="244"/>
      <point x="321" y="279"/>
      <point x="388" y="291" type="curve"/>
      <point x="398" y="347" type="line"/>
      <point x="161" y="344"/>
      <point x="48" y="291"/>
      <point x="23" y="199" type="curve" smooth="yes"/>
      <point x="-12" y="78"/>
      <point x="104" y="-8"/>
      <point x="327" y="-8" type="curve" smooth="yes"/>
      <point x="554" y="-8"/>
      <point x="646" y="61"/>
      <point x="673" y="162" type="curve" smooth="yes"/>
      <point x="728" y="365"/>
      <point x="319" y="397"/>
      <point x="357" y="534" type="curve" smooth="yes"/>
      <point x="366" y="565"/>
      <point x="387" y="579"/>
      <point x="423" y="579" type="curve" smooth="yes"/>
      <point x="465" y="579"/>
      <point x="500" y="547"/>
      <point x="484" y="493" type="curve" smooth="yes"/>
      <point x="471" y="447"/>
      <point x="446" y="417"/>
      <point x="398" y="397" type="curve"/>
      <point x="457" y="351" type="line"/>
      <point x="622" y="352"/>
      <point x="716" y="382"/>
      <point x="740" y="468" type="curve" smooth="yes"/>
      <point x="765" y="564"/>
      <point x="667" y="666"/>
      <point x="419" y="666" type="curve" smooth="yes"/>
      <point x="246" y="666"/>
      <point x="146" y="619"/>
      <point x="121" y="529" type="curve" smooth="yes"/>
      <point x="72" y="344"/>
      <point x="435" y="276"/>
      <point x="400" y="147" type="curve" smooth="yes"/>
      <point x="388" y="102"/>
      <point x="357" y="85"/>
    </contour>
  </outline>
</glyph>
<glyph name="nine" format="1">
  <advance width="735"/>
  <unicode hex="0039"/>
  <outline>
    <contour>
      <point x="717" y="270" type="curve" smooth="yes"/>
      <point x="789" y="518"/>
      <point x="691" y="673"/>
      <point x="433" y="673" type="curve" smooth="yes"/>
      <point x="235" y="673"/>
      <point x="129" y="591"/>
      <point x="101" y="475" type="curve" smooth="yes"/>
      <point x="67" y="340"/>
      <point x="179" y="246"/>
      <point x="352" y="246" type="curve" smooth="yes"/>
      <point x="425" y="247"/>
      <point x="474" y="270"/>
      <point x="524" y="307" type="curve"/>
      <point x="476" y="320" type="line"/>
      <point x="440" y="153"/>
      <point x="388" y="81"/>
      <point x="308" y="81" type="curve" smooth="yes"/>
      <point x="291" y="81"/>
      <point x="268" y="83"/>
      <point x="248" y="91" type="curve"/>
      <point x="283" y="176"/>
      <point x="234" y="251"/>
      <point x="133" y="251" type="curve" smooth="yes"/>
      <point x="77" y="251"/>
      <point x="35" y="227"/>
      <point x="22" y="175" type="curve" smooth="yes"/>
      <point x="-1" y="86"/>
      <point x="111" y="-7"/>
      <point x="321" y="-7" type="curve" smooth="yes"/>
      <point x="512" y="-7"/>
      <point x="663" y="77"/>
    </contour>
    <contour>
      <point x="364" y="465" type="curve" smooth="yes"/>
      <point x="386" y="547"/>
      <point x="404" y="584"/>
      <point x="450" y="584" type="curve" smooth="yes"/>
      <point x="495" y="584"/>
      <point x="510" y="547"/>
      <point x="490" y="465" type="curve" smooth="yes"/>
      <point x="470" y="384"/>
      <point x="448" y="347"/>
      <point x="403" y="347" type="curve" smooth="yes"/>
      <point x="357" y="347"/>
      <point x="342" y="384"/>
    </contour>
  </outline>
</glyph>
<glyph name="greater" format="1">
  <advance width="690"/>
  <unicode hex="003E"/>
  <outline>
    <contour>
      <point x="632" y="376" type="curve" smooth="yes"/>
      <point x="224" y="545" type="line" smooth="yes"/>
      <point x="170" y="567"/>
      <point x="137" y="553"/>
      <point x="127" y="517" type="curve" smooth="yes"/>
      <point x="117" y="479"/>
      <point x="137" y="448"/>
      <point x="183" y="430" type="curve" smooth="yes"/>
      <point x="501" y="307" type="line"/>
      <point x="501" y="349" type="line"/>
      <point x="126" y="222" type="line" smooth="yes"/>
      <point x="77" y="205"/>
      <point x="57" y="189"/>
      <point x="48" y="153" type="curve" smooth="yes"/>
      <point x="40" y="116"/>
      <point x="69" y="69"/>
      <point x="141" y="95" type="curve" smooth="yes"/>
      <point x="611" y="265" type="line" smooth="yes"/>
      <point x="645" y="277"/>
      <point x="661" y="290"/>
      <point x="667" y="317" type="curve" smooth="yes"/>
      <point x="674" y="343"/>
      <point x="660" y="364"/>
    </contour>
  </outline>
</glyph>
<glyph name="question" format="1">
  <advance width="682"/>
  <unicode hex="003F"/>
  <outline>
    <contour>
      <point x="361" y="261" type="curve" smooth="yes"/>
      <point x="366" y="275"/>
      <point x="381" y="281"/>
      <point x="431" y="290" type="curve" smooth="yes"/>
      <point x="623" y="323"/>
      <point x="692" y="357"/>
      <point x="715" y="454" type="curve" smooth="yes"/>
      <point x="747" y="583"/>
      <point x="623" y="718"/>
      <point x="399" y="718" type="curve" smooth="yes"/>
      <point x="251" y="718"/>
      <point x="141" y="672"/>
      <point x="121" y="585" type="curve" smooth="yes"/>
      <point x="102" y="509"/>
      <point x="152" y="449"/>
      <point x="237" y="449" type="curve" smooth="yes"/>
      <point x="299" y="449"/>
      <point x="337" y="480"/>
      <point x="351" y="529" type="curve" smooth="yes"/>
      <point x="356" y="550"/>
      <point x="355" y="584"/>
      <point x="343" y="617" type="curve"/>
      <point x="359" y="623"/>
      <point x="374" y="625"/>
      <point x="392" y="625" type="curve" smooth="yes"/>
      <point x="426" y="625"/>
      <point x="478" y="598"/>
      <point x="461" y="529" type="curve" smooth="yes"/>
      <point x="431" y="414"/>
      <point x="258" y="407"/>
      <point x="228" y="307" type="curve" smooth="yes"/>
      <point x="210" y="244"/>
      <point x="257" y="197"/>
      <point x="330" y="197" type="curve" smooth="yes"/>
      <point x="351" y="197"/>
      <point x="373" y="207"/>
      <point x="377" y="220" type="curve" smooth="yes"/>
      <point x="378" y="225"/>
      <point x="376" y="230"/>
      <point x="368" y="239" type="curve" smooth="yes"/>
      <point x="363" y="246"/>
      <point x="359" y="253"/>
    </contour>
    <contour>
      <point x="176" y="77" type="curve" smooth="yes"/>
      <point x="176" y="32"/>
      <point x="216" y="-3"/>
      <point x="270" y="-3" type="curve" smooth="yes"/>
      <point x="337" y="-3"/>
      <point x="383" y="48"/>
      <point x="382" y="96" type="curve" smooth="yes"/>
      <point x="382" y="140"/>
      <point x="341" y="174"/>
      <point x="288" y="174" type="curve" smooth="yes"/>
      <point x="220" y="174"/>
      <point x="175" y="122"/>
    </contour>
  </outline>
</glyph>
<glyph name="at" format="1">
  <advance width="1065"/>
  <unicode hex="0040"/>
  <outline>
    <contour>
      <point x="616" y="384" type="curve" smooth="yes"/>
      <point x="560" y="202" type="line" smooth="yes"/>
      <point x="553" y="180"/>
      <point x="543" y="173"/>
      <point x="528" y="173" type="curve" smooth="yes"/>
      <point x="514" y="173"/>
      <point x="501" y="182"/>
      <point x="497" y="196" type="curve" smooth="yes"/>
      <point x="486" y="246"/>
      <point x="527" y="400"/>
      <point x="599" y="400" type="curve" smooth="yes"/>
      <point x="613" y="400"/>
      <point x="619" y="394"/>
    </contour>
    <contour>
      <point x="63" y="314" type="curve" smooth="yes"/>
      <point x="-21" y="40"/>
      <point x="160" y="-113"/>
      <point x="363" y="-113" type="curve" smooth="yes"/>
      <point x="480" y="-113"/>
      <point x="558" y="-70"/>
      <point x="567" y="-38" type="curve" smooth="yes"/>
      <point x="571" y="-24"/>
      <point x="563" y="-14"/>
      <point x="547" y="-14" type="curve" smooth="yes"/>
      <point x="520" y="-14"/>
      <point x="470" y="-27"/>
      <point x="401" y="-27" type="curve" smooth="yes"/>
      <point x="227" y="-27"/>
      <point x="113" y="81"/>
      <point x="156" y="269" type="curve" smooth="yes"/>
      <point x="205" y="461"/>
      <point x="387" y="557"/>
      <point x="610" y="557" type="curve" smooth="yes"/>
      <point x="824" y="557"/>
      <point x="986" y="454"/>
      <point x="926" y="263" type="curve" smooth="yes"/>
      <point x="901" y="183"/>
      <point x="844" y="141"/>
      <point x="809" y="141" type="curve" smooth="yes"/>
      <point x="795" y="141"/>
      <point x="787" y="150"/>
      <point x="793" y="170" type="curve" smooth="yes"/>
      <point x="829" y="286" type="line" smooth="yes"/>
      <point x="866" y="402"/>
      <point x="789" y="479"/>
      <point x="591" y="479" type="curve" smooth="yes"/>
      <point x="373" y="479"/>
      <point x="218" y="346"/>
      <point x="241" y="179" type="curve" smooth="yes"/>
      <point x="254" y="93"/>
      <point x="328" y="47"/>
      <point x="417" y="47" type="curve" smooth="yes"/>
      <point x="474" y="47"/>
      <point x="534" y="70"/>
      <point x="575" y="115" type="curve"/>
      <point x="602" y="73"/>
      <point x="669" y="47"/>
      <point x="739" y="47" type="curve" smooth="yes"/>
      <point x="881" y="47"/>
      <point x="989" y="126"/>
      <point x="1026" y="245" type="curve" smooth="yes"/>
      <point x="1091" y="459"/>
      <point x="948" y="647"/>
      <point x="620" y="647" type="curve" smooth="yes"/>
      <point x="350" y="647"/>
      <point x="129" y="529"/>
    </contour>
  </outline>
</glyph>
<glyph name="B" format="1">
  <advance width="761"/>
  <unicode hex="0042"/>
  <outline>
    <contour>
      <point x="209" y="666" type="line" smooth="yes"/>
      <point x="173" y="666"/>
      <point x="155" y="660"/>
      <point x="150" y="642" type="curve" smooth="yes"/>
      <point x="138" y="608"/>
      <point x="183" y="609"/>
      <point x="166" y="549" type="curve" smooth="yes"/>
      <point x="44" y="118" type="line" smooth="yes"/>
      <point x="27" y="58"/>
      <point x="-10" y="69"/>
      <point x="-23" y="39" type="curve" smooth="yes"/>
      <point x="-33" y="15"/>
      <point x="-18" y="0"/>
      <point x="18" y="0" type="curve" smooth="yes"/>
      <point x="434" y="0" type="line" smooth="yes"/>
      <point x="599" y="0"/>
      <point x="682" y="50"/>
      <point x="711" y="153" type="curve" smooth="yes"/>
      <point x="738" y="249"/>
      <point x="692" y="310"/>
      <point x="615" y="332" type="curve"/>
      <point x="696" y="348"/>
      <point x="760" y="384"/>
      <point x="782" y="460" type="curve" smooth="yes"/>
      <point x="815" y="574"/>
      <point x="731" y="666"/>
      <point x="567" y="666" type="curve" smooth="yes"/>
    </contour>
    <contour>
      <point x="338" y="90" type="curve" smooth="yes"/>
      <point x="287" y="90" type="line"/>
      <point x="344" y="287" type="line"/>
      <point x="394" y="287" type="line" smooth="yes"/>
      <point x="439" y="287"/>
      <point x="471" y="267"/>
      <point x="449" y="189" type="curve" smooth="yes"/>
      <point x="427" y="111"/>
      <point x="393" y="90"/>
    </contour>
    <contour>
      <point x="416" y="389" type="curve" smooth="yes"/>
      <point x="372" y="389" type="line"/>
      <point x="425" y="576" type="line"/>
      <point x="470" y="576" type="line" smooth="yes"/>
      <point x="512" y="576"/>
      <point x="543" y="557"/>
      <point x="522" y="483" type="curve" smooth="yes"/>
      <point x="501" y="409"/>
      <point x="469" y="389"/>
    </contour>
  </outline>
</glyph>
<glyph name="C" format="1">
  <advance width="692"/>
  <unicode hex="0043"/>
  <outline>
    <contour>
      <point x="479" y="651" type="move" name="top"/>
    </contour>
    <contour>
      <point x="361" y="0" type="move" name="bottom"/>
    </contour>
    <contour>
      <point x="631" y="181" type="curve" smooth="yes"/>
      <point x="632" y="205"/>
      <point x="597" y="235"/>
      <point x="574" y="235" type="curve" smooth="yes"/>
      <point x="521" y="235"/>
      <point x="494" y="114"/>
      <point x="375" y="114" type="curve" smooth="yes"/>
      <point x="312" y="114"/>
      <point x="279" y="183"/>
      <point x="331" y="355" type="curve" smooth="yes"/>
      <point x="373" y="494"/>
      <point x="426" y="557"/>
      <point x="479" y="557" type="curve" smooth="yes"/>
      <point x="519" y="557"/>
      <point x="532" y="540"/>
      <point x="562" y="480" type="curve" smooth="yes"/>
      <point x="588" y="424"/>
      <point x="606" y="398"/>
      <point x="642" y="398" type="curve" smooth="yes"/>
      <point x="676" y="398"/>
      <point x="689" y="412"/>
      <point x="701" y="447" type="curve" smooth="yes"/>
      <point x="757" y="603" type="line" smooth="yes"/>
      <point x="772" y="644"/>
      <point x="747" y="668"/>
      <point x="706" y="668" type="curve" smooth="yes"/>
      <point x="675" y="668"/>
      <point x="655" y="659"/>
      <point x="619" y="631" type="curve" smooth="yes"/>
      <point x="592" y="610" type="line"/>
      <point x="545" y="651"/>
      <point x="490" y="676"/>
      <point x="410" y="676" type="curve" smooth="yes"/>
      <point x="287" y="676"/>
      <point x="138" y="610"/>
      <point x="72" y="393" type="curve" smooth="yes"/>
      <point x="-6" y="132"/>
      <point x="147" y="-6"/>
      <point x="348" y="-6" type="curve" smooth="yes"/>
      <point x="529" y="-6"/>
      <point x="632" y="146"/>
    </contour>
  </outline>
</glyph>
<glyph name="D" format="1">
  <advance width="772"/>
  <unicode hex="0044"/>
  <outline>
    <contour>
      <point x="447" y="651" type="move" name="top"/>
    </contour>
    <contour>
      <point x="209" y="666" type="line"/>
      <point x="173" y="666"/>
      <point x="155" y="660"/>
      <point x="150" y="642" type="curve" smooth="yes"/>
      <point x="138" y="608"/>
      <point x="183" y="609"/>
      <point x="166" y="549" type="curve" smooth="yes"/>
      <point x="44" y="119" type="line" smooth="yes"/>
      <point x="27" y="59"/>
      <point x="-10" y="71"/>
      <point x="-23" y="40" type="curve" smooth="yes"/>
      <point x="-33" y="17"/>
      <point x="-18" y="1"/>
      <point x="18" y="1" type="curve" smooth="yes"/>
      <point x="290" y="0" type="line" smooth="yes"/>
      <point x="575" y="-1"/>
      <point x="696" y="86"/>
      <point x="761" y="313" type="curve" smooth="yes"/>
      <point x="826" y="541"/>
      <point x="733" y="666"/>
      <point x="479" y="666" type="curve" smooth="yes"/>
    </contour>
    <contour>
      <point x="313" y="90" type="curve" smooth="yes"/>
      <point x="289" y="90" type="line"/>
      <point x="424" y="576" type="line"/>
      <point x="446" y="576" type="line" smooth="yes"/>
      <point x="519" y="576"/>
      <point x="562" y="537"/>
      <point x="505" y="335" type="curve" smooth="yes"/>
      <point x="447" y="130"/>
      <point x="399" y="90"/>
    </contour>
  </outline>
</glyph>
<glyph name="E" format="1">
  <advance width="671"/>
  <unicode hex="0045"/>
  <outline>
    <contour>
      <point x="437" y="0" type="move" name="ogonek"/>
    </contour>
    <contour>
      <point x="417" y="651" type="move" name="top"/>
    </contour>
    <contour>
      <point x="338" y="308" type="line"/>
      <point x="389" y="308" type="line" smooth="yes"/>
      <point x="401" y="308"/>
      <point x="407" y="302"/>
      <point x="411" y="293" type="curve" smooth="yes"/>
      <point x="428" y="258" type="line" smooth="yes"/>
      <point x="436" y="241"/>
      <point x="449" y="229"/>
      <point x="470" y="229" type="curve" smooth="yes"/>
      <point x="490" y="229"/>
      <point x="513" y="240"/>
      <point x="522" y="272" type="curve" smooth="yes"/>
      <point x="563" y="411" type="line" smooth="yes"/>
      <point x="571" y="438"/>
      <point x="552" y="457"/>
      <point x="524" y="457" type="curve" smooth="yes"/>
      <point x="501" y="457"/>
      <point x="488" y="447"/>
      <point x="471" y="432" type="curve" smooth="yes"/>
      <point x="437" y="402" type="line" smooth="yes"/>
      <point x="430" y="396"/>
      <point x="425" y="392"/>
      <point x="418" y="392" type="curve" smooth="yes"/>
      <point x="365" y="392" type="line"/>
    </contour>
    <contour>
      <point x="424" y="570" type="line"/>
      <point x="529" y="570" type="line" smooth="yes"/>
      <point x="556" y="570"/>
      <point x="562" y="563"/>
      <point x="568" y="540" type="curve" smooth="yes"/>
      <point x="584" y="483" type="line" smooth="yes"/>
      <point x="593" y="450"/>
      <point x="610" y="438"/>
      <point x="642" y="438" type="curve" smooth="yes"/>
      <point x="674" y="438"/>
      <point x="691" y="449"/>
      <point x="701" y="486" type="curve" smooth="yes"/>
      <point x="727" y="579" type="line" smooth="yes"/>
      <point x="743" y="634"/>
      <point x="713" y="666"/>
      <point x="653" y="666" type="curve" smooth="yes"/>
      <point x="209" y="666" type="line" smooth="yes"/>
      <point x="174" y="666"/>
      <point x="156" y="660"/>
      <point x="150" y="642" type="curve" smooth="yes"/>
      <point x="138" y="608"/>
      <point x="184" y="609"/>
      <point x="167" y="549" type="curve" smooth="yes"/>
      <point x="44" y="118" type="line" smooth="yes"/>
      <point x="27" y="58"/>
      <point x="-10" y="69"/>
      <point x="-23" y="39" type="curve" smooth="yes"/>
      <point x="-33" y="15"/>
      <point x="-18" y="0"/>
      <point x="18" y="0" type="curve" smooth="yes"/>
      <point x="495" y="0" type="line" smooth="yes"/>
      <point x="549" y="0"/>
      <point x="573" y="18"/>
      <point x="588" y="68" type="curve" smooth="yes"/>
      <point x="617" y="169" type="line" smooth="yes"/>
      <point x="629" y="212"/>
      <point x="601" y="228"/>
      <point x="570" y="228" type="curve" smooth="yes"/>
      <point x="540" y="228"/>
      <point x="524" y="217"/>
      <point x="504" y="196" type="curve" smooth="yes"/>
      <point x="444" y="130" type="line" smooth="yes"/>
      <point x="421" y="105"/>
      <point x="405" y="96"/>
      <point x="379" y="96" type="curve" smooth="yes"/>
      <point x="291" y="96" type="line"/>
    </contour>
  </outline>
</glyph>
<glyph name="F" format="1">
  <advance width="631"/>
  <unicode hex="0046"/>
  <outline>
    <contour>
      <point x="275" y="0" type="line" smooth="yes"/>
      <point x="310" y="0"/>
      <point x="332" y="6"/>
      <point x="337" y="25" type="curve" smooth="yes"/>
      <point x="347" y="61"/>
      <point x="279" y="62"/>
      <point x="295" y="118" type="curve" smooth="yes"/>
      <point x="422" y="565" type="line"/>
      <point x="522" y="565" type="line" smooth="yes"/>
      <point x="549" y="565"/>
      <point x="552" y="557"/>
      <point x="557" y="540" type="curve" smooth="yes"/>
      <point x="573" y="483" type="line" smooth="yes"/>
      <point x="582" y="450"/>
      <point x="603" y="438"/>
      <point x="635" y="438" type="curve" smooth="yes"/>
      <point x="667" y="438"/>
      <point x="690" y="449"/>
      <point x="700" y="486" type="curve" smooth="yes"/>
      <point x="726" y="579" type="line" smooth="yes"/>
      <point x="742" y="634"/>
      <point x="712" y="666"/>
      <point x="652" y="666" type="curve" smooth="yes"/>
      <point x="208" y="666" type="line" smooth="yes"/>
      <point x="173" y="666"/>
      <point x="155" y="660"/>
      <point x="149" y="642" type="curve" smooth="yes"/>
      <point x="137" y="608"/>
      <point x="183" y="609"/>
      <point x="166" y="549" type="curve" smooth="yes"/>
      <point x="43" y="118" type="line" smooth="yes"/>
      <point x="27" y="59"/>
      <point x="-16" y="68"/>
      <point x="-24" y="36" type="curve" smooth="yes"/>
      <point x="-29" y="13"/>
      <point x="-11" y="0"/>
      <point x="24" y="0" type="curve" smooth="yes"/>
    </contour>
    <contour>
      <point x="519" y="227" type="curve" smooth="yes"/>
      <point x="563" y="379" type="line" smooth="yes"/>
      <point x="574" y="418"/>
      <point x="552" y="440"/>
      <point x="522" y="440" type="curve" smooth="yes"/>
      <point x="501" y="440"/>
      <point x="485" y="431"/>
      <point x="463" y="412" type="curve" smooth="yes"/>
      <point x="432" y="386" type="line" smooth="yes"/>
      <point x="415" y="371"/>
      <point x="403" y="367"/>
      <point x="385" y="367" type="curve" smooth="yes"/>
      <point x="328" y="367" type="line"/>
      <point x="298" y="267" type="line"/>
      <point x="366" y="267" type="line" smooth="yes"/>
      <point x="381" y="267"/>
      <point x="387" y="264"/>
      <point x="397" y="245" type="curve" smooth="yes"/>
      <point x="415" y="211" type="line" smooth="yes"/>
      <point x="427" y="189"/>
      <point x="442" y="178"/>
      <point x="465" y="178" type="curve" smooth="yes"/>
      <point x="488" y="178"/>
      <point x="508" y="190"/>
    </contour>
  </outline>
</glyph>
<glyph name="G" format="1">
  <advance width="757"/>
  <unicode hex="0047"/>
  <outline>
    <contour>
      <point x="411" y="651" type="move" name="top"/>
    </contour>
    <contour>
      <point x="394" y="0" type="move" name="bottom"/>
    </contour>
    <contour>
      <point x="476" y="78" type="curve"/>
      <point x="486" y="49" type="line" smooth="yes"/>
      <point x="500" y="8"/>
      <point x="522" y="0"/>
      <point x="551" y="0" type="curve" smooth="yes"/>
      <point x="593" y="0" type="line" smooth="yes"/>
      <point x="614" y="0"/>
      <point x="632" y="8"/>
      <point x="646" y="55" type="curve" smooth="yes"/>
      <point x="699" y="240" type="line" smooth="yes"/>
      <point x="702" y="251"/>
      <point x="707" y="257"/>
      <point x="721" y="265" type="curve" smooth="yes"/>
      <point x="747" y="280" type="line" smooth="yes"/>
      <point x="768" y="291"/>
      <point x="781" y="301"/>
      <point x="786" y="322" type="curve" smooth="yes"/>
      <point x="793" y="343"/>
      <point x="783" y="355"/>
      <point x="755" y="355" type="curve" smooth="yes"/>
      <point x="453" y="356" type="line" smooth="yes"/>
      <point x="422" y="356"/>
      <point x="411" y="347"/>
      <point x="406" y="331" type="curve" smooth="yes"/>
      <point x="402" y="316"/>
      <point x="405" y="296"/>
      <point x="428" y="287" type="curve" smooth="yes"/>
      <point x="463" y="274" type="line" smooth="yes"/>
      <point x="483" y="266"/>
      <point x="493" y="260"/>
      <point x="482" y="219" type="curve" smooth="yes"/>
      <point x="475" y="194" type="line" smooth="yes"/>
      <point x="461" y="144"/>
      <point x="441" y="127"/>
      <point x="398" y="127" type="curve" smooth="yes"/>
      <point x="328" y="127"/>
      <point x="296" y="203"/>
      <point x="339" y="354" type="curve" smooth="yes"/>
      <point x="382" y="506"/>
      <point x="442" y="551"/>
      <point x="495" y="551" type="curve" smooth="yes"/>
      <point x="535" y="551"/>
      <point x="564" y="528"/>
      <point x="605" y="474" type="curve" smooth="yes"/>
      <point x="637" y="432"/>
      <point x="659" y="419"/>
      <point x="690" y="419" type="curve" smooth="yes"/>
      <point x="720" y="419"/>
      <point x="737" y="433"/>
      <point x="750" y="477" type="curve" smooth="yes"/>
      <point x="786" y="603" type="line" smooth="yes"/>
      <point x="798" y="644"/>
      <point x="772" y="668"/>
      <point x="731" y="668" type="curve" smooth="yes"/>
      <point x="700" y="668"/>
      <point x="680" y="660"/>
      <point x="646" y="631" type="curve" smooth="yes"/>
      <point x="616" y="602" type="line"/>
      <point x="566" y="647"/>
      <point x="507" y="676"/>
      <point x="432" y="676" type="curve" smooth="yes"/>
      <point x="309" y="676"/>
      <point x="145" y="619"/>
      <point x="77" y="384" type="curve" smooth="yes"/>
      <point x="4" y="132"/>
      <point x="132" y="-6"/>
      <point x="296" y="-6" type="curve" smooth="yes"/>
      <point x="375" y="-6"/>
      <point x="434" y="29"/>
    </contour>
  </outline>
</glyph>
<glyph name="I" format="1">
  <advance width="404"/>
  <unicode hex="0049"/>
  <outline>
    <contour>
      <point x="183" y="0" type="move" name="ogonek"/>
    </contour>
    <contour>
      <point x="182" y="0" type="move" name="bottom"/>
    </contour>
    <contour>
      <point x="297" y="651" type="move" name="top"/>
    </contour>
    <contour>
      <point x="209" y="666" type="line" smooth="yes"/>
      <point x="173" y="666"/>
      <point x="155" y="660"/>
      <point x="150" y="642" type="curve" smooth="yes"/>
      <point x="138" y="608"/>
      <point x="183" y="609"/>
      <point x="166" y="549" type="curve" smooth="yes"/>
      <point x="44" y="118" type="line" smooth="yes"/>
      <point x="27" y="58"/>
      <point x="-10" y="69"/>
      <point x="-23" y="39" type="curve" smooth="yes"/>
      <point x="-33" y="15"/>
      <point x="-18" y="0"/>
      <point x="18" y="0" type="curve" smooth="yes"/>
      <point x="253" y="0" type="line" smooth="yes"/>
      <point x="289" y="0"/>
      <point x="307" y="6"/>
      <point x="313" y="25" type="curve" smooth="yes"/>
      <point x="324" y="58"/>
      <point x="279" y="57"/>
      <point x="296" y="118" type="curve" smooth="yes"/>
      <point x="417" y="549" type="line" smooth="yes"/>
      <point x="434" y="608"/>
      <point x="472" y="597"/>
      <point x="485" y="628" type="curve" smooth="yes"/>
      <point x="495" y="651"/>
      <point x="480" y="666"/>
      <point x="444" y="666" type="curve" smooth="yes"/>
    </contour>
  </outline>
</glyph>
<glyph name="L" format="1">
  <advance width="651"/>
  <unicode hex="004C"/>
  <outline>
    <contour>
      <point x="505" y="666" type="move" name="right"/>
    </contour>
    <contour>
      <point x="326" y="0" type="move" name="bottom"/>
    </contour>
    <contour>
      <point x="301" y="651" type="move" name="top"/>
    </contour>
    <contour>
      <point x="494" y="216" type="curve" smooth="yes"/>
      <point x="425" y="134" type="line" smooth="yes"/>
      <point x="400" y="104"/>
      <point x="381" y="96"/>
      <point x="351" y="96" type="curve" smooth="yes"/>
      <point x="289" y="96" type="line"/>
      <point x="418" y="549" type="line" smooth="yes"/>
      <point x="435" y="608"/>
      <point x="473" y="597"/>
      <point x="486" y="628" type="curve" smooth="yes"/>
      <point x="496" y="651"/>
      <point x="481" y="666"/>
      <point x="445" y="666" type="curve" smooth="yes"/>
      <point x="210" y="666" type="line" smooth="yes"/>
      <point x="174" y="666"/>
      <point x="156" y="660"/>
      <point x="151" y="642" type="curve"/>
      <point x="139" y="608"/>
      <point x="184" y="609"/>
      <point x="167" y="549" type="curve" smooth="yes"/>
      <point x="45" y="118" type="line" smooth="yes"/>
      <point x="28" y="58"/>
      <point x="-10" y="69"/>
      <point x="-23" y="39" type="curve"/>
      <point x="-32" y="15"/>
      <point x="-18" y="0"/>
      <point x="18" y="0" type="curve" smooth="yes"/>
      <point x="488" y="0" type="line" smooth="yes"/>
      <point x="549" y="0"/>
      <point x="577" y="20"/>
      <point x="594" y="77" type="curve" smooth="yes"/>
      <point x="627" y="194" type="line" smooth="yes"/>
      <point x="638" y="234"/>
      <point x="618" y="258"/>
      <point x="573" y="258" type="curve" smooth="yes"/>
      <point x="539" y="258"/>
      <point x="518" y="245"/>
    </contour>
  </outline>
</glyph>
<glyph name="N" format="1">
  <advance width="727"/>
  <unicode hex="004E"/>
  <outline>
    <contour>
      <point x="448" y="651" type="move" name="top"/>
    </contour>
    <contour>
      <point x="359" y="0" type="move" name="bottom"/>
    </contour>
    <contour>
      <point x="261" y="459" type="line"/>
      <point x="182" y="599" type="line"/>
      <point x="46" y="118" type="line" smooth="yes"/>
      <point x="29" y="58"/>
      <point x="-12" y="70"/>
      <point x="-22" y="36" type="curve" smooth="yes"/>
      <point x="-28" y="15"/>
      <point x="-16" y="0"/>
      <point x="18" y="0" type="curve" smooth="yes"/>
      <point x="127" y="0" type="line" smooth="yes"/>
      <point x="163" y="0"/>
      <point x="181" y="6"/>
      <point x="187" y="25" type="curve" smooth="yes"/>
      <point x="198" y="58"/>
      <point x="146" y="57"/>
      <point x="163" y="118" type="curve" smooth="yes"/>
    </contour>
    <contour>
      <point x="540" y="220" type="line" smooth="yes"/>
      <point x="604" y="229" type="line" smooth="yes"/>
      <point x="419" y="600" type="line" smooth="yes"/>
      <point x="396" y="646"/>
      <point x="380" y="666"/>
      <point x="335" y="666" type="curve" smooth="yes"/>
      <point x="187" y="666" type="line" smooth="yes"/>
      <point x="153" y="666"/>
      <point x="135" y="647"/>
      <point x="157" y="600" type="curve" smooth="yes"/>
      <point x="398" y="92" type="line" smooth="yes"/>
      <point x="427" y="31"/>
      <point x="457" y="-4"/>
      <point x="514" y="-4" type="curve" smooth="yes"/>
      <point x="574" y="-4"/>
      <point x="604" y="23"/>
      <point x="627" y="104" type="curve" smooth="yes"/>
      <point x="751" y="548" type="line" smooth="yes"/>
      <point x="768" y="608"/>
      <point x="809" y="596"/>
      <point x="819" y="630" type="curve" smooth="yes"/>
      <point x="825" y="651"/>
      <point x="813" y="666"/>
      <point x="779" y="666" type="curve" smooth="yes"/>
      <point x="670" y="666" type="line" smooth="yes"/>
      <point x="634" y="666"/>
      <point x="616" y="660"/>
      <point x="610" y="641" type="curve" smooth="yes"/>
      <point x="599" y="608"/>
      <point x="651" y="609"/>
      <point x="634" y="548" type="curve" smooth="yes"/>
    </contour>
  </outline>
</glyph>
<glyph name="P" format="1">
  <advance width="683"/>
  <unicode hex="0050"/>
  <outline>
    <contour>
      <point x="398" y="329" type="curve" smooth="yes"/>
      <point x="354" y="329" type="line"/>
      <point x="425" y="576" type="line"/>
      <point x="470" y="576" type="line" smooth="yes"/>
      <point x="512" y="576"/>
      <point x="541" y="551"/>
      <point x="513" y="453" type="curve" smooth="yes"/>
      <point x="485" y="355"/>
      <point x="451" y="329"/>
    </contour>
    <contour>
      <point x="208" y="666" type="line" smooth="yes"/>
      <point x="172" y="666"/>
      <point x="154" y="660"/>
      <point x="149" y="642" type="curve" smooth="yes"/>
      <point x="137" y="608"/>
      <point x="182" y="609"/>
      <point x="165" y="549" type="curve" smooth="yes"/>
      <point x="43" y="118" type="line" smooth="yes"/>
      <point x="27" y="59"/>
      <point x="-16" y="68"/>
      <point x="-24" y="36" type="curve" smooth="yes"/>
      <point x="-29" y="13"/>
      <point x="-11" y="0"/>
      <point x="24" y="0" type="curve" smooth="yes"/>
      <point x="275" y="0" type="line" smooth="yes"/>
      <point x="310" y="0"/>
      <point x="332" y="6"/>
      <point x="337" y="25" type="curve" smooth="yes"/>
      <point x="346" y="57"/>
      <point x="279" y="62"/>
      <point x="295" y="118" type="curve" smooth="yes"/>
      <point x="329" y="239" type="line"/>
      <point x="432" y="239" type="line" smooth="yes"/>
      <point x="594" y="239"/>
      <point x="712" y="298"/>
      <point x="751" y="435" type="curve" smooth="yes"/>
      <point x="788" y="564"/>
      <point x="715" y="666"/>
      <point x="539" y="666" type="curve" smooth="yes"/>
    </contour>
  </outline>
</glyph>
<glyph name="Q" format="1">
  <advance width="733"/>
  <unicode hex="0051"/>
  <outline>
    <contour>
      <point x="256" y="37" type="line"/>
      <point x="292" y="-70" type="line" smooth="yes"/>
      <point x="329" y="-181"/>
      <point x="391" y="-221"/>
      <point x="466" y="-221" type="curve" smooth="yes"/>
      <point x="544" y="-221"/>
      <point x="596" y="-179"/>
      <point x="616" y="-111" type="curve" smooth="yes"/>
      <point x="636" y="-42"/>
      <point x="615" y="17"/>
      <point x="600" y="17" type="curve" smooth="yes"/>
      <point x="579" y="17"/>
      <point x="551" y="-32"/>
      <point x="490" y="-32" type="curve" smooth="yes"/>
      <point x="439" y="-32"/>
      <point x="398" y="-9"/>
      <point x="358" y="45" type="curve"/>
    </contour>
    <component base="O"/>
  </outline>
</glyph>
<glyph name="U" format="1">
  <advance width="788"/>
  <unicode hex="0055"/>
  <outline>
    <contour>
      <point x="403" y="0" type="move" name="ogonek"/>
    </contour>
    <contour>
      <point x="516" y="651" type="move" name="top"/>
    </contour>
    <contour>
      <point x="529" y="244" type="line" smooth="yes"/>
      <point x="502" y="149"/>
      <point x="462" y="118"/>
      <point x="406" y="118" type="curve" smooth="yes"/>
      <point x="347" y="118"/>
      <point x="317" y="150"/>
      <point x="343" y="243" type="curve" smooth="yes"/>
      <point x="430" y="549" type="line" smooth="yes"/>
      <point x="447" y="608"/>
      <point x="488" y="597"/>
      <point x="498" y="630" type="curve" smooth="yes"/>
      <point x="504" y="652"/>
      <point x="492" y="666"/>
      <point x="456" y="666" type="curve" smooth="yes"/>
      <point x="221" y="666" type="line" smooth="yes"/>
      <point x="185" y="666"/>
      <point x="168" y="660"/>
      <point x="162" y="642" type="curve" smooth="yes"/>
      <point x="151" y="611"/>
      <point x="195" y="609"/>
      <point x="178" y="549" type="curve" smooth="yes"/>
      <point x="102" y="280" type="line" smooth="yes"/>
      <point x="44" y="76"/>
      <point x="151" y="-6"/>
      <point x="335" y="-6" type="curve" smooth="yes"/>
      <point x="514" y="-6"/>
      <point x="605" y="86"/>
      <point x="646" y="238" type="curve" smooth="yes"/>
      <point x="705" y="455" type="line"/>
      <point x="722" y="450"/>
      <point x="735" y="446"/>
      <point x="761" y="446" type="curve" smooth="yes"/>
      <point x="800" y="446"/>
      <point x="845" y="466"/>
      <point x="861" y="529" type="curve" smooth="yes"/>
      <point x="880" y="602"/>
      <point x="838" y="670"/>
      <point x="760" y="670" type="curve" smooth="yes"/>
      <point x="674" y="670"/>
      <point x="635" y="616"/>
      <point x="611" y="531" type="curve" smooth="yes"/>
    </contour>
  </outline>
</glyph>
<glyph name="W" format="1">
  <advance width="1144"/>
  <unicode hex="0057"/>
  <outline>
    <contour>
      <point x="809" y="217" type="line"/>
      <point x="880" y="230" type="line"/>
      <point x="862" y="550" type="line" smooth="yes"/>
      <point x="859" y="597"/>
      <point x="895" y="602"/>
      <point x="895" y="631" type="curve" smooth="yes"/>
      <point x="896" y="652"/>
      <point x="880" y="666"/>
      <point x="849" y="666" type="curve" smooth="yes"/>
      <point x="599" y="666" type="line" smooth="yes"/>
      <point x="564" y="666"/>
      <point x="552" y="652"/>
      <point x="555" y="629" type="curve" smooth="yes"/>
      <point x="555" y="603"/>
      <point x="599" y="599"/>
      <point x="605" y="548" type="curve" smooth="yes"/>
      <point x="655" y="86" type="line" smooth="yes"/>
      <point x="662" y="22"/>
      <point x="691" y="0"/>
      <point x="731" y="0" type="curve" smooth="yes"/>
      <point x="771" y="0"/>
      <point x="797" y="25"/>
      <point x="833" y="86" type="curve" smooth="yes"/>
      <point x="1076" y="492" type="line"/>
      <point x="1084" y="474"/>
      <point x="1113" y="454"/>
      <point x="1146" y="454" type="curve" smooth="yes"/>
      <point x="1192" y="454"/>
      <point x="1256" y="495"/>
      <point x="1255" y="572" type="curve" smooth="yes"/>
      <point x="1253" y="634"/>
      <point x="1213" y="670"/>
      <point x="1154" y="670" type="curve" smooth="yes"/>
      <point x="1086" y="670"/>
      <point x="1052" y="643"/>
      <point x="1009" y="568" type="curve" smooth="yes"/>
    </contour>
    <contour>
      <point x="643" y="575" type="line"/>
      <point x="346" y="147" type="line"/>
      <point x="471" y="190" type="line"/>
      <point x="432" y="550" type="line" smooth="yes"/>
      <point x="427" y="597"/>
      <point x="465" y="602"/>
      <point x="465" y="631" type="curve" smooth="yes"/>
      <point x="466" y="652"/>
      <point x="451" y="666"/>
      <point x="420" y="666" type="curve" smooth="yes"/>
      <point x="171" y="666" type="line" smooth="yes"/>
      <point x="136" y="666"/>
      <point x="124" y="652"/>
      <point x="127" y="629" type="curve" smooth="yes"/>
      <point x="127" y="603"/>
      <point x="169" y="601"/>
      <point x="177" y="548" type="curve" smooth="yes"/>
      <point x="241" y="96" type="line" smooth="yes"/>
      <point x="250" y="31"/>
      <point x="275" y="0"/>
      <point x="315" y="0" type="curve" smooth="yes"/>
      <point x="352" y="0"/>
      <point x="374" y="18"/>
      <point x="421" y="86" type="curve" smooth="yes"/>
      <point x="679" y="461" type="line"/>
    </contour>
  </outline>
</glyph>
<glyph name="X" format="1">
  <advance width="809"/>
  <unicode hex="0058"/>
  <outline>
    <contour>
      <point x="685" y="0" type="line" smooth="yes"/>
      <point x="718" y="0"/>
      <point x="732" y="9"/>
      <point x="736" y="26" type="curve" smooth="yes"/>
      <point x="746" y="68"/>
      <point x="691" y="56"/>
      <point x="661" y="128" type="curve" smooth="yes"/>
      <point x="495" y="530" type="line" smooth="yes"/>
      <point x="463" y="607"/>
      <point x="507" y="593"/>
      <point x="517" y="626" type="curve" smooth="yes"/>
      <point x="523" y="647"/>
      <point x="509" y="666"/>
      <point x="467" y="666" type="curve" smooth="yes"/>
      <point x="198" y="666" type="line" smooth="yes"/>
      <point x="165" y="666"/>
      <point x="151" y="657"/>
      <point x="147" y="640" type="curve" smooth="yes"/>
      <point x="137" y="598"/>
      <point x="192" y="610"/>
      <point x="222" y="538" type="curve" smooth="yes"/>
      <point x="388" y="136" type="line" smooth="yes"/>
      <point x="420" y="58"/>
      <point x="376" y="73"/>
      <point x="366" y="40" type="curve" smooth="yes"/>
      <point x="360" y="19"/>
      <point x="374" y="0"/>
      <point x="416" y="0" type="curve" smooth="yes"/>
    </contour>
    <contour>
      <point x="210" y="0" type="line" smooth="yes"/>
      <point x="246" y="0"/>
      <point x="261" y="6"/>
      <point x="266" y="26" type="curve" smooth="yes"/>
      <point x="276" y="63"/>
      <point x="192" y="71"/>
      <point x="262" y="136" type="curve" smooth="yes"/>
      <point x="467" y="329" type="line"/>
      <point x="415" y="409" type="line"/>
      <point x="94" y="133" type="line" smooth="yes"/>
      <point x="11" y="62"/>
      <point x="-34" y="79"/>
      <point x="-45" y="40" type="curve" smooth="yes"/>
      <point x="-51" y="18"/>
      <point x="-35" y="0"/>
      <point x="1" y="0" type="curve" smooth="yes"/>
    </contour>
    <contour>
      <point x="763" y="533" type="line" smooth="yes"/>
      <point x="847" y="604"/>
      <point x="891" y="587"/>
      <point x="902" y="626" type="curve" smooth="yes"/>
      <point x="908" y="648"/>
      <point x="892" y="666"/>
      <point x="856" y="666" type="curve" smooth="yes"/>
      <point x="647" y="666" type="line" smooth="yes"/>
      <point x="611" y="666"/>
      <point x="596" y="660"/>
      <point x="591" y="640" type="curve" smooth="yes"/>
      <point x="581" y="603"/>
      <point x="666" y="595"/>
      <point x="595" y="530" type="curve" smooth="yes"/>
      <point x="385" y="337" type="line"/>
      <point x="437" y="257" type="line"/>
    </contour>
  </outline>
</glyph>
<glyph name="Z" format="1">
  <advance width="734"/>
  <unicode hex="005A"/>
  <outline>
    <contour>
      <point x="463" y="651" type="move" name="top"/>
    </contour>
    <contour>
      <point x="267" y="96" type="line"/>
      <point x="281" y="68" type="line"/>
      <point x="743" y="529" type="line" smooth="yes"/>
      <point x="809" y="595"/>
      <point x="781" y="666"/>
      <point x="707" y="666" type="curve" smooth="yes"/>
      <point x="247" y="666" type="line" smooth="yes"/>
      <point x="193" y="666"/>
      <point x="169" y="648"/>
      <point x="154" y="598" type="curve" smooth="yes"/>
      <point x="125" y="497" type="line" smooth="yes"/>
      <point x="113" y="454"/>
      <point x="141" y="438"/>
      <point x="172" y="438" type="curve" smooth="yes"/>
      <point x="202" y="438"/>
      <point x="218" y="449"/>
      <point x="238" y="470" type="curve" smooth="yes"/>
      <point x="298" y="536" type="line" smooth="yes"/>
      <point x="321" y="561"/>
      <point x="337" y="570"/>
      <point x="363" y="570" type="curve" smooth="yes"/>
      <point x="497" y="570" type="line"/>
      <point x="483" y="599" type="line"/>
      <point x="49" y="140" type="line" smooth="yes"/>
      <point x="21" y="111"/>
      <point x="8" y="88"/>
      <point x="9" y="62" type="curve" smooth="yes"/>
      <point x="10" y="25"/>
      <point x="37" y="0"/>
      <point x="95" y="0" type="curve"/>
      <point x="543" y="0" type="line" smooth="yes"/>
      <point x="597" y="0"/>
      <point x="621" y="18"/>
      <point x="636" y="68" type="curve" smooth="yes"/>
      <point x="665" y="169" type="line" smooth="yes"/>
      <point x="677" y="212"/>
      <point x="649" y="228"/>
      <point x="618" y="228" type="curve" smooth="yes"/>
      <point x="588" y="228"/>
      <point x="572" y="217"/>
      <point x="552" y="196" type="curve" smooth="yes"/>
      <point x="492" y="130" type="line" smooth="yes"/>
      <point x="469" y="105"/>
      <point x="452" y="96"/>
      <point x="427" y="96" type="curve" smooth="yes"/>
    </contour>
  </outline>
</glyph>
<glyph name="backslash" format="1">
  <advance width="552"/>
  <unicode hex="005C"/>
  <outline>
    <contour>
      <point x="182" y="739" type="curve" smooth="yes"/>
      <point x="146" y="739"/>
      <point x="124" y="711"/>
      <point x="135" y="677" type="curve" smooth="yes"/>
      <point x="361" y="-32" type="line" smooth="yes"/>
      <point x="370" y="-60"/>
      <point x="387" y="-73"/>
      <point x="413" y="-73" type="curve" smooth="yes"/>
      <point x="449" y="-73"/>
      <point x="469" y="-45"/>
      <point x="458" y="-11" type="curve" smooth="yes"/>
      <point x="230" y="703" type="line" smooth="yes"/>
      <point x="222" y="727"/>
      <point x="208" y="739"/>
    </contour>
  </outline>
</glyph>
<glyph name="underscore" format="1">
  <advance width="869"/>
  <unicode hex="005F"/>
  <outline>
    <contour>
      <point x="39" y="-143" type="curve" smooth="yes"/>
      <point x="632" y="-143" type="line" smooth="yes"/>
      <point x="677" y="-143"/>
      <point x="704" y="-121"/>
      <point x="716" y="-82" type="curve" smooth="yes"/>
      <point x="725" y="-43"/>
      <point x="707" y="-21"/>
      <point x="663" y="-21" type="curve" smooth="yes"/>
      <point x="70" y="-21" type="line" smooth="yes"/>
      <point x="27" y="-21"/>
      <point x="-3" y="-43"/>
      <point x="-13" y="-82" type="curve" smooth="yes"/>
      <point x="-24" y="-121"/>
      <point x="-5" y="-143"/>
    </contour>
  </outline>
</glyph>
<glyph name="a" format="1">
  <advance width="654"/>
  <unicode hex="0061"/>
  <outline>
    <contour>
      <point x="456" y="0" type="move" name="ogonek"/>
    </contour>
    <contour>
      <point x="267" y="0" type="move" name="bottom"/>
    </contour>
    <contour>
      <point x="391" y="500" type="move" name="top"/>
    </contour>
    <contour>
      <point x="130" y="412" type="curve" smooth="yes"/>
      <point x="131" y="372"/>
      <point x="166" y="338"/>
      <point x="234" y="338" type="curve" smooth="yes"/>
      <point x="324" y="338"/>
      <point x="356" y="406"/>
      <point x="336" y="462" type="curve"/>
      <point x="378" y="462"/>
      <point x="397" y="446"/>
      <point x="398" y="414" type="curve" smooth="yes"/>
      <point x="398" y="397"/>
      <point x="393" y="375"/>
      <point x="385" y="349" type="curve" smooth="yes"/>
      <point x="360" y="283" type="line"/>
      <point x="314" y="298"/>
      <point x="262" y="309"/>
      <point x="197" y="309" type="curve" smooth="yes"/>
      <point x="104" y="309"/>
      <point x="22" y="267"/>
      <point x="0" y="170" type="curve" smooth="yes"/>
      <point x="-17" y="95"/>
      <point x="29" y="-3"/>
      <point x="157" y="-3" type="curve" smooth="yes"/>
      <point x="220" y="-3"/>
      <point x="276" y="25"/>
      <point x="316" y="72" type="curve"/>
      <point x="335" y="22"/>
      <point x="388" y="-3"/>
      <point x="456" y="-3" type="curve" smooth="yes"/>
      <point x="545" y="-3"/>
      <point x="614" y="62"/>
      <point x="613" y="116" type="curve" smooth="yes"/>
      <point x="613" y="127"/>
      <point x="608" y="139"/>
      <point x="601" y="139" type="curve" smooth="yes"/>
      <point x="594" y="139"/>
      <point x="588" y="118"/>
      <point x="569" y="118" type="curve" smooth="yes"/>
      <point x="558" y="118"/>
      <point x="553" y="128"/>
      <point x="557" y="144" type="curve" smooth="yes"/>
      <point x="598" y="282" type="line" smooth="yes"/>
      <point x="649" y="458"/>
      <point x="528" y="529"/>
      <point x="357" y="529" type="curve" smooth="yes"/>
      <point x="193" y="529"/>
      <point x="129" y="472"/>
    </contour>
    <contour>
      <point x="339" y="223" type="curve"/>
      <point x="318" y="164" type="line" smooth="yes"/>
      <point x="307" y="133"/>
      <point x="281" y="122"/>
      <point x="267" y="122" type="curve" smooth="yes"/>
      <point x="243" y="122"/>
      <point x="234" y="147"/>
      <point x="240" y="173" type="curve" smooth="yes"/>
      <point x="247" y="200"/>
      <point x="268" y="226"/>
      <point x="301" y="226" type="curve" smooth="yes"/>
      <point x="309" y="226"/>
      <point x="328" y="225"/>
    </contour>
  </outline>
</glyph>
<glyph name="d" format="1">
  <advance width="655"/>
  <unicode hex="0064"/>
  <outline>
    <contour>
      <point x="740" y="739" type="move" name="right"/>
    </contour>
    <contour>
      <point x="702" y="614" type="line" smooth="yes"/>
      <point x="723" y="683"/>
      <point x="700" y="739"/>
      <point x="596" y="739" type="curve" smooth="yes"/>
      <point x="516" y="739"/>
      <point x="422" y="713"/>
      <point x="414" y="682" type="curve" smooth="yes"/>
      <point x="406" y="649"/>
      <point x="462" y="653"/>
      <point x="447" y="605" type="curve" smooth="yes"/>
      <point x="413" y="493" type="line"/>
      <point x="382" y="518"/>
      <point x="344" y="533"/>
      <point x="284" y="533" type="curve" smooth="yes"/>
      <point x="119" y="533"/>
      <point x="9" y="357"/>
      <point x="12" y="175" type="curve" smooth="yes"/>
      <point x="14" y="67"/>
      <point x="95" y="-3"/>
      <point x="184" y="-3" type="curve" smooth="yes"/>
      <point x="235" y="-3"/>
      <point x="283" y="19"/>
      <point x="320" y="66" type="curve"/>
      <point x="338" y="25"/>
      <point x="391" y="-3"/>
      <point x="458" y="-3" type="curve" smooth="yes"/>
      <point x="546" y="-3"/>
      <point x="615" y="62"/>
      <point x="614" y="116" type="curve" smooth="yes"/>
      <point x="614" y="127"/>
      <point x="610" y="139"/>
      <point x="603" y="139" type="curve" smooth="yes"/>
      <point x="595" y="139"/>
      <point x="590" y="118"/>
      <point x="571" y="118" type="curve" smooth="yes"/>
      <point x="560" y="118"/>
      <point x="554" y="128"/>
      <point x="559" y="144" type="curve" smooth="yes"/>
    </contour>
    <contour>
      <point x="314" y="172" type="line" smooth="yes"/>
      <point x="304" y="140"/>
      <point x="293" y="127"/>
      <point x="275" y="127" type="curve" smooth="yes"/>
      <point x="250" y="127"/>
      <point x="239" y="146"/>
      <point x="239" y="182" type="curve" smooth="yes"/>
      <point x="237" y="279"/>
      <point x="295" y="439"/>
      <point x="357" y="439" type="curve" smooth="yes"/>
      <point x="371" y="439"/>
      <point x="382" y="434"/>
      <point x="392" y="425" type="curve"/>
    </contour>
  </outline>
</glyph>
<glyph name="f" format="1">
  <advance width="416"/>
  <unicode hex="0066"/>
  <outline>
    <contour>
      <point x="141" y="618" type="curve" smooth="yes"/>
      <point x="131" y="590"/>
      <point x="129" y="555"/>
      <point x="139" y="516" type="curve"/>
      <point x="114" y="516" type="line" smooth="yes"/>
      <point x="57" y="516"/>
      <point x="44" y="505"/>
      <point x="45" y="481" type="curve" smooth="yes"/>
      <point x="45" y="445"/>
      <point x="121" y="445"/>
      <point x="96" y="362" type="curve" smooth="yes"/>
      <point x="18" y="106" type="line" smooth="yes"/>
      <point x="-1" y="46"/>
      <point x="-36" y="59"/>
      <point x="-45" y="31" type="curve"/>
      <point x="-50" y="13"/>
      <point x="-35" y="0"/>
      <point x="1" y="0" type="curve" smooth="yes"/>
      <point x="229" y="0" type="line" smooth="yes"/>
      <point x="272" y="0"/>
      <point x="289" y="8"/>
      <point x="295" y="25" type="curve" smooth="yes"/>
      <point x="302" y="51"/>
      <point x="251" y="47"/>
      <point x="268" y="104" type="curve" smooth="yes"/>
      <point x="367" y="428" type="line"/>
      <point x="397" y="428" type="line" smooth="yes"/>
      <point x="449" y="428"/>
      <point x="469" y="444"/>
      <point x="477" y="472" type="curve" smooth="yes"/>
      <point x="484" y="500"/>
      <point x="468" y="516"/>
      <point x="427" y="516" type="curve" smooth="yes"/>
      <point x="368" y="516" type="line" smooth="yes"/>
      <point x="339" y="516"/>
      <point x="326" y="556"/>
      <point x="341" y="608" type="curve" smooth="yes"/>
      <point x="356" y="658"/>
      <point x="385" y="672"/>
      <point x="422" y="672" type="curve"/>
      <point x="390" y="619"/>
      <point x="418" y="548"/>
      <point x="508" y="548" type="curve" smooth="yes"/>
      <point x="566" y="548"/>
      <point x="612" y="569"/>
      <point x="620" y="611" type="curve" smooth="yes"/>
      <point x="632" y="673"/>
      <point x="574" y="739"/>
      <point x="408" y="739" type="curve" smooth="yes"/>
      <point x="227" y="739"/>
      <point x="162" y="675"/>
    </contour>
  </outline>
</glyph>
<glyph name="h" format="1">
  <advance width="710"/>
  <unicode hex="0068"/>
  <outline>
    <contour>
      <point x="137" y="682" type="curve" smooth="yes"/>
      <point x="129" y="649"/>
      <point x="185" y="654"/>
      <point x="170" y="605" type="curve" smooth="yes"/>
      <point x="18" y="106" type="line" smooth="yes"/>
      <point x="0" y="46"/>
      <point x="-36" y="59"/>
      <point x="-45" y="31" type="curve" smooth="yes"/>
      <point x="-50" y="13"/>
      <point x="-35" y="0"/>
      <point x="1" y="0" type="curve" smooth="yes"/>
      <point x="229" y="0" type="line" smooth="yes"/>
      <point x="272" y="0"/>
      <point x="289" y="8"/>
      <point x="295" y="25" type="curve" smooth="yes"/>
      <point x="302" y="51"/>
      <point x="251" y="48"/>
      <point x="268" y="104" type="curve" smooth="yes"/>
      <point x="425" y="614" type="line" smooth="yes"/>
      <point x="446" y="683"/>
      <point x="423" y="739"/>
      <point x="319" y="739" type="curve" smooth="yes"/>
      <point x="239" y="739"/>
      <point x="145" y="713"/>
    </contour>
    <contour>
      <point x="320" y="354" type="curve"/>
      <point x="331" y="305" type="line"/>
      <point x="349" y="362"/>
      <point x="380" y="379"/>
      <point x="401" y="379" type="curve" smooth="yes"/>
      <point x="421" y="379"/>
      <point x="438" y="363"/>
      <point x="425" y="330" type="curve" smooth="yes"/>
      <point x="370" y="186" type="line" smooth="yes"/>
      <point x="358" y="155"/>
      <point x="352" y="126"/>
      <point x="352" y="103" type="curve" smooth="yes"/>
      <point x="353" y="35"/>
      <point x="409" y="-9"/>
      <point x="497" y="-9" type="curve" smooth="yes"/>
      <point x="610" y="-9"/>
      <point x="668" y="55"/>
      <point x="667" y="110" type="curve" smooth="yes"/>
      <point x="667" y="121"/>
      <point x="663" y="132"/>
      <point x="656" y="132" type="curve" smooth="yes"/>
      <point x="649" y="132"/>
      <point x="643" y="111"/>
      <point x="624" y="111" type="curve" smooth="yes"/>
      <point x="613" y="111"/>
      <point x="607" y="122"/>
      <point x="613" y="138" type="curve" smooth="yes"/>
      <point x="674" y="335" type="line" smooth="yes"/>
      <point x="708" y="445"/>
      <point x="650" y="529"/>
      <point x="548" y="529" type="curve" smooth="yes"/>
      <point x="468" y="529"/>
      <point x="390" y="498"/>
    </contour>
  </outline>
</glyph>
<glyph name="k" format="1">
  <advance width="699"/>
  <unicode hex="006B"/>
  <outline>
    <contour>
      <point x="411" y="500" type="move" name="top"/>
    </contour>
    <contour>
      <point x="327" y="0" type="move" name="bottom"/>
    </contour>
    <contour>
      <point x="137" y="682" type="curve" smooth="yes"/>
      <point x="129" y="649"/>
      <point x="185" y="654"/>
      <point x="170" y="605" type="curve" smooth="yes"/>
      <point x="18" y="106" type="line" smooth="yes"/>
      <point x="0" y="46"/>
      <point x="-36" y="59"/>
      <point x="-45" y="31" type="curve" smooth="yes"/>
      <point x="-50" y="13"/>
      <point x="-35" y="0"/>
      <point x="1" y="0" type="curve" smooth="yes"/>
      <point x="229" y="0" type="line" smooth="yes"/>
      <point x="272" y="0"/>
      <point x="289" y="8"/>
      <point x="295" y="25" type="curve" smooth="yes"/>
      <point x="302" y="51"/>
      <point x="251" y="48"/>
      <point x="268" y="104" type="curve" smooth="yes"/>
      <point x="424" y="614" type="line" smooth="yes"/>
      <point x="445" y="683"/>
      <point x="423" y="739"/>
      <point x="319" y="739" type="curve" smooth="yes"/>
      <point x="239" y="739"/>
      <point x="145" y="713"/>
    </contour>
    <contour>
      <point x="324" y="308" type="line"/>
      <point x="287" y="251" type="line"/>
      <point x="333" y="251" type="line" smooth="yes"/>
      <point x="367" y="251"/>
      <point x="375" y="237"/>
      <point x="363" y="200" type="curve" smooth="yes"/>
      <point x="344" y="150" type="line" smooth="yes"/>
      <point x="312" y="57"/>
      <point x="385" y="-9"/>
      <point x="485" y="-9" type="curve" smooth="yes"/>
      <point x="597" y="-9"/>
      <point x="650" y="55"/>
      <point x="649" y="110" type="curve" smooth="yes"/>
      <point x="649" y="121"/>
      <point x="645" y="132"/>
      <point x="638" y="132" type="curve" smooth="yes"/>
      <point x="630" y="132"/>
      <point x="625" y="111"/>
      <point x="606" y="111" type="curve" smooth="yes"/>
      <point x="595" y="111"/>
      <point x="589" y="120"/>
      <point x="595" y="138" type="curve" smooth="yes"/>
      <point x="603" y="169" type="line" smooth="yes"/>
      <point x="628" y="247"/>
      <point x="587" y="308"/>
      <point x="443" y="308" type="curve" smooth="yes"/>
    </contour>
    <contour>
      <point x="422" y="377" type="curve" smooth="yes"/>
      <point x="413" y="347"/>
      <point x="398" y="330"/>
      <point x="370" y="330" type="curve" smooth="yes"/>
      <point x="325" y="330" type="line"/>
      <point x="298" y="280" type="line"/>
      <point x="392" y="280" type="line" smooth="yes"/>
      <point x="443" y="280"/>
      <point x="480" y="291"/>
      <point x="495" y="342" type="curve" smooth="yes"/>
      <point x="506" y="382"/>
      <point x="515" y="391"/>
      <point x="527" y="389" type="curve"/>
      <point x="526" y="356"/>
      <point x="554" y="319"/>
      <point x="614" y="319" type="curve" smooth="yes"/>
      <point x="670" y="319"/>
      <point x="710" y="350"/>
      <point x="718" y="404" type="curve" smooth="yes"/>
      <point x="728" y="469"/>
      <point x="679" y="529"/>
      <point x="593" y="529" type="curve" smooth="yes"/>
      <point x="500" y="529"/>
      <point x="453" y="469"/>
    </contour>
  </outline>
</glyph>
<glyph name="l" format="1">
  <advance width="366"/>
  <unicode hex="006C"/>
  <outline>
    <contour>
      <point x="462" y="739" type="move" name="right"/>
    </contour>
    <contour>
      <point x="312" y="705" type="move" name="top"/>
    </contour>
    <contour>
      <point x="137" y="682" type="curve" smooth="yes"/>
      <point x="129" y="649"/>
      <point x="185" y="654"/>
      <point x="170" y="605" type="curve" smooth="yes"/>
      <point x="18" y="106" type="line" smooth="yes"/>
      <point x="0" y="46"/>
      <point x="-36" y="59"/>
      <point x="-45" y="31" type="curve" smooth="yes"/>
      <point x="-50" y="13"/>
      <point x="-35" y="0"/>
      <point x="1" y="0" type="curve" smooth="yes"/>
      <point x="229" y="0" type="line" smooth="yes"/>
      <point x="272" y="0"/>
      <point x="289" y="8"/>
      <point x="295" y="25" type="curve" smooth="yes"/>
      <point x="302" y="51"/>
      <point x="251" y="48"/>
      <point x="268" y="104" type="curve" smooth="yes"/>
      <point x="425" y="614" type="line" smooth="yes"/>
      <point x="446" y="683"/>
      <point x="423" y="739"/>
      <point x="319" y="739" type="curve" smooth="yes"/>
      <point x="239" y="739"/>
      <point x="145" y="713"/>
    </contour>
  </outline>
</glyph>
<glyph name="o" format="1">
  <advance width="656"/>
  <unicode hex="006F"/>
  <outline>
    <contour>
      <point x="403" y="500" type="move" name="top"/>
    </contour>
    <contour>
      <point x="18" y="263" type="curve" smooth="yes"/>
      <point x="-16" y="116"/>
      <point x="51" y="-9"/>
      <point x="282" y="-9" type="curve" smooth="yes"/>
      <point x="460" y="-9"/>
      <point x="605" y="97"/>
      <point x="644" y="263" type="curve" smooth="yes"/>
      <point x="677" y="402"/>
      <point x="615" y="529"/>
      <point x="387" y="529" type="curve" smooth="yes"/>
      <point x="209" y="529"/>
      <point x="56" y="421"/>
    </contour>
    <contour>
      <point x="378" y="262" type="curve" smooth="yes"/>
      <point x="329" y="103"/>
      <point x="302" y="76"/>
      <point x="278" y="78" type="curve" smooth="yes"/>
      <point x="253" y="78"/>
      <point x="233" y="96"/>
      <point x="284" y="261" type="curve" smooth="yes"/>
      <point x="331" y="412"/>
      <point x="360" y="440"/>
      <point x="384" y="440" type="curve" smooth="yes"/>
      <point x="409" y="440"/>
      <point x="428" y="419"/>
    </contour>
  </outline>
</glyph>
<glyph name="s" format="1">
  <advance width="593"/>
  <unicode hex="0073"/>
  <outline>
    <contour>
      <point x="332" y="500" type="move" name="top"/>
    </contour>
    <contour>
      <point x="297" y="0" type="move" name="bottom"/>
    </contour>
    <contour>
      <point x="66" y="356" type="curve" smooth="yes"/>
      <point x="68" y="216"/>
      <point x="301" y="207"/>
      <point x="303" y="128" type="curve" smooth="yes"/>
      <point x="303" y="94"/>
      <point x="276" y="75"/>
      <point x="243" y="75" type="curve" smooth="yes"/>
      <point x="225" y="75"/>
      <point x="213" y="77"/>
      <point x="197" y="81" type="curve"/>
      <point x="215" y="162"/>
      <point x="151" y="218"/>
      <point x="79" y="218" type="curve" smooth="yes"/>
      <point x="35" y="218"/>
      <point x="0" y="200"/>
      <point x="-12" y="160" type="curve" smooth="yes"/>
      <point x="-40" y="57"/>
      <point x="77" y="-4"/>
      <point x="275" y="-4" type="curve" smooth="yes"/>
      <point x="436" y="-4"/>
      <point x="535" y="53"/>
      <point x="556" y="141" type="curve" smooth="yes"/>
      <point x="596" y="314"/>
      <point x="291" y="319"/>
      <point x="290" y="413" type="curve" smooth="yes"/>
      <point x="289" y="443"/>
      <point x="315" y="459"/>
      <point x="347" y="459" type="curve" smooth="yes"/>
      <point x="357" y="459"/>
      <point x="368" y="457"/>
      <point x="379" y="454" type="curve"/>
      <point x="359" y="389"/>
      <point x="419" y="341"/>
      <point x="494" y="341" type="curve" smooth="yes"/>
      <point x="562" y="341"/>
      <point x="599" y="375"/>
      <point x="598" y="422" type="curve" smooth="yes"/>
      <point x="595" y="489"/>
      <point x="497" y="538"/>
      <point x="329" y="538" type="curve" smooth="yes"/>
      <point x="155" y="538"/>
      <point x="64" y="463"/>
    </contour>
  </outline>
</glyph>
<glyph name="t" format="1">
  <advance width="430"/>
  <unicode hex="0074"/>
  <outline>
    <contour>
      <point x="394" y="517" type="move" name="corner"/>
    </contour>
    <contour>
      <point x="210" y="0" type="move" name="bottom"/>
    </contour>
    <contour>
      <point x="452" y="808" type="move" name="right"/>
    </contour>
    <contour>
      <point x="257" y="428" type="curve" smooth="yes"/>
      <point x="425" y="428" type="line" smooth="yes"/>
      <point x="457" y="428"/>
      <point x="477" y="444"/>
      <point x="485" y="472" type="curve" smooth="yes"/>
      <point x="492" y="500"/>
      <point x="479" y="516"/>
      <point x="447" y="516" type="curve" smooth="yes"/>
      <point x="279" y="516" type="line" smooth="yes"/>
      <point x="248" y="516"/>
      <point x="226" y="500"/>
      <point x="219" y="472" type="curve" smooth="yes"/>
      <point x="211" y="444"/>
      <point x="225" y="428"/>
    </contour>
    <contour>
      <point x="217" y="579" type="curve" smooth="yes"/>
      <point x="154" y="516" type="line"/>
      <point x="98" y="516" type="line" smooth="yes"/>
      <point x="59" y="516"/>
      <point x="45" y="505"/>
      <point x="40" y="489" type="curve" smooth="yes"/>
      <point x="29" y="443"/>
      <point x="121" y="435"/>
      <point x="95" y="353" type="curve" smooth="yes"/>
      <point x="31" y="155" type="line" smooth="yes"/>
      <point x="-1" y="56"/>
      <point x="64" y="-9"/>
      <point x="173" y="-9" type="curve" smooth="yes"/>
      <point x="308" y="-9"/>
      <point x="401" y="72"/>
      <point x="400" y="109" type="curve" smooth="yes"/>
      <point x="400" y="118"/>
      <point x="395" y="125"/>
      <point x="386" y="125" type="curve" smooth="yes"/>
      <point x="372" y="125"/>
      <point x="351" y="118"/>
      <point x="325" y="118" type="curve" smooth="yes"/>
      <point x="298" y="118"/>
      <point x="276" y="128"/>
      <point x="292" y="181" type="curve" smooth="yes"/>
      <point x="408" y="562" type="line" smooth="yes"/>
      <point x="422" y="610"/>
      <point x="403" y="638"/>
      <point x="349" y="638" type="curve" smooth="yes"/>
      <point x="288" y="638"/>
      <point x="258" y="620"/>
    </contour>
  </outline>
</glyph>
<glyph name="w" format="1">
  <advance width="927"/>
  <unicode hex="0077"/>
  <outline>
    <contour>
      <point x="707" y="404" type="curve" smooth="yes"/>
      <point x="708" y="361"/>
      <point x="724" y="316"/>
      <point x="780" y="268" type="curve"/>
      <point x="741" y="163"/>
      <point x="666" y="106"/>
      <point x="624" y="106" type="curve" smooth="yes"/>
      <point x="596" y="106"/>
      <point x="584" y="122"/>
      <point x="592" y="148" type="curve" smooth="yes"/>
      <point x="657" y="362" type="line" smooth="yes"/>
      <point x="686" y="456"/>
      <point x="636" y="529"/>
      <point x="523" y="529" type="curve" smooth="yes"/>
      <point x="436" y="529"/>
      <point x="381" y="489"/>
      <point x="382" y="462" type="curve" smooth="yes"/>
      <point x="382" y="440"/>
      <point x="425" y="433"/>
      <point x="414" y="395" type="curve" smooth="yes"/>
      <point x="351" y="180" type="line" smooth="yes"/>
      <point x="314" y="55"/>
      <point x="403" y="-9"/>
      <point x="535" y="-9" type="curve" smooth="yes"/>
      <point x="722" y="-9"/>
      <point x="942" y="207"/>
      <point x="939" y="391" type="curve" smooth="yes"/>
      <point x="938" y="478"/>
      <point x="883" y="529"/>
      <point x="816" y="529" type="curve" smooth="yes"/>
      <point x="741" y="529"/>
      <point x="706" y="468"/>
    </contour>
    <contour>
      <point x="357" y="200" type="line"/>
      <point x="341" y="162"/>
      <point x="326" y="146"/>
      <point x="302" y="146" type="curve" smooth="yes"/>
      <point x="280" y="146"/>
      <point x="268" y="162"/>
      <point x="278" y="192" type="curve" smooth="yes"/>
      <point x="329" y="362" type="line" smooth="yes"/>
      <point x="357" y="456"/>
      <point x="308" y="529"/>
      <point x="195" y="529" type="curve" smooth="yes"/>
      <point x="108" y="529"/>
      <point x="53" y="489"/>
      <point x="54" y="462" type="curve" smooth="yes"/>
      <point x="54" y="440"/>
      <point x="97" y="433"/>
      <point x="86" y="395" type="curve" smooth="yes"/>
      <point x="30" y="199" type="line" smooth="yes"/>
      <point x="-11" y="60"/>
      <point x="66" y="-3"/>
      <point x="172" y="-3" type="curve" smooth="yes"/>
      <point x="254" y="-3"/>
      <point x="337" y="46"/>
      <point x="390" y="154" type="curve"/>
    </contour>
  </outline>
</glyph>
<glyph name="x" format="1">
  <advance width="598"/>
  <unicode hex="0078"/>
  <outline>
    <contour>
      <point x="49" y="405" type="curve" smooth="yes"/>
      <point x="44" y="383"/>
      <point x="51" y="371"/>
      <point x="62" y="371" type="curve" smooth="yes"/>
      <point x="75" y="371"/>
      <point x="82" y="382"/>
      <point x="96" y="382" type="curve" smooth="yes"/>
      <point x="118" y="382"/>
      <point x="136" y="369"/>
      <point x="187" y="219" type="curve" smooth="yes"/>
      <point x="263" y="13"/>
      <point x="319" y="-3"/>
      <point x="392" y="-3" type="curve" smooth="yes"/>
      <point x="466" y="-3"/>
      <point x="545" y="51"/>
      <point x="561" y="120" type="curve" smooth="yes"/>
      <point x="567" y="143"/>
      <point x="559" y="155"/>
      <point x="549" y="155" type="curve" smooth="yes"/>
      <point x="536" y="155"/>
      <point x="528" y="144"/>
      <point x="514" y="144" type="curve" smooth="yes"/>
      <point x="491" y="144"/>
      <point x="475" y="157"/>
      <point x="418" y="314" type="curve" smooth="yes"/>
      <point x="349" y="503"/>
      <point x="292" y="529"/>
      <point x="219" y="529" type="curve" smooth="yes"/>
      <point x="144" y="529"/>
      <point x="66" y="475"/>
    </contour>
    <contour>
      <point x="134" y="181" type="line"/>
      <point x="79" y="218"/>
      <point x="14" y="207"/>
      <point x="-9" y="134" type="curve" smooth="yes"/>
      <point x="-32" y="60"/>
      <point x="12" y="-4"/>
      <point x="85" y="-4" type="curve" smooth="yes"/>
      <point x="129" y="-4"/>
      <point x="159" y="21"/>
      <point x="191" y="92" type="curve" smooth="yes"/>
      <point x="250" y="225" type="line"/>
      <point x="229" y="271" type="line"/>
    </contour>
    <contour>
      <point x="474" y="344" type="line"/>
      <point x="529" y="307"/>
      <point x="594" y="318"/>
      <point x="617" y="391" type="curve" smooth="yes"/>
      <point x="640" y="465"/>
      <point x="596" y="529"/>
      <point x="527" y="529" type="curve" smooth="yes"/>
      <point x="479" y="529"/>
      <point x="450" y="506"/>
      <point x="421" y="441" type="curve" smooth="yes"/>
      <point x="358" y="300" type="line"/>
      <point x="379" y="254" type="line"/>
    </contour>
  </outline>
</glyph>
<glyph name="braceright" format="1">
  <advance width="495"/>
  <unicode hex="007D"/>
  <outline>
    <contour>
      <point x="431" y="359" type="curve" smooth="yes"/>
      <point x="401" y="378"/>
      <point x="402" y="402"/>
      <point x="411" y="434" type="curve" smooth="yes"/>
      <point x="428" y="494"/>
      <point x="481" y="556"/>
      <point x="499" y="619" type="curve" smooth="yes"/>
      <point x="528" y="720"/>
      <point x="483" y="811"/>
      <point x="308" y="811" type="curve" smooth="yes"/>
      <point x="204" y="811"/>
      <point x="117" y="767"/>
      <point x="104" y="714" type="curve" smooth="yes"/>
      <point x="101" y="702"/>
      <point x="105" y="689"/>
      <point x="122" y="689" type="curve" smooth="yes"/>
      <point x="137" y="689"/>
      <point x="159" y="698"/>
      <point x="184" y="698" type="curve" smooth="yes"/>
      <point x="236" y="698"/>
      <point x="258" y="663"/>
      <point x="244" y="614" type="curve" smooth="yes"/>
      <point x="226" y="549"/>
      <point x="176" y="504"/>
      <point x="157" y="439" type="curve" smooth="yes"/>
      <point x="140" y="380"/>
      <point x="161" y="347"/>
      <point x="195" y="329" type="curve" smooth="yes"/>
      <point x="217" y="317"/>
      <point x="217" y="314"/>
      <point x="192" y="306" type="curve" smooth="yes"/>
      <point x="141" y="290"/>
      <point x="105" y="258"/>
      <point x="94" y="216" type="curve" smooth="yes"/>
      <point x="78" y="158"/>
      <point x="101" y="70"/>
      <point x="82" y="1" type="curve" smooth="yes"/>
      <point x="65" y="-59"/>
      <point x="27" y="-75"/>
      <point x="-4" y="-75" type="curve" smooth="yes"/>
      <point x="-32" y="-75"/>
      <point x="-57" y="-61"/>
      <point x="-78" y="-61" type="curve" smooth="yes"/>
      <point x="-95" y="-61"/>
      <point x="-104" y="-66"/>
      <point x="-107" y="-79" type="curve" smooth="yes"/>
      <point x="-114" y="-109"/>
      <point x="-50" y="-182"/>
      <point x="92" y="-182" type="curve" smooth="yes"/>
      <point x="212" y="-182"/>
      <point x="309" y="-113"/>
      <point x="334" y="-23" type="curve" smooth="yes"/>
      <point x="357" y="60"/>
      <point x="331" y="145"/>
      <point x="347" y="204" type="curve" smooth="yes"/>
      <point x="357" y="243"/>
      <point x="375" y="262"/>
      <point x="406" y="270" type="curve" smooth="yes"/>
      <point x="433" y="277"/>
      <point x="442" y="281"/>
      <point x="449" y="308" type="curve" smooth="yes"/>
      <point x="456" y="335"/>
      <point x="450" y="347"/>
    </contour>
  </outline>
</glyph>
<glyph name="asciitilde" format="1">
  <advance width="532"/>
  <unicode hex="007E"/>
  <outline>
    <contour>
      <point x="532" y="370" type="curve" smooth="yes"/>
      <point x="542" y="413"/>
      <point x="536" y="449"/>
      <point x="521" y="449" type="curve" smooth="yes"/>
      <point x="503" y="449"/>
      <point x="483" y="406"/>
      <point x="442" y="406" type="curve" smooth="yes"/>
      <point x="393" y="406"/>
      <point x="270" y="464"/>
      <point x="209" y="464" type="curve" smooth="yes"/>
      <point x="138" y="464"/>
      <point x="72" y="415"/>
      <point x="52" y="338" type="curve" smooth="yes"/>
      <point x="41" y="296"/>
      <point x="49" y="260"/>
      <point x="64" y="260" type="curve" smooth="yes"/>
      <point x="82" y="260"/>
      <point x="102" y="302"/>
      <point x="146" y="302" type="curve" smooth="yes"/>
      <point x="192" y="302"/>
      <point x="309" y="244"/>
      <point x="376" y="244" type="curve" smooth="yes"/>
      <point x="447" y="244"/>
      <point x="515" y="294"/>
    </contour>
  </outline>
</glyph>
<glyph name="exclamdown" format="1">
  <advance width="361"/>
  <unicode hex="00A1"/>
  <outline>
    <contour>
      <point x="275" y="395" type="line" smooth="yes"/>
      <point x="274" y="426"/>
      <point x="263" y="442"/>
      <point x="238" y="442" type="curve" smooth="yes"/>
      <point x="214" y="442"/>
      <point x="201" y="427"/>
      <point x="183" y="400" type="curve" smooth="yes"/>
      <point x="49" y="191" type="line" smooth="yes"/>
      <point x="-28" y="71"/>
      <point x="25" y="-9"/>
      <point x="132" y="-9" type="curve" smooth="yes"/>
      <point x="222" y="-9"/>
      <point x="287" y="41"/>
      <point x="283" y="150" type="curve" smooth="yes"/>
    </contour>
    <contour>
      <point x="376" y="582" type="curve" smooth="yes"/>
      <point x="375" y="634"/>
      <point x="335" y="675"/>
      <point x="282" y="675" type="curve" smooth="yes"/>
      <point x="214" y="675"/>
      <point x="169" y="616"/>
      <point x="170" y="561" type="curve" smooth="yes"/>
      <point x="171" y="510"/>
      <point x="212" y="470"/>
      <point x="265" y="470" type="curve" smooth="yes"/>
      <point x="333" y="470"/>
      <point x="376" y="530"/>
    </contour>
  </outline>
</glyph>
<glyph name="currency" format="1">
  <advance width="715"/>
  <unicode hex="00A4"/>
  <outline>
    <contour>
      <point x="651" y="346" type="curve" smooth="yes"/>
      <point x="689" y="492"/>
      <point x="612" y="578"/>
      <point x="443" y="578" type="curve" smooth="yes"/>
      <point x="273" y="578"/>
      <point x="150" y="492"/>
      <point x="112" y="346" type="curve" smooth="yes"/>
      <point x="74" y="200"/>
      <point x="151" y="113"/>
      <point x="321" y="113" type="curve" smooth="yes"/>
      <point x="490" y="113"/>
      <point x="613" y="200"/>
    </contour>
    <contour>
      <point x="330" y="346" type="curve" smooth="yes"/>
      <point x="351" y="427"/>
      <point x="375" y="457"/>
      <point x="411" y="457" type="curve" smooth="yes"/>
      <point x="445" y="457"/>
      <point x="454" y="427"/>
      <point x="433" y="346" type="curve" smooth="yes"/>
      <point x="411" y="264"/>
      <point x="387" y="234"/>
      <point x="353" y="234" type="curve" smooth="yes"/>
      <point x="317" y="234"/>
      <point x="308" y="264"/>
    </contour>
    <contour>
      <point x="136" y="228" type="line"/>
      <point x="71" y="187" type="line" smooth="yes"/>
      <point x="40" y="167"/>
      <point x="29" y="143"/>
      <point x="40" y="119" type="curve" smooth="yes"/>
      <point x="52" y="95"/>
      <point x="76" y="94"/>
      <point x="106" y="113" type="curve" smooth="yes"/>
      <point x="174" y="155" type="line"/>
    </contour>
    <contour>
      <point x="229" y="578" type="line" smooth="yes"/>
      <point x="208" y="597"/>
      <point x="183" y="596"/>
      <point x="159" y="572" type="curve" smooth="yes"/>
      <point x="134" y="548"/>
      <point x="133" y="524"/>
      <point x="154" y="504" type="curve" smooth="yes"/>
      <point x="199" y="463" type="line"/>
      <point x="273" y="536" type="line"/>
    </contour>
    <contour>
      <point x="524" y="123" type="line" smooth="yes"/>
      <point x="555" y="94"/>
      <point x="579" y="95"/>
      <point x="603" y="119" type="curve" smooth="yes"/>
      <point x="628" y="143"/>
      <point x="629" y="167"/>
      <point x="598" y="196" type="curve" smooth="yes"/>
      <point x="563" y="228" type="line"/>
      <point x="489" y="155" type="line"/>
    </contour>
    <contour>
      <point x="626" y="463" type="line"/>
      <point x="691" y="504" type="line" smooth="yes"/>
      <point x="722" y="524"/>
      <point x="733" y="548"/>
      <point x="722" y="572" type="curve" smooth="yes"/>
      <point x="710" y="596"/>
      <point x="687" y="597"/>
      <point x="656" y="578" type="curve" smooth="yes"/>
      <point x="588" y="536" type="line"/>
    </contour>
  </outline>
</glyph>
<glyph name="section" format="1">
  <advance width="722"/>
  <unicode hex="00A7"/>
  <outline>
    <contour>
      <point x="672" y="579" type="curve" smooth="yes"/>
      <point x="692" y="652"/>
      <point x="613" y="724"/>
      <point x="476" y="724" type="curve" smooth="yes"/>
      <point x="300" y="724"/>
      <point x="127" y="623"/>
      <point x="91" y="496" type="curve" smooth="yes"/>
      <point x="65" y="403"/>
      <point x="94" y="334"/>
      <point x="139" y="260" type="curve" smooth="yes"/>
      <point x="271" y="44" type="line" smooth="yes"/>
      <point x="283" y="23"/>
      <point x="286" y="5"/>
      <point x="281" y="-11" type="curve" smooth="yes"/>
      <point x="276" y="-28"/>
      <point x="263" y="-38"/>
      <point x="238" y="-38" type="curve" smooth="yes"/>
      <point x="204" y="-38"/>
      <point x="182" y="-20"/>
      <point x="195" y="18" type="curve" smooth="yes"/>
      <point x="210" y="54"/>
      <point x="197" y="74"/>
      <point x="161" y="74" type="curve" smooth="yes"/>
      <point x="123" y="74"/>
      <point x="84" y="54"/>
      <point x="73" y="14" type="curve" smooth="yes"/>
      <point x="53" y="-59"/>
      <point x="132" y="-131"/>
      <point x="269" y="-131" type="curve" smooth="yes"/>
      <point x="445" y="-131"/>
      <point x="618" y="-30"/>
      <point x="654" y="97" type="curve" smooth="yes"/>
      <point x="680" y="190"/>
      <point x="651" y="259"/>
      <point x="606" y="333" type="curve" smooth="yes"/>
      <point x="474" y="549" type="line" smooth="yes"/>
      <point x="462" y="570"/>
      <point x="459" y="588"/>
      <point x="464" y="604" type="curve" smooth="yes"/>
      <point x="469" y="621"/>
      <point x="482" y="631"/>
      <point x="507" y="631" type="curve" smooth="yes"/>
      <point x="541" y="631"/>
      <point x="563" y="613"/>
      <point x="550" y="575" type="curve" smooth="yes"/>
      <point x="535" y="539"/>
      <point x="548" y="519"/>
      <point x="584" y="519" type="curve" smooth="yes"/>
      <point x="622" y="519"/>
      <point x="661" y="539"/>
    </contour>
    <contour>
      <point x="418" y="-13" type="curve"/>
      <point x="449" y="41"/>
      <point x="444" y="101"/>
      <point x="398" y="179" type="curve" smooth="yes"/>
      <point x="289" y="362" type="line" smooth="yes"/>
      <point x="252" y="423"/>
      <point x="240" y="474"/>
      <point x="253" y="519" type="curve" smooth="yes"/>
      <point x="263" y="555"/>
      <point x="287" y="582"/>
      <point x="327" y="606" type="curve"/>
      <point x="296" y="552"/>
      <point x="301" y="492"/>
      <point x="347" y="414" type="curve" smooth="yes"/>
      <point x="456" y="231" type="line" smooth="yes"/>
      <point x="493" y="170"/>
      <point x="505" y="119"/>
      <point x="492" y="74" type="curve" smooth="yes"/>
      <point x="482" y="38"/>
      <point x="458" y="11"/>
    </contour>
  </outline>
</glyph>
<glyph name="copyright" format="1">
  <advance width="785"/>
  <unicode hex="00A9"/>
  <outline>
    <contour>
      <point x="552" y="229" type="curve" smooth="yes"/>
      <point x="552" y="244"/>
      <point x="530" y="262"/>
      <point x="517" y="262" type="curve" smooth="yes"/>
      <point x="484" y="262"/>
      <point x="467" y="188"/>
      <point x="395" y="188" type="curve" smooth="yes"/>
      <point x="356" y="188"/>
      <point x="336" y="231"/>
      <point x="368" y="335" type="curve" smooth="yes"/>
      <point x="393" y="421"/>
      <point x="426" y="460"/>
      <point x="458" y="460" type="curve" smooth="yes"/>
      <point x="483" y="460"/>
      <point x="491" y="449"/>
      <point x="510" y="412" type="curve" smooth="yes"/>
      <point x="526" y="378"/>
      <point x="536" y="362"/>
      <point x="558" y="362" type="curve" smooth="yes"/>
      <point x="579" y="362"/>
      <point x="588" y="371"/>
      <point x="595" y="393" type="curve" smooth="yes"/>
      <point x="629" y="488" type="line" smooth="yes"/>
      <point x="638" y="513"/>
      <point x="623" y="528"/>
      <point x="598" y="528" type="curve" smooth="yes"/>
      <point x="579" y="528"/>
      <point x="566" y="522"/>
      <point x="544" y="505" type="curve" smooth="yes"/>
      <point x="528" y="492" type="line"/>
      <point x="499" y="517"/>
      <point x="465" y="533"/>
      <point x="416" y="533" type="curve" smooth="yes"/>
      <point x="341" y="533"/>
      <point x="249" y="492"/>
      <point x="209" y="359" type="curve" smooth="yes"/>
      <point x="161" y="199"/>
      <point x="255" y="114"/>
      <point x="378" y="114" type="curve" smooth="yes"/>
      <point x="489" y="114"/>
      <point x="552" y="208"/>
    </contour>
    <contour>
      <point x="764" y="331" type="curve" smooth="yes"/>
      <point x="799" y="523"/>
      <point x="679" y="682"/>
      <point x="473" y="682" type="curve" smooth="yes"/>
      <point x="272" y="682"/>
      <point x="96" y="530"/>
      <point x="63" y="340" type="curve" smooth="yes"/>
      <point x="28" y="147"/>
      <point x="148" y="-12"/>
      <point x="355" y="-12" type="curve" smooth="yes"/>
      <point x="555" y="-12"/>
      <point x="731" y="140"/>
    </contour>
    <contour>
      <point x="128" y="331" type="curve" smooth="yes"/>
      <point x="156" y="490"/>
      <point x="303" y="619"/>
      <point x="472" y="619" type="curve" smooth="yes"/>
      <point x="636" y="619"/>
      <point x="726" y="495"/>
      <point x="699" y="340" type="curve" smooth="yes"/>
      <point x="671" y="180"/>
      <point x="524" y="51"/>
      <point x="356" y="51" type="curve" smooth="yes"/>
      <point x="191" y="51"/>
      <point x="101" y="175"/>
    </contour>
  </outline>
</glyph>
<glyph name="guillemotleft" format="1">
  <advance width="549"/>
  <unicode hex="00AB"/>
  <outline>
    <contour>
      <point x="289" y="260" type="curve" smooth="yes"/>
      <point x="391" y="159" type="line" smooth="yes"/>
      <point x="404" y="146"/>
      <point x="416" y="140"/>
      <point x="428" y="140" type="curve" smooth="yes"/>
      <point x="449" y="140"/>
      <point x="470" y="157"/>
      <point x="477" y="177" type="curve" smooth="yes"/>
      <point x="485" y="201"/>
      <point x="473" y="221"/>
      <point x="454" y="239" type="curve" smooth="yes"/>
      <point x="356" y="330" type="line"/>
      <point x="361" y="293" type="line"/>
      <point x="507" y="395" type="line" smooth="yes"/>
      <point x="529" y="411"/>
      <point x="542" y="423"/>
      <point x="547" y="441" type="curve" smooth="yes"/>
      <point x="555" y="467"/>
      <point x="532" y="498"/>
      <point x="506" y="498" type="curve" smooth="yes"/>
      <point x="496" y="498"/>
      <point x="483" y="493"/>
      <point x="470" y="484" type="curve" smooth="yes"/>
      <point x="299" y="366" type="line" smooth="yes"/>
      <point x="274" y="348"/>
      <point x="263" y="336"/>
      <point x="260" y="318" type="curve" smooth="yes"/>
      <point x="257" y="298"/>
      <point x="266" y="282"/>
    </contour>
    <contour>
      <point x="81" y="278" type="curve" smooth="yes"/>
      <point x="177" y="162" type="line" smooth="yes"/>
      <point x="193" y="143"/>
      <point x="207" y="138"/>
      <point x="221" y="138" type="curve" smooth="yes"/>
      <point x="242" y="138"/>
      <point x="262" y="153"/>
      <point x="269" y="173" type="curve" smooth="yes"/>
      <point x="277" y="197"/>
      <point x="261" y="217"/>
      <point x="244" y="237" type="curve" smooth="yes"/>
      <point x="148" y="348" type="line"/>
      <point x="150" y="311" type="line"/>
      <point x="261" y="395" type="line" smooth="yes"/>
      <point x="285" y="413"/>
      <point x="296" y="423"/>
      <point x="301" y="441" type="curve" smooth="yes"/>
      <point x="309" y="467"/>
      <point x="288" y="498"/>
      <point x="260" y="498" type="curve" smooth="yes"/>
      <point x="246" y="498"/>
      <point x="237" y="494"/>
      <point x="224" y="484" type="curve" smooth="yes"/>
      <point x="91" y="384" type="line" smooth="yes"/>
      <point x="67" y="366"/>
      <point x="55" y="354"/>
      <point x="52" y="336" type="curve" smooth="yes"/>
      <point x="49" y="316"/>
      <point x="60" y="303"/>
    </contour>
  </outline>
</glyph>
<glyph name="logicalnot" format="1">
  <advance width="689"/>
  <unicode hex="00AC"/>
  <outline>
    <contour>
      <point x="145" y="481" type="line" smooth="yes"/>
      <point x="102" y="481"/>
      <point x="72" y="459"/>
      <point x="62" y="420" type="curve" smooth="yes"/>
      <point x="51" y="381"/>
      <point x="70" y="359"/>
      <point x="114" y="359" type="curve" smooth="yes"/>
      <point x="532" y="359" type="line"/>
      <point x="504" y="257" type="line" smooth="yes"/>
      <point x="491" y="208"/>
      <point x="514" y="178"/>
      <point x="557" y="178" type="curve" smooth="yes"/>
      <point x="590" y="178"/>
      <point x="618" y="198"/>
      <point x="630" y="241" type="curve" smooth="yes"/>
      <point x="681" y="420" type="line" smooth="yes"/>
      <point x="692" y="459"/>
      <point x="672" y="481"/>
      <point x="628" y="481" type="curve" smooth="yes"/>
    </contour>
  </outline>
</glyph>
<glyph name="plusminus" format="1">
  <advance width="639"/>
  <unicode hex="00B1"/>
  <outline>
    <contour>
      <point x="126" y="316" type="curve" smooth="yes"/>
      <point x="542" y="316" type="line" smooth="yes"/>
      <point x="582" y="316"/>
      <point x="606" y="335"/>
      <point x="617" y="370" type="curve" smooth="yes"/>
      <point x="625" y="405"/>
      <point x="609" y="424"/>
      <point x="570" y="424" type="curve" smooth="yes"/>
      <point x="154" y="424" type="line" smooth="yes"/>
      <point x="116" y="424"/>
      <point x="89" y="405"/>
      <point x="80" y="370" type="curve" smooth="yes"/>
      <point x="70" y="335"/>
      <point x="87" y="316"/>
    </contour>
    <contour>
      <point x="355" y="189" type="line"/>
      <point x="443" y="521" type="line" smooth="yes"/>
      <point x="455" y="565"/>
      <point x="434" y="591"/>
      <point x="396" y="591" type="curve" smooth="yes"/>
      <point x="367" y="591"/>
      <point x="342" y="574"/>
      <point x="332" y="535" type="curve" smooth="yes"/>
      <point x="239" y="189" type="line"/>
      <point x="96" y="189" type="line" smooth="yes"/>
      <point x="58" y="189"/>
      <point x="31" y="171"/>
      <point x="23" y="139" type="curve" smooth="yes"/>
      <point x="13" y="107"/>
      <point x="31" y="89"/>
      <point x="70" y="89" type="curve" smooth="yes"/>
      <point x="486" y="89" type="line" smooth="yes"/>
      <point x="526" y="89"/>
      <point x="549" y="107"/>
      <point x="560" y="139" type="curve" smooth="yes"/>
      <point x="567" y="171"/>
      <point x="551" y="189"/>
      <point x="512" y="189" type="curve" smooth="yes"/>
    </contour>
  </outline>
</glyph>
<glyph name="paragraph" format="1">
  <advance width="610"/>
  <unicode hex="00B6"/>
  <outline>
    <contour>
      <point x="359" y="666" type="line" smooth="yes"/>
      <point x="230" y="666"/>
      <point x="121" y="601"/>
      <point x="78" y="450" type="curve" smooth="yes"/>
      <point x="35" y="299"/>
      <point x="94" y="195"/>
      <point x="222" y="195" type="curve" smooth="yes"/>
      <point x="267" y="195" type="line"/>
      <point x="202" y="-32" type="line" smooth="yes"/>
      <point x="185" y="-91"/>
      <point x="148" y="-81"/>
      <point x="134" y="-111" type="curve" smooth="yes"/>
      <point x="125" y="-135"/>
      <point x="140" y="-150"/>
      <point x="175" y="-150" type="curve" smooth="yes"/>
      <point x="252" y="-150" type="line" smooth="yes"/>
      <point x="267" y="-150"/>
      <point x="277" y="-142"/>
      <point x="281" y="-128" type="curve" smooth="yes"/>
      <point x="473" y="538" type="line" smooth="yes"/>
      <point x="479" y="557"/>
      <point x="487" y="563"/>
      <point x="505" y="563" type="curve" smooth="yes"/>
      <point x="514" y="563" type="line" smooth="yes"/>
      <point x="532" y="563"/>
      <point x="541" y="553"/>
      <point x="536" y="537" type="curve" smooth="yes"/>
      <point x="346" y="-121" type="line" smooth="yes"/>
      <point x="341" y="-139"/>
      <point x="350" y="-150"/>
      <point x="368" y="-150" type="curve" smooth="yes"/>
      <point x="435" y="-150" type="line" smooth="yes"/>
      <point x="471" y="-150"/>
      <point x="489" y="-144"/>
      <point x="496" y="-125" type="curve" smooth="yes"/>
      <point x="507" y="-92"/>
      <point x="460" y="-94"/>
      <point x="478" y="-32" type="curve" smooth="yes"/>
      <point x="645" y="549" type="line" smooth="yes"/>
      <point x="662" y="609"/>
      <point x="700" y="597"/>
      <point x="713" y="628" type="curve" smooth="yes"/>
      <point x="723" y="651"/>
      <point x="707" y="666"/>
      <point x="672" y="666" type="curve" smooth="yes"/>
    </contour>
  </outline>
</glyph>
<glyph name="periodcentered" format="1">
  <advance width="297"/>
  <unicode hex="00B7"/>
  <outline>
    <contour>
      <point x="65" y="319" type="curve" smooth="yes"/>
      <point x="66" y="267"/>
      <point x="106" y="226"/>
      <point x="159" y="226" type="curve" smooth="yes"/>
      <point x="227" y="226"/>
      <point x="272" y="285"/>
      <point x="271" y="340" type="curve" smooth="yes"/>
      <point x="270" y="391"/>
      <point x="229" y="431"/>
      <point x="176" y="431" type="curve" smooth="yes"/>
      <point x="108" y="431"/>
      <point x="65" y="371"/>
    </contour>
  </outline>
</glyph>
<glyph name="ordmasculine" format="1">
  <advance width="531"/>
  <unicode hex="00BA"/>
  <outline>
    <contour>
      <point x="71" y="476" type="curve" smooth="yes"/>
      <point x="48" y="364"/>
      <point x="104" y="269"/>
      <point x="289" y="269" type="curve" smooth="yes"/>
      <point x="432" y="269"/>
      <point x="545" y="350"/>
      <point x="572" y="476" type="curve" smooth="yes"/>
      <point x="594" y="581"/>
      <point x="541" y="678"/>
      <point x="359" y="678" type="curve" smooth="yes"/>
      <point x="217" y="678"/>
      <point x="97" y="596"/>
    </contour>
    <contour>
      <point x="359" y="475" type="curve" smooth="yes"/>
      <point x="324" y="354"/>
      <point x="303" y="334"/>
      <point x="284" y="335" type="curve" smooth="yes"/>
      <point x="264" y="335"/>
      <point x="247" y="349"/>
      <point x="284" y="474" type="curve" smooth="yes"/>
      <point x="317" y="589"/>
      <point x="340" y="610"/>
      <point x="359" y="610" type="curve" smooth="yes"/>
      <point x="379" y="610"/>
      <point x="395" y="594"/>
    </contour>
  </outline>
</glyph>
<glyph name="questiondown" format="1">
  <advance width="677"/>
  <unicode hex="00BF"/>
  <outline>
    <contour>
      <point x="344" y="314" type="curve" smooth="yes"/>
      <point x="339" y="300"/>
      <point x="324" y="294"/>
      <point x="274" y="285" type="curve" smooth="yes"/>
      <point x="82" y="252"/>
      <point x="13" y="218"/>
      <point x="-10" y="121" type="curve" smooth="yes"/>
      <point x="-42" y="-8"/>
      <point x="82" y="-143"/>
      <point x="306" y="-143" type="curve" smooth="yes"/>
      <point x="454" y="-143"/>
      <point x="564" y="-97"/>
      <point x="584" y="-10" type="curve" smooth="yes"/>
      <point x="603" y="66"/>
      <point x="553" y="126"/>
      <point x="468" y="126" type="curve" smooth="yes"/>
      <point x="406" y="126"/>
      <point x="368" y="95"/>
      <point x="354" y="46" type="curve" smooth="yes"/>
      <point x="349" y="25"/>
      <point x="350" y="-9"/>
      <point x="362" y="-42" type="curve"/>
      <point x="346" y="-48"/>
      <point x="331" y="-50"/>
      <point x="313" y="-50" type="curve" smooth="yes"/>
      <point x="279" y="-50"/>
      <point x="227" y="-23"/>
      <point x="244" y="46" type="curve" smooth="yes"/>
      <point x="274" y="161"/>
      <point x="447" y="168"/>
      <point x="477" y="268" type="curve" smooth="yes"/>
      <point x="495" y="331"/>
      <point x="448" y="378"/>
      <point x="375" y="378" type="curve" smooth="yes"/>
      <point x="354" y="378"/>
      <point x="332" y="368"/>
      <point x="328" y="355" type="curve" smooth="yes"/>
      <point x="327" y="350"/>
      <point x="329" y="345"/>
      <point x="337" y="336" type="curve" smooth="yes"/>
      <point x="342" y="329"/>
      <point x="346" y="322"/>
    </contour>
    <contour>
      <point x="529" y="498" type="curve" smooth="yes"/>
      <point x="529" y="543"/>
      <point x="489" y="578"/>
      <point x="435" y="578" type="curve" smooth="yes"/>
      <point x="368" y="578"/>
      <point x="322" y="527"/>
      <point x="323" y="479" type="curve" smooth="yes"/>
      <point x="323" y="435"/>
      <point x="364" y="401"/>
      <point x="417" y="401" type="curve" smooth="yes"/>
      <point x="485" y="401"/>
      <point x="530" y="453"/>
    </contour>
  </outline>
</glyph>
<glyph name="multiply" format="1">
  <advance width="663"/>
  <unicode hex="00D7"/>
  <outline>
    <contour>
      <point x="102" y="239" type="line" smooth="yes"/>
      <point x="77" y="222"/>
      <point x="65" y="208"/>
      <point x="60" y="191" type="curve" smooth="yes"/>
      <point x="50" y="157"/>
      <point x="72" y="124"/>
      <point x="108" y="124" type="curve" smooth="yes"/>
      <point x="126" y="124"/>
      <point x="143" y="131"/>
      <point x="162" y="144" type="curve" smooth="yes"/>
      <point x="619" y="440" type="line" smooth="yes"/>
      <point x="644" y="456"/>
      <point x="656" y="467"/>
      <point x="662" y="487" type="curve" smooth="yes"/>
      <point x="672" y="522"/>
      <point x="648" y="555"/>
      <point x="613" y="555" type="curve" smooth="yes"/>
      <point x="597" y="555"/>
      <point x="579" y="548"/>
      <point x="559" y="535" type="curve" smooth="yes"/>
    </contour>
    <contour>
      <point x="261" y="522" type="line" smooth="yes"/>
      <point x="240" y="543"/>
      <point x="224" y="554"/>
      <point x="204" y="554" type="curve" smooth="yes"/>
      <point x="179" y="554"/>
      <point x="159" y="539"/>
      <point x="153" y="516" type="curve" smooth="yes"/>
      <point x="145" y="487"/>
      <point x="157" y="468"/>
      <point x="183" y="441" type="curve" smooth="yes"/>
      <point x="457" y="159" type="line" smooth="yes"/>
      <point x="481" y="135"/>
      <point x="501" y="124"/>
      <point x="519" y="124" type="curve" smooth="yes"/>
      <point x="540" y="124"/>
      <point x="562" y="137"/>
      <point x="569" y="160" type="curve" smooth="yes"/>
      <point x="576" y="185"/>
      <point x="565" y="209"/>
      <point x="539" y="236" type="curve" smooth="yes"/>
    </contour>
  </outline>
</glyph>
<glyph name="germandbls" format="1">
  <advance width="720"/>
  <unicode hex="00DF"/>
  <outline>
    <contour>
      <point x="715" y="491" type="curve" smooth="yes"/>
      <point x="695" y="428"/>
      <point x="595" y="419"/>
      <point x="589" y="398" type="curve" smooth="yes"/>
      <point x="581" y="371"/>
      <point x="732" y="307"/>
      <point x="692" y="152" type="curve" smooth="yes"/>
      <point x="668" y="59"/>
      <point x="581" y="-4"/>
      <point x="474" y="-4" type="curve" smooth="yes"/>
      <point x="357" y="-4"/>
      <point x="302" y="64"/>
      <point x="320" y="125" type="curve" smooth="yes"/>
      <point x="324" y="137"/>
      <point x="329" y="144"/>
      <point x="335" y="144" type="curve" smooth="yes"/>
      <point x="341" y="144"/>
      <point x="352" y="135"/>
      <point x="376" y="135" type="curve" smooth="yes"/>
      <point x="406" y="135"/>
      <point x="436" y="155"/>
      <point x="448" y="194" type="curve" smooth="yes"/>
      <point x="479" y="294"/>
      <point x="388" y="336"/>
      <point x="400" y="378" type="curve" smooth="yes"/>
      <point x="410" y="414"/>
      <point x="459" y="441"/>
      <point x="482" y="515" type="curve" smooth="yes"/>
      <point x="497" y="564"/>
      <point x="480" y="587"/>
      <point x="457" y="587" type="curve" smooth="yes"/>
      <point x="431" y="587"/>
      <point x="410" y="570"/>
      <point x="393" y="514" type="curve" smooth="yes"/>
      <point x="267" y="104" type="line" smooth="yes"/>
      <point x="250" y="48"/>
      <point x="301" y="51"/>
      <point x="294" y="25" type="curve" smooth="yes"/>
      <point x="288" y="8"/>
      <point x="271" y="0"/>
      <point x="228" y="0" type="curve" smooth="yes"/>
      <point x="0" y="0" type="line" smooth="yes"/>
      <point x="-36" y="0"/>
      <point x="-51" y="13"/>
      <point x="-46" y="31" type="curve"/>
      <point x="-37" y="59"/>
      <point x="-1" y="46"/>
      <point x="17" y="106" type="curve" smooth="yes"/>
      <point x="128" y="471" type="line" smooth="yes"/>
      <point x="173" y="620"/>
      <point x="275" y="666"/>
      <point x="449" y="666" type="curve" smooth="yes"/>
      <point x="651" y="666"/>
      <point x="743" y="578"/>
    </contour>
  </outline>
</glyph>
<glyph name="eth" format="1">
  <advance width="682"/>
  <unicode hex="00F0"/>
  <outline>
    <contour>
      <point x="292" y="246" type="curve" smooth="yes"/>
      <point x="334" y="384"/>
      <point x="362" y="410"/>
      <point x="386" y="410" type="curve" smooth="yes"/>
      <point x="411" y="410"/>
      <point x="431" y="391"/>
      <point x="386" y="247" type="curve" smooth="yes"/>
      <point x="341" y="101"/>
      <point x="315" y="76"/>
      <point x="291" y="78" type="curve" smooth="yes"/>
      <point x="266" y="78"/>
      <point x="245" y="94"/>
    </contour>
    <contour>
      <point x="355" y="722" type="curve" smooth="yes"/>
      <point x="348" y="690"/>
      <point x="477" y="620"/>
      <point x="475" y="471" type="curve"/>
      <point x="440" y="488"/>
      <point x="399" y="497"/>
      <point x="352" y="497" type="curve" smooth="yes"/>
      <point x="186" y="497"/>
      <point x="64" y="400"/>
      <point x="31" y="263" type="curve" smooth="yes"/>
      <point x="-3" y="116"/>
      <point x="64" y="-9"/>
      <point x="295" y="-9" type="curve" smooth="yes"/>
      <point x="473" y="-9"/>
      <point x="614" y="99"/>
      <point x="655" y="257" type="curve" smooth="yes"/>
      <point x="711" y="475"/>
      <point x="554" y="739"/>
      <point x="388" y="739" type="curve" smooth="yes"/>
      <point x="368" y="739"/>
      <point x="357" y="733"/>
    </contour>
    <contour>
      <point x="609" y="659" type="curve" smooth="yes"/>
      <point x="364" y="627" type="line" smooth="yes"/>
      <point x="321" y="621"/>
      <point x="304" y="609"/>
      <point x="306" y="580" type="curve" smooth="yes"/>
      <point x="308" y="555"/>
      <point x="329" y="539"/>
      <point x="381" y="545" type="curve" smooth="yes"/>
      <point x="626" y="576" type="line" smooth="yes"/>
      <point x="667" y="581"/>
      <point x="688" y="597"/>
      <point x="683" y="625" type="curve" smooth="yes"/>
      <point x="678" y="652"/>
      <point x="654" y="665"/>
    </contour>
  </outline>
</glyph>
<glyph name="oslash" format="1">
  <advance width="682"/>
  <unicode hex="00F8"/>
  <outline>
    <contour>
      <point x="35" y="0" type="curve" smooth="yes"/>
      <point x="50" y="0"/>
      <point x="60" y="6"/>
      <point x="71" y="13" type="curve" smooth="yes"/>
      <point x="668" y="444" type="line" smooth="yes"/>
      <point x="683" y="454"/>
      <point x="692" y="462"/>
      <point x="694" y="475" type="curve" smooth="yes"/>
      <point x="699" y="493"/>
      <point x="686" y="520"/>
      <point x="658" y="520" type="curve" smooth="yes"/>
      <point x="647" y="520"/>
      <point x="637" y="515"/>
      <point x="625" y="507" type="curve" smooth="yes"/>
      <point x="30" y="79" type="line" smooth="yes"/>
      <point x="12" y="66"/>
      <point x="5" y="56"/>
      <point x="2" y="43" type="curve" smooth="yes"/>
      <point x="-2" y="25"/>
      <point x="14" y="0"/>
    </contour>
    <contour>
      <point x="31" y="263" type="curve" smooth="yes"/>
      <point x="-3" y="116"/>
      <point x="64" y="-9"/>
      <point x="295" y="-9" type="curve" smooth="yes"/>
      <point x="473" y="-9"/>
      <point x="618" y="97"/>
      <point x="657" y="263" type="curve" smooth="yes"/>
      <point x="690" y="402"/>
      <point x="628" y="529"/>
      <point x="400" y="529" type="curve" smooth="yes"/>
      <point x="222" y="529"/>
      <point x="69" y="421"/>
    </contour>
    <contour>
      <point x="396" y="262" type="curve" smooth="yes"/>
      <point x="347" y="103"/>
      <point x="318" y="76"/>
      <point x="292" y="78" type="curve" smooth="yes"/>
      <point x="264" y="78"/>
      <point x="242" y="96"/>
      <point x="292" y="261" type="curve" smooth="yes"/>
      <point x="339" y="412"/>
      <point x="370" y="440"/>
      <point x="396" y="440" type="curve" smooth="yes"/>
      <point x="424" y="440"/>
      <point x="445" y="419"/>
    </contour>
  </outline>
</glyph>
<glyph name="thorn" format="1">
  <advance width="700"/>
  <unicode hex="00FE"/>
  <outline>
    <contour>
      <point x="300" y="82" type="curve" smooth="yes"/>
      <point x="280" y="82"/>
      <point x="264" y="95"/>
      <point x="252" y="120" type="curve"/>
      <point x="219" y="41" type="line"/>
      <point x="256" y="6"/>
      <point x="315" y="-9"/>
      <point x="368" y="-9" type="curve" smooth="yes"/>
      <point x="506" y="-9"/>
      <point x="628" y="73"/>
      <point x="670" y="244" type="curve" smooth="yes"/>
      <point x="712" y="414"/>
      <point x="642" y="533"/>
      <point x="520" y="533" type="curve" smooth="yes"/>
      <point x="436" y="533"/>
      <point x="376" y="487"/>
      <point x="327" y="407" type="curve"/>
      <point x="352" y="384" type="line"/>
      <point x="366" y="405"/>
      <point x="385" y="414"/>
      <point x="400" y="414" type="curve" smooth="yes"/>
      <point x="425" y="414"/>
      <point x="443" y="384"/>
      <point x="405" y="247" type="curve" smooth="yes"/>
      <point x="363" y="98"/>
      <point x="329" y="82"/>
    </contour>
    <contour>
      <point x="426" y="614" type="line" smooth="yes"/>
      <point x="447" y="681"/>
      <point x="424" y="739"/>
      <point x="320" y="739" type="curve" smooth="yes"/>
      <point x="240" y="739"/>
      <point x="147" y="713"/>
      <point x="138" y="681" type="curve" smooth="yes"/>
      <point x="130" y="649"/>
      <point x="186" y="653"/>
      <point x="171" y="605" type="curve" smooth="yes"/>
      <point x="-41" y="-84" type="line" smooth="yes"/>
      <point x="-58" y="-144"/>
      <point x="-94" y="-131"/>
      <point x="-102" y="-160" type="curve"/>
      <point x="-108" y="-177"/>
      <point x="-93" y="-190"/>
      <point x="-58" y="-190" type="curve" smooth="yes"/>
      <point x="171" y="-190" type="line" smooth="yes"/>
      <point x="213" y="-190"/>
      <point x="231" y="-183"/>
      <point x="236" y="-166" type="curve" smooth="yes"/>
      <point x="244" y="-139"/>
      <point x="193" y="-141"/>
      <point x="211" y="-87" type="curve" smooth="yes"/>
    </contour>
  </outline>
</glyph>
<glyph name="dcaron" format="1">
  <advance width="805"/>
  <unicode hex="010F"/>
  <outline>
    <contour>
      <point x="702" y="614" type="line" smooth="yes"/>
      <point x="723" y="683"/>
      <point x="700" y="739"/>
      <point x="596" y="739" type="curve" smooth="yes"/>
      <point x="516" y="739"/>
      <point x="422" y="713"/>
      <point x="414" y="682" type="curve" smooth="yes"/>
      <point x="406" y="649"/>
      <point x="462" y="653"/>
      <point x="447" y="605" type="curve" smooth="yes"/>
      <point x="413" y="493" type="line"/>
      <point x="382" y="518"/>
      <point x="344" y="533"/>
      <point x="284" y="533" type="curve" smooth="yes"/>
      <point x="119" y="533"/>
      <point x="9" y="357"/>
      <point x="12" y="175" type="curve" smooth="yes"/>
      <point x="14" y="67"/>
      <point x="95" y="-3"/>
      <point x="184" y="-3" type="curve" smooth="yes"/>
      <point x="235" y="-3"/>
      <point x="283" y="19"/>
      <point x="320" y="66" type="curve"/>
      <point x="338" y="25"/>
      <point x="391" y="-3"/>
      <point x="458" y="-3" type="curve" smooth="yes"/>
      <point x="546" y="-3"/>
      <point x="615" y="62"/>
      <point x="614" y="116" type="curve" smooth="yes"/>
      <point x="614" y="127"/>
      <point x="610" y="139"/>
      <point x="603" y="139" type="curve" smooth="yes"/>
      <point x="595" y="139"/>
      <point x="590" y="118"/>
      <point x="571" y="118" type="curve" smooth="yes"/>
      <point x="560" y="118"/>
      <point x="554" y="128"/>
      <point x="559" y="144" type="curve" smooth="yes"/>
    </contour>
    <contour>
      <point x="314" y="172" type="line" smooth="yes"/>
      <point x="304" y="140"/>
      <point x="293" y="127"/>
      <point x="275" y="127" type="curve" smooth="yes"/>
      <point x="250" y="127"/>
      <point x="239" y="146"/>
      <point x="239" y="182" type="curve" smooth="yes"/>
      <point x="237" y="279"/>
      <point x="295" y="439"/>
      <point x="357" y="439" type="curve" smooth="yes"/>
      <point x="371" y="439"/>
      <point x="382" y="434"/>
      <point x="392" y="425" type="curve"/>
    </contour>
    <contour>
      <point x="754" y="684" type="curve" smooth="yes"/>
      <point x="743" y="638"/>
      <point x="791" y="618"/>
      <point x="781" y="580" type="curve" smooth="yes"/>
      <point x="770" y="540"/>
      <point x="722" y="528"/>
      <point x="716" y="500" type="curve" smooth="yes"/>
      <point x="712" y="481"/>
      <point x="725" y="470"/>
      <point x="747" y="470" type="curve" smooth="yes"/>
      <point x="813" y="470"/>
      <point x="891" y="527"/>
      <point x="910" y="606" type="curve" smooth="yes"/>
      <point x="928" y="681"/>
      <point x="895" y="739"/>
      <point x="828" y="739" type="curve" smooth="yes"/>
      <point x="791" y="739"/>
      <point x="762" y="717"/>
    </contour>
  </outline>
</glyph>
<glyph name="dcroat" format="1">
  <advance width="706"/>
  <unicode hex="0111"/>
  <outline>
    <contour>
      <point x="421" y="560" type="curve" smooth="yes"/>
      <point x="751" y="569" type="line" smooth="yes"/>
      <point x="785" y="570"/>
      <point x="805" y="584"/>
      <point x="814" y="611" type="curve" smooth="yes"/>
      <point x="821" y="636"/>
      <point x="808" y="653"/>
      <point x="771" y="652" type="curve" smooth="yes"/>
      <point x="445" y="643" type="line" smooth="yes"/>
      <point x="409" y="642"/>
      <point x="390" y="628"/>
      <point x="382" y="601" type="curve" smooth="yes"/>
      <point x="374" y="576"/>
      <point x="388" y="559"/>
    </contour>
    <contour>
      <point x="745" y="638" type="line" smooth="yes"/>
      <point x="763" y="698"/>
      <point x="736" y="739"/>
      <point x="640" y="739" type="curve" smooth="yes"/>
      <point x="548" y="739"/>
      <point x="513" y="706"/>
      <point x="491" y="632" type="curve" smooth="yes"/>
      <point x="449" y="493" type="line"/>
      <point x="418" y="518"/>
      <point x="380" y="533"/>
      <point x="320" y="533" type="curve" smooth="yes"/>
      <point x="155" y="533"/>
      <point x="45" y="357"/>
      <point x="48" y="175" type="curve" smooth="yes"/>
      <point x="50" y="67"/>
      <point x="131" y="-3"/>
      <point x="220" y="-3" type="curve" smooth="yes"/>
      <point x="271" y="-3"/>
      <point x="319" y="19"/>
      <point x="356" y="66" type="curve"/>
      <point x="374" y="25"/>
      <point x="427" y="-3"/>
      <point x="494" y="-3" type="curve" smooth="yes"/>
      <point x="582" y="-3"/>
      <point x="651" y="62"/>
      <point x="650" y="116" type="curve" smooth="yes"/>
      <point x="650" y="127"/>
      <point x="646" y="139"/>
      <point x="639" y="139" type="curve" smooth="yes"/>
      <point x="631" y="139"/>
      <point x="626" y="118"/>
      <point x="607" y="118" type="curve" smooth="yes"/>
      <point x="596" y="118"/>
      <point x="590" y="128"/>
      <point x="595" y="144" type="curve" smooth="yes"/>
    </contour>
    <contour>
      <point x="350" y="172" type="line" smooth="yes"/>
      <point x="340" y="140"/>
      <point x="329" y="127"/>
      <point x="311" y="127" type="curve" smooth="yes"/>
      <point x="286" y="127"/>
      <point x="275" y="146"/>
      <point x="275" y="182" type="curve" smooth="yes"/>
      <point x="273" y="279"/>
      <point x="331" y="439"/>
      <point x="393" y="439" type="curve" smooth="yes"/>
      <point x="407" y="439"/>
      <point x="418" y="434"/>
      <point x="428" y="425" type="curve"/>
    </contour>
  </outline>
</glyph>
<glyph name="dotlessi" format="1">
  <advance width="366"/>
  <unicode hex="0131"/>
  <outline>
    <contour>
      <point x="189" y="0" type="move" name="ogonek"/>
    </contour>
    <contour>
      <point x="247" y="500" type="move" name="top"/>
    </contour>
    <contour>
      <point x="78" y="471" type="curve" smooth="yes"/>
      <point x="69" y="438"/>
      <point x="125" y="443"/>
      <point x="110" y="395" type="curve" smooth="yes"/>
      <point x="23" y="106" type="line" smooth="yes"/>
      <point x="4" y="46"/>
      <point x="-31" y="59"/>
      <point x="-40" y="31" type="curve" smooth="yes"/>
      <point x="-45" y="13"/>
      <point x="-30" y="0"/>
      <point x="6" y="0" type="curve" smooth="yes"/>
      <point x="234" y="0" type="line" smooth="yes"/>
      <point x="277" y="0"/>
      <point x="294" y="8"/>
      <point x="300" y="25" type="curve" smooth="yes"/>
      <point x="307" y="51"/>
      <point x="256" y="48"/>
      <point x="273" y="104" type="curve" smooth="yes"/>
      <point x="365" y="403" type="line" smooth="yes"/>
      <point x="386" y="472"/>
      <point x="364" y="529"/>
      <point x="260" y="529" type="curve" smooth="yes"/>
      <point x="180" y="529"/>
      <point x="86" y="503"/>
    </contour>
  </outline>
</glyph>
<glyph name="lslash" format="1">
  <advance width="408"/>
  <unicode hex="0142"/>
  <outline>
    <contour>
      <point x="48" y="302" type="curve" smooth="yes"/>
      <point x="398" y="339" type="line" smooth="yes"/>
      <point x="432" y="343"/>
      <point x="452" y="356"/>
      <point x="461" y="385" type="curve" smooth="yes"/>
      <point x="468" y="414"/>
      <point x="455" y="435"/>
      <point x="421" y="431" type="curve" smooth="yes"/>
      <point x="72" y="394" type="line" smooth="yes"/>
      <point x="39" y="391"/>
      <point x="17" y="377"/>
      <point x="9" y="348" type="curve" smooth="yes"/>
      <point x="1" y="319"/>
      <point x="15" y="299"/>
    </contour>
    <component base="l" xOffset="16"/>
  </outline>
</glyph>
<glyph name="OE" format="1">
  <advance width="1043"/>
  <unicode hex="0152"/>
  <outline>
    <contour>
      <point x="475" y="329" type="curve" smooth="yes"/>
      <point x="420" y="143"/>
      <point x="382" y="77"/>
      <point x="323" y="77" type="curve" smooth="yes"/>
      <point x="263" y="77"/>
      <point x="263" y="143"/>
      <point x="317" y="329" type="curve" smooth="yes"/>
      <point x="371" y="519"/>
      <point x="409" y="583"/>
      <point x="469" y="583" type="curve" smooth="yes"/>
      <point x="528" y="583"/>
      <point x="529" y="519"/>
    </contour>
    <contour>
      <point x="710" y="308" type="line"/>
      <point x="761" y="308" type="line" smooth="yes"/>
      <point x="773" y="308"/>
      <point x="779" y="302"/>
      <point x="783" y="293" type="curve" smooth="yes"/>
      <point x="800" y="258" type="line" smooth="yes"/>
      <point x="808" y="241"/>
      <point x="821" y="229"/>
      <point x="842" y="229" type="curve" smooth="yes"/>
      <point x="862" y="229"/>
      <point x="885" y="240"/>
      <point x="894" y="272" type="curve" smooth="yes"/>
      <point x="935" y="411" type="line" smooth="yes"/>
      <point x="943" y="438"/>
      <point x="924" y="457"/>
      <point x="896" y="457" type="curve" smooth="yes"/>
      <point x="873" y="457"/>
      <point x="860" y="447"/>
      <point x="843" y="432" type="curve" smooth="yes"/>
      <point x="809" y="402" type="line" smooth="yes"/>
      <point x="802" y="396"/>
      <point x="797" y="392"/>
      <point x="790" y="392" type="curve" smooth="yes"/>
      <point x="737" y="392" type="line"/>
    </contour>
    <contour>
      <point x="598" y="666" type="line"/>
      <point x="566" y="676"/>
      <point x="529" y="681"/>
      <point x="487" y="681" type="curve" smooth="yes"/>
      <point x="284" y="681"/>
      <point x="116" y="563"/>
      <point x="57" y="336" type="curve" smooth="yes"/>
      <point x="-4" y="108"/>
      <point x="105" y="-12"/>
      <point x="307" y="-12" type="curve" smooth="yes"/>
      <point x="344" y="-12"/>
      <point x="379" y="-8"/>
      <point x="413" y="0" type="curve"/>
      <point x="867" y="0" type="line" smooth="yes"/>
      <point x="921" y="0"/>
      <point x="945" y="18"/>
      <point x="960" y="68" type="curve" smooth="yes"/>
      <point x="989" y="169" type="line" smooth="yes"/>
      <point x="1001" y="212"/>
      <point x="973" y="228"/>
      <point x="942" y="228" type="curve" smooth="yes"/>
      <point x="912" y="228"/>
      <point x="896" y="217"/>
      <point x="876" y="196" type="curve" smooth="yes"/>
      <point x="816" y="130" type="line" smooth="yes"/>
      <point x="793" y="105"/>
      <point x="777" y="96"/>
      <point x="751" y="96" type="curve" smooth="yes"/>
      <point x="663" y="96" type="line"/>
      <point x="796" y="570" type="line"/>
      <point x="901" y="570" type="line" smooth="yes"/>
      <point x="928" y="570"/>
      <point x="934" y="563"/>
      <point x="940" y="540" type="curve" smooth="yes"/>
      <point x="956" y="483" type="line" smooth="yes"/>
      <point x="965" y="450"/>
      <point x="982" y="438"/>
      <point x="1014" y="438" type="curve" smooth="yes"/>
      <point x="1046" y="438"/>
      <point x="1063" y="449"/>
      <point x="1073" y="486" type="curve" smooth="yes"/>
      <point x="1099" y="579" type="line" smooth="yes"/>
      <point x="1115" y="634"/>
      <point x="1085" y="666"/>
      <point x="1025" y="666" type="curve" smooth="yes"/>
    </contour>
  </outline>
</glyph>
<glyph name="oe" format="1">
  <advance width="948"/>
  <unicode hex="0153"/>
  <outline>
    <contour>
      <point x="378" y="262" type="curve" smooth="yes"/>
      <point x="329" y="103"/>
      <point x="302" y="76"/>
      <point x="278" y="78" type="curve" smooth="yes"/>
      <point x="253" y="78"/>
      <point x="233" y="96"/>
      <point x="284" y="261" type="curve" smooth="yes"/>
      <point x="331" y="412"/>
      <point x="360" y="440"/>
      <point x="384" y="440" type="curve" smooth="yes"/>
      <point x="409" y="440"/>
      <point x="428" y="419"/>
    </contour>
    <contour>
      <point x="558" y="490" type="curve"/>
      <point x="519" y="515"/>
      <point x="464" y="529"/>
      <point x="387" y="529" type="curve" smooth="yes"/>
      <point x="209" y="529"/>
      <point x="56" y="421"/>
      <point x="18" y="263" type="curve" smooth="yes"/>
      <point x="-16" y="116"/>
      <point x="51" y="-9"/>
      <point x="282" y="-9" type="curve" smooth="yes"/>
      <point x="358" y="-9"/>
      <point x="424" y="10"/>
      <point x="477" y="45" type="curve"/>
      <point x="523" y="9"/>
      <point x="586" y="-9"/>
      <point x="656" y="-9" type="curve" smooth="yes"/>
      <point x="816" y="-9"/>
      <point x="891" y="94"/>
      <point x="890" y="158" type="curve"/>
      <point x="890" y="168"/>
      <point x="886" y="171"/>
      <point x="879" y="171" type="curve" smooth="yes"/>
      <point x="858" y="171"/>
      <point x="798" y="139"/>
      <point x="739" y="139" type="curve" smooth="yes"/>
      <point x="670" y="139"/>
      <point x="618" y="164"/>
      <point x="632" y="262" type="curve" smooth="yes"/>
      <point x="651" y="386"/>
      <point x="695" y="446"/>
      <point x="717" y="446" type="curve" smooth="yes"/>
      <point x="726" y="446"/>
      <point x="732" y="437"/>
      <point x="733" y="418" type="curve" smooth="yes"/>
      <point x="734" y="357"/>
      <point x="694" y="282"/>
      <point x="624" y="293" type="curve"/>
      <point x="609" y="235" type="line"/>
      <point x="726" y="215"/>
      <point x="934" y="223"/>
      <point x="963" y="350" type="curve" smooth="yes"/>
      <point x="982" y="435"/>
      <point x="938" y="529"/>
      <point x="726" y="529" type="curve" smooth="yes"/>
      <point x="664" y="529"/>
      <point x="606" y="516"/>
    </contour>
  </outline>
</glyph>
<glyph name="caron" format="1">
  <advance width="405"/>
  <unicode hex="02C7"/>
  <outline>
    <contour>
      <point x="206" y="500" type="move" name="_top"/>
    </contour>
    <contour>
      <point x="221" y="564" type="line" smooth="yes"/>
      <point x="230" y="556"/>
      <point x="239" y="552"/>
      <point x="247" y="552" type="curve" smooth="yes"/>
      <point x="254" y="552"/>
      <point x="260" y="554"/>
      <point x="267" y="557" type="curve" smooth="yes"/>
      <point x="413" y="620" type="line" smooth="yes"/>
      <point x="470" y="644"/>
      <point x="494" y="661"/>
      <point x="499" y="694" type="curve" smooth="yes"/>
      <point x="504" y="734"/>
      <point x="473" y="757"/>
      <point x="432" y="757" type="curve" smooth="yes"/>
      <point x="398" y="757"/>
      <point x="372" y="747"/>
      <point x="344" y="713" type="curve" smooth="yes"/>
      <point x="272" y="627" type="line"/>
      <point x="301" y="606" type="line"/>
      <point x="282" y="692" type="line" smooth="yes"/>
      <point x="273" y="735"/>
      <point x="246" y="757"/>
      <point x="206" y="757" type="curve" smooth="yes"/>
      <point x="124" y="757"/>
      <point x="99" y="673"/>
      <point x="158" y="621" type="curve" smooth="yes"/>
    </contour>
  </outline>
</glyph>
<glyph name="breve" format="1">
  <advance width="353"/>
  <unicode hex="02D8"/>
  <outline>
    <contour>
      <point x="200" y="500" type="move" name="_top"/>
    </contour>
    <contour>
      <point x="420" y="653" type="curve" smooth="yes"/>
      <point x="439" y="702"/>
      <point x="427" y="749"/>
      <point x="402" y="749" type="curve" smooth="yes"/>
      <point x="375" y="749"/>
      <point x="366" y="679"/>
      <point x="272" y="679" type="curve" smooth="yes"/>
      <point x="182" y="679"/>
      <point x="228" y="749"/>
      <point x="198" y="749" type="curve" smooth="yes"/>
      <point x="191" y="749"/>
      <point x="176" y="745"/>
      <point x="159" y="717" type="curve" smooth="yes"/>
      <point x="119" y="647"/>
      <point x="143" y="554"/>
      <point x="254" y="554" type="curve" smooth="yes"/>
      <point x="334" y="554"/>
      <point x="396" y="590"/>
    </contour>
  </outline>
</glyph>
<glyph name="ring" format="1">
  <advance width="288"/>
  <unicode hex="02DA"/>
  <outline>
    <contour>
      <point x="174" y="500" type="move" name="_top"/>
    </contour>
    <contour>
      <point x="370" y="674" type="curve" smooth="yes"/>
      <point x="369" y="727"/>
      <point x="320" y="767"/>
      <point x="256" y="767" type="curve" smooth="yes"/>
      <point x="180" y="767"/>
      <point x="124" y="718"/>
      <point x="124" y="652" type="curve" smooth="yes"/>
      <point x="125" y="597"/>
      <point x="173" y="555"/>
      <point x="237" y="555" type="curve" smooth="yes"/>
      <point x="314" y="555"/>
      <point x="371" y="606"/>
    </contour>
    <contour>
      <point x="224" y="656" type="curve" smooth="yes"/>
      <point x="232" y="697"/>
      <point x="243" y="713"/>
      <point x="260" y="713" type="curve" smooth="yes"/>
      <point x="275" y="713"/>
      <point x="278" y="700"/>
      <point x="271" y="667" type="curve" smooth="yes"/>
      <point x="262" y="626"/>
      <point x="251" y="609"/>
      <point x="234" y="609" type="curve" smooth="yes"/>
      <point x="220" y="609"/>
      <point x="217" y="622"/>
    </contour>
  </outline>
</glyph>
<glyph name="ogonek" format="1">
  <advance width="357"/>
  <unicode hex="02DB"/>
  <outline>
    <contour>
      <point x="143" y="0" type="move" name="_ogonek"/>
    </contour>
    <contour>
      <point x="-59" y="-68" type="curve" smooth="yes"/>
      <point x="-85" y="-153"/>
      <point x="-30" y="-230"/>
      <point x="89" y="-230" type="curve" smooth="yes"/>
      <point x="165" y="-230"/>
      <point x="223" y="-198"/>
      <point x="238" y="-147" type="curve" smooth="yes"/>
      <point x="254" y="-94"/>
      <point x="216" y="-37"/>
      <point x="147" y="-37" type="curve" smooth="yes"/>
      <point x="129" y="-37"/>
      <point x="122" y="-40"/>
      <point x="120" y="-44" type="curve" smooth="yes"/>
      <point x="118" y="-50"/>
      <point x="126" y="-60"/>
      <point x="122" y="-73" type="curve" smooth="yes"/>
      <point x="118" y="-85"/>
      <point x="105" y="-94"/>
      <point x="85" y="-94" type="curve" smooth="yes"/>
      <point x="60" y="-94"/>
      <point x="45" y="-76"/>
      <point x="53" y="-51" type="curve" smooth="yes"/>
      <point x="67" y="-6"/>
      <point x="156" y="-6"/>
      <point x="160" y="6" type="curve" smooth="yes"/>
      <point x="161" y="10"/>
      <point x="160" y="15"/>
      <point x="154" y="21" type="curve" smooth="yes"/>
      <point x="143" y="32"/>
      <point x="123" y="39"/>
      <point x="95" y="39" type="curve" smooth="yes"/>
      <point x="47" y="39"/>
      <point x="-36" y="7"/>
    </contour>
  </outline>
</glyph>
<glyph name="hungarumlaut" format="1">
  <advance width="401"/>
  <unicode hex="02DD"/>
  <outline>
    <contour>
      <point x="165" y="500" type="move" name="_top"/>
    </contour>
    <contour>
      <point x="106" y="594" type="line" smooth="yes"/>
      <point x="96" y="568"/>
      <point x="105" y="554"/>
      <point x="125" y="554" type="curve" smooth="yes"/>
      <point x="136" y="554"/>
      <point x="150" y="561"/>
      <point x="160" y="569" type="curve" smooth="yes"/>
      <point x="234" y="623" type="line" smooth="yes"/>
      <point x="278" y="654"/>
      <point x="298" y="679"/>
      <point x="298" y="708" type="curve" smooth="yes"/>
      <point x="297" y="740"/>
      <point x="270" y="761"/>
      <point x="233" y="761" type="curve" smooth="yes"/>
      <point x="190" y="761"/>
      <point x="159" y="733"/>
      <point x="136" y="675" type="curve" smooth="yes"/>
    </contour>
    <contour>
      <point x="285" y="598" type="line" smooth="yes"/>
      <point x="270" y="568"/>
      <point x="283" y="554"/>
      <point x="298" y="554" type="curve" smooth="yes"/>
      <point x="312" y="554"/>
      <point x="325" y="561"/>
      <point x="336" y="569" type="curve" smooth="yes"/>
      <point x="419" y="623" type="line" smooth="yes"/>
      <point x="474" y="659"/>
      <point x="491" y="679"/>
      <point x="494" y="708" type="curve" smooth="yes"/>
      <point x="496" y="739"/>
      <point x="470" y="761"/>
      <point x="431" y="761" type="curve" smooth="yes"/>
      <point x="387" y="761"/>
      <point x="353" y="733"/>
      <point x="324" y="675" type="curve" smooth="yes"/>
    </contour>
  </outline>
</glyph>
<glyph name="pi" format="1">
  <advance width="726"/>
  <unicode hex="03C0"/>
  <outline>
    <contour>
      <point x="765" y="479" type="curve" smooth="yes"/>
      <point x="770" y="499"/>
      <point x="755" y="512"/>
      <point x="719" y="512" type="curve" smooth="yes"/>
      <point x="158" y="512" type="line" smooth="yes"/>
      <point x="115" y="512"/>
      <point x="98" y="505"/>
      <point x="92" y="487" type="curve" smooth="yes"/>
      <point x="83" y="456"/>
      <point x="135" y="459"/>
      <point x="117" y="403" type="curve" smooth="yes"/>
      <point x="23" y="106" type="line" smooth="yes"/>
      <point x="4" y="46"/>
      <point x="-31" y="59"/>
      <point x="-40" y="31" type="curve" smooth="yes"/>
      <point x="-44" y="13"/>
      <point x="-30" y="0"/>
      <point x="6" y="0" type="curve" smooth="yes"/>
      <point x="234" y="0" type="line" smooth="yes"/>
      <point x="277" y="0"/>
      <point x="295" y="8"/>
      <point x="300" y="25" type="curve" smooth="yes"/>
      <point x="308" y="51"/>
      <point x="257" y="48"/>
      <point x="274" y="104" type="curve" smooth="yes"/>
      <point x="372" y="420" type="line"/>
      <point x="455" y="420" type="line"/>
      <point x="382" y="186" type="line" smooth="yes"/>
      <point x="372" y="155"/>
      <point x="364" y="126"/>
      <point x="364" y="103" type="curve" smooth="yes"/>
      <point x="365" y="35"/>
      <point x="415" y="-9"/>
      <point x="503" y="-9" type="curve" smooth="yes"/>
      <point x="616" y="-9"/>
      <point x="674" y="55"/>
      <point x="673" y="110" type="curve"/>
      <point x="673" y="121"/>
      <point x="669" y="132"/>
      <point x="662" y="132" type="curve" smooth="yes"/>
      <point x="655" y="132"/>
      <point x="649" y="111"/>
      <point x="630" y="111" type="curve" smooth="yes"/>
      <point x="619" y="111"/>
      <point x="614" y="122"/>
      <point x="619" y="138" type="curve" smooth="yes"/>
      <point x="702" y="406" type="line" smooth="yes"/>
      <point x="719" y="460"/>
      <point x="756" y="447"/>
    </contour>
  </outline>
</glyph>
<glyph name="danda" format="1">
  <advance width="394"/>
  <unicode hex="0964"/>
  <outline>
    <contour>
      <point x="22" y="67" type="line" smooth="yes"/>
      <point x="7" y="15"/>
      <point x="26" y="0"/>
      <point x="67" y="0" type="curve" smooth="yes"/>
      <point x="194" y="0" type="line" smooth="yes"/>
      <point x="244" y="0"/>
      <point x="260" y="14"/>
      <point x="276" y="69" type="curve" smooth="yes"/>
      <point x="411" y="552" type="line" smooth="yes"/>
      <point x="426" y="604"/>
      <point x="411" y="619"/>
      <point x="370" y="619" type="curve" smooth="yes"/>
      <point x="240" y="619" type="line" smooth="yes"/>
      <point x="193" y="619"/>
      <point x="175" y="605"/>
      <point x="159" y="550" type="curve" smooth="yes"/>
    </contour>
  </outline>
</glyph>
<glyph name="gjVisarga" format="1">
  <advance width="351"/>
  <unicode hex="0A83"/>
  <outline>
    <contour>
      <point x="64" y="174" type="curve" smooth="yes"/>
      <point x="65" y="122"/>
      <point x="105" y="81"/>
      <point x="158" y="81" type="curve" smooth="yes"/>
      <point x="226" y="81"/>
      <point x="271" y="140"/>
      <point x="270" y="195" type="curve" smooth="yes"/>
      <point x="269" y="246"/>
      <point x="228" y="286"/>
      <point x="175" y="286" type="curve" smooth="yes"/>
      <point x="107" y="286"/>
      <point x="64" y="226"/>
    </contour>
    <contour>
      <point x="133" y="436" type="curve" smooth="yes"/>
      <point x="134" y="384"/>
      <point x="174" y="343"/>
      <point x="227" y="343" type="curve" smooth="yes"/>
      <point x="295" y="343"/>
      <point x="340" y="402"/>
      <point x="339" y="457" type="curve" smooth="yes"/>
      <point x="338" y="508"/>
      <point x="297" y="548"/>
      <point x="244" y="548" type="curve" smooth="yes"/>
      <point x="176" y="548"/>
      <point x="133" y="488"/>
    </contour>
  </outline>
</glyph>
<glyph name="gjII" format="1">
  <advance width="719"/>
  <unicode hex="0A88"/>
  <outline>
    <contour>
      <point x="118" y="499" type="curve" smooth="yes"/>
      <point x="95" y="423"/>
      <point x="134" y="350"/>
      <point x="227" y="330" type="curve"/>
      <point x="199" y="386" type="line"/>
      <point x="111" y="371"/>
      <point x="48" y="326"/>
      <point x="26" y="254" type="curve" smooth="yes"/>
      <point x="-17" y="113"/>
      <point x="94" y="0"/>
      <point x="293" y="0" type="curve" smooth="yes"/>
      <point x="465" y="0"/>
      <point x="567" y="81"/>
      <point x="601" y="191" type="curve" smooth="yes"/>
      <point x="636" y="306"/>
      <point x="581" y="464"/>
      <point x="600" y="522" type="curve" smooth="yes"/>
      <point x="606" y="540"/>
      <point x="615" y="547"/>
      <point x="627" y="547" type="curve" smooth="yes"/>
      <point x="663" y="547"/>
      <point x="651" y="470"/>
      <point x="676" y="470" type="curve" smooth="yes"/>
      <point x="695" y="470"/>
      <point x="742" y="500"/>
      <point x="759" y="554" type="curve" smooth="yes"/>
      <point x="787" y="642"/>
      <point x="738" y="739"/>
      <point x="647" y="739" type="curve" smooth="yes"/>
      <point x="595" y="739"/>
      <point x="553" y="709"/>
      <point x="533" y="643" type="curve" smooth="yes"/>
      <point x="508" y="562"/>
      <point x="537" y="425"/>
      <point x="502" y="309" type="curve" smooth="yes"/>
      <point x="472" y="211"/>
      <point x="412" y="182"/>
      <point x="352" y="182" type="curve" smooth="yes"/>
      <point x="280" y="182"/>
      <point x="260" y="219"/>
      <point x="272" y="258" type="curve" smooth="yes"/>
      <point x="280" y="283"/>
      <point x="300" y="305"/>
      <point x="370" y="324" type="curve" smooth="yes"/>
      <point x="433" y="341"/>
      <point x="438" y="346"/>
      <point x="442" y="357" type="curve" smooth="yes"/>
      <point x="452" y="389"/>
      <point x="331" y="411"/>
      <point x="354" y="486" type="curve" smooth="yes"/>
      <point x="360" y="507"/>
      <point x="373" y="514"/>
      <point x="385" y="514" type="curve" smooth="yes"/>
      <point x="400" y="514"/>
      <point x="407" y="502"/>
      <point x="411" y="482" type="curve" smooth="yes"/>
      <point x="414" y="469"/>
      <point x="417" y="466"/>
      <point x="424" y="466" type="curve" smooth="yes"/>
      <point x="441" y="466"/>
      <point x="458" y="479"/>
      <point x="464" y="500" type="curve" smooth="yes"/>
      <point x="487" y="573"/>
      <point x="423" y="632"/>
      <point x="320" y="632" type="curve" smooth="yes"/>
      <point x="219" y="632"/>
      <point x="143" y="582"/>
    </contour>
  </outline>
</glyph>
<glyph name="gjGA" format="1">
  <advance width="748"/>
  <unicode hex="0A97"/>
  <outline>
    <contour>
      <point x="509" y="542" type="curve" smooth="yes"/>
      <point x="425" y="279" type="line" smooth="yes"/>
      <point x="404" y="213"/>
      <point x="393" y="172"/>
      <point x="393" y="137" type="curve" smooth="yes"/>
      <point x="393" y="63"/>
      <point x="437" y="-3"/>
      <point x="557" y="-3" type="curve" smooth="yes"/>
      <point x="660" y="-3"/>
      <point x="728" y="73"/>
      <point x="728" y="136" type="curve" smooth="yes"/>
      <point x="728" y="149"/>
      <point x="723" y="163"/>
      <point x="716" y="163" type="curve" smooth="yes"/>
      <point x="707" y="163"/>
      <point x="701" y="138"/>
      <point x="678" y="138" type="curve" smooth="yes"/>
      <point x="665" y="138"/>
      <point x="660" y="150"/>
      <point x="665" y="169" type="curve" smooth="yes"/>
      <point x="779" y="542" type="line" smooth="yes"/>
      <point x="782" y="555"/>
      <point x="785" y="566"/>
      <point x="785" y="575" type="curve" smooth="yes"/>
      <point x="785" y="599"/>
      <point x="774" y="624"/>
      <point x="710" y="624" type="curve" smooth="yes"/>
      <point x="635" y="624"/>
      <point x="526" y="599"/>
    </contour>
    <contour>
      <point x="413" y="454" type="curve" smooth="yes"/>
      <point x="413" y="553"/>
      <point x="352" y="633"/>
      <point x="237" y="633" type="curve" smooth="yes"/>
      <point x="149" y="633"/>
      <point x="85" y="572"/>
      <point x="85" y="511" type="curve" smooth="yes"/>
      <point x="85" y="499"/>
      <point x="89" y="485"/>
      <point x="97" y="485" type="curve" smooth="yes"/>
      <point x="109" y="485"/>
      <point x="117" y="509"/>
      <point x="135" y="509" type="curve" smooth="yes"/>
      <point x="146" y="509"/>
      <point x="153" y="497"/>
      <point x="153" y="474" type="curve" smooth="yes"/>
      <point x="153" y="409"/>
      <point x="119" y="339"/>
      <point x="80" y="339" type="curve" smooth="yes"/>
      <point x="61" y="339"/>
      <point x="57" y="370"/>
      <point x="46" y="370" type="curve" smooth="yes"/>
      <point x="38" y="370"/>
      <point x="32" y="360"/>
      <point x="29" y="346" type="curve" smooth="yes"/>
      <point x="14" y="275"/>
      <point x="53" y="196"/>
      <point x="180" y="196" type="curve" smooth="yes"/>
      <point x="325" y="196"/>
      <point x="413" y="300"/>
    </contour>
  </outline>
</glyph>
<glyph name="gjCA" format="1">
  <advance width="794"/>
  <unicode hex="0A9A"/>
  <outline>
    <contour>
      <point x="387" y="233" type="curve" smooth="yes"/>
      <point x="346" y="233"/>
      <point x="293" y="253"/>
      <point x="221" y="296" type="curve"/>
      <point x="191" y="270" type="line"/>
      <point x="265" y="137"/>
      <point x="380" y="116"/>
      <point x="470" y="116" type="curve"/>
      <point x="481" y="314" type="line"/>
      <point x="464" y="264"/>
      <point x="437" y="233"/>
    </contour>
    <contour>
      <point x="552" y="542" type="curve" smooth="yes"/>
      <point x="470" y="279" type="line" smooth="yes"/>
      <point x="448" y="213"/>
      <point x="439" y="172"/>
      <point x="439" y="137" type="curve" smooth="yes"/>
      <point x="439" y="63"/>
      <point x="482" y="-3"/>
      <point x="601" y="-3" type="curve" smooth="yes"/>
      <point x="704" y="-3"/>
      <point x="774" y="73"/>
      <point x="774" y="136" type="curve" smooth="yes"/>
      <point x="774" y="149"/>
      <point x="767" y="163"/>
      <point x="760" y="163" type="curve" smooth="yes"/>
      <point x="751" y="163"/>
      <point x="744" y="138"/>
      <point x="723" y="138" type="curve" smooth="yes"/>
      <point x="708" y="138"/>
      <point x="703" y="150"/>
      <point x="708" y="169" type="curve" smooth="yes"/>
      <point x="823" y="542" type="line" smooth="yes"/>
      <point x="827" y="555"/>
      <point x="829" y="566"/>
      <point x="829" y="575" type="curve" smooth="yes"/>
      <point x="829" y="599"/>
      <point x="819" y="624"/>
      <point x="754" y="624" type="curve" smooth="yes"/>
      <point x="680" y="624"/>
      <point x="571" y="599"/>
    </contour>
    <contour>
      <point x="452" y="430" type="curve" smooth="yes"/>
      <point x="477" y="530"/>
      <point x="432" y="628"/>
      <point x="308" y="628" type="curve" smooth="yes"/>
      <point x="206" y="628"/>
      <point x="134" y="565"/>
      <point x="111" y="491" type="curve" smooth="yes"/>
      <point x="102" y="463"/>
      <point x="109" y="451"/>
      <point x="118" y="451" type="curve" smooth="yes"/>
      <point x="128" y="451"/>
      <point x="139" y="467"/>
      <point x="161" y="467" type="curve" smooth="yes"/>
      <point x="181" y="467"/>
      <point x="190" y="452"/>
      <point x="185" y="430" type="curve" smooth="yes"/>
      <point x="180" y="410"/>
      <point x="162" y="384"/>
      <point x="129" y="359" type="curve"/>
      <point x="109" y="372"/>
      <point x="93" y="379"/>
      <point x="72" y="379" type="curve" smooth="yes"/>
      <point x="49" y="379"/>
      <point x="26" y="369"/>
      <point x="17" y="341" type="curve" smooth="yes"/>
      <point x="-3" y="276"/>
      <point x="62" y="214"/>
      <point x="158" y="214" type="curve" smooth="yes"/>
      <point x="313" y="214"/>
      <point x="425" y="324"/>
    </contour>
  </outline>
</glyph>
<glyph name="gjCHA" format="1">
  <advance width="725"/>
  <unicode hex="0A9B"/>
  <outline>
    <contour>
      <point x="291" y="0" type="move" name="blwm"/>
    </contour>
    <contour>
      <point x="470" y="615" type="move" name="abvm"/>
    </contour>
    <contour>
      <point x="436" y="367" type="curve" smooth="yes"/>
      <point x="436" y="395"/>
      <point x="322" y="409"/>
      <point x="346" y="487" type="curve" smooth="yes"/>
      <point x="351" y="504"/>
      <point x="362" y="515"/>
      <point x="375" y="515" type="curve" smooth="yes"/>
      <point x="388" y="515"/>
      <point x="397" y="506"/>
      <point x="402" y="485" type="curve" smooth="yes"/>
      <point x="405" y="473"/>
      <point x="409" y="470"/>
      <point x="415" y="470" type="curve" smooth="yes"/>
      <point x="432" y="470"/>
      <point x="457" y="487"/>
      <point x="457" y="524" type="curve" smooth="yes"/>
      <point x="457" y="584"/>
      <point x="397" y="633"/>
      <point x="308" y="633" type="curve" smooth="yes"/>
      <point x="197" y="633"/>
      <point x="131" y="575"/>
      <point x="111" y="510" type="curve" smooth="yes"/>
      <point x="82" y="417"/>
      <point x="136" y="355"/>
      <point x="219" y="336" type="curve"/>
      <point x="201" y="385" type="line"/>
      <point x="108" y="365"/>
      <point x="52" y="322"/>
      <point x="30" y="252" type="curve" smooth="yes"/>
      <point x="-12" y="116"/>
      <point x="92" y="0"/>
      <point x="290" y="0" type="curve" smooth="yes"/>
      <point x="514" y="0"/>
      <point x="689" y="131"/>
      <point x="734" y="313" type="curve" smooth="yes"/>
      <point x="768" y="440"/>
      <point x="731" y="574"/>
      <point x="614" y="574" type="curve" smooth="yes"/>
      <point x="551" y="574"/>
      <point x="509" y="536"/>
      <point x="488" y="470" type="curve" smooth="yes"/>
      <point x="461" y="382"/>
      <point x="494" y="296"/>
      <point x="571" y="238" type="curve"/>
      <point x="620" y="282" type="line"/>
      <point x="581" y="307"/>
      <point x="564" y="359"/>
      <point x="577" y="401" type="curve" smooth="yes"/>
      <point x="583" y="421"/>
      <point x="594" y="432"/>
      <point x="608" y="432" type="curve" smooth="yes"/>
      <point x="637" y="432"/>
      <point x="646" y="385"/>
      <point x="635" y="349" type="curve" smooth="yes"/>
      <point x="610" y="268"/>
      <point x="505" y="200"/>
      <point x="393" y="200" type="curve" smooth="yes"/>
      <point x="324" y="200"/>
      <point x="259" y="225"/>
      <point x="275" y="275" type="curve" smooth="yes"/>
      <point x="283" y="301"/>
      <point x="306" y="316"/>
      <point x="352" y="329" type="curve" smooth="yes"/>
      <point x="402" y="343"/>
      <point x="436" y="352"/>
    </contour>
  </outline>
</glyph>
<glyph name="gjNYA" format="1">
  <advance width="757"/>
  <unicode hex="0A9E"/>
  <outline>
    <contour>
      <point x="334" y="309" type="curve"/>
      <point x="273" y="274" type="line"/>
      <point x="325" y="220"/>
      <point x="384" y="192"/>
      <point x="460" y="192" type="curve"/>
      <point x="471" y="391" type="line"/>
      <point x="446" y="316"/>
      <point x="414" y="295"/>
    </contour>
    <contour>
      <point x="518" y="542" type="curve" smooth="yes"/>
      <point x="434" y="279" type="line" smooth="yes"/>
      <point x="413" y="213"/>
      <point x="402" y="172"/>
      <point x="402" y="137" type="curve" smooth="yes"/>
      <point x="402" y="63"/>
      <point x="446" y="-3"/>
      <point x="566" y="-3" type="curve" smooth="yes"/>
      <point x="669" y="-3"/>
      <point x="737" y="73"/>
      <point x="737" y="136" type="curve" smooth="yes"/>
      <point x="737" y="149"/>
      <point x="732" y="163"/>
      <point x="725" y="163" type="curve" smooth="yes"/>
      <point x="716" y="163"/>
      <point x="710" y="138"/>
      <point x="687" y="138" type="curve" smooth="yes"/>
      <point x="674" y="138"/>
      <point x="669" y="150"/>
      <point x="674" y="169" type="curve" smooth="yes"/>
      <point x="788" y="542" type="line" smooth="yes"/>
      <point x="791" y="555"/>
      <point x="794" y="566"/>
      <point x="794" y="575" type="curve" smooth="yes"/>
      <point x="794" y="599"/>
      <point x="783" y="624"/>
      <point x="719" y="624" type="curve" smooth="yes"/>
      <point x="644" y="624"/>
      <point x="535" y="599"/>
    </contour>
    <contour>
      <point x="413" y="454" type="curve" smooth="yes"/>
      <point x="413" y="553"/>
      <point x="352" y="633"/>
      <point x="237" y="633" type="curve" smooth="yes"/>
      <point x="149" y="633"/>
      <point x="85" y="572"/>
      <point x="85" y="511" type="curve" smooth="yes"/>
      <point x="85" y="499"/>
      <point x="89" y="485"/>
      <point x="97" y="485" type="curve" smooth="yes"/>
      <point x="109" y="485"/>
      <point x="117" y="509"/>
      <point x="135" y="509" type="curve" smooth="yes"/>
      <point x="146" y="509"/>
      <point x="153" y="497"/>
      <point x="153" y="474" type="curve" smooth="yes"/>
      <point x="153" y="409"/>
      <point x="119" y="339"/>
      <point x="80" y="339" type="curve" smooth="yes"/>
      <point x="61" y="339"/>
      <point x="57" y="370"/>
      <point x="46" y="370" type="curve" smooth="yes"/>
      <point x="38" y="370"/>
      <point x="32" y="360"/>
      <point x="29" y="346" type="curve" smooth="yes"/>
      <point x="14" y="275"/>
      <point x="53" y="196"/>
      <point x="180" y="196" type="curve" smooth="yes"/>
      <point x="325" y="196"/>
      <point x="413" y="300"/>
    </contour>
  </outline>
</glyph>
<glyph name="gjTTA" format="1">
  <advance width="546"/>
  <unicode hex="0A9F"/>
  <outline>
    <contour>
      <point x="211" y="0" type="move" name="blwm"/>
    </contour>
    <contour>
      <point x="389" y="615" type="move" name="abvm"/>
    </contour>
    <contour>
      <point x="339" y="208" type="curve" smooth="yes"/>
      <point x="287" y="208"/>
      <point x="261" y="222"/>
      <point x="261" y="258" type="curve" smooth="yes"/>
      <point x="261" y="344"/>
      <point x="555" y="333"/>
      <point x="555" y="506" type="curve" smooth="yes"/>
      <point x="555" y="578"/>
      <point x="489" y="633"/>
      <point x="389" y="633" type="curve" smooth="yes"/>
      <point x="266" y="633"/>
      <point x="190" y="552"/>
      <point x="190" y="446" type="curve" smooth="yes"/>
      <point x="190" y="427"/>
      <point x="197" y="420"/>
      <point x="204" y="420" type="curve" smooth="yes"/>
      <point x="222" y="420"/>
      <point x="251" y="456"/>
      <point x="285" y="456" type="curve" smooth="yes"/>
      <point x="310" y="456"/>
      <point x="322" y="443"/>
      <point x="322" y="423" type="curve" smooth="yes"/>
      <point x="322" y="348"/>
      <point x="20" y="356"/>
      <point x="20" y="158" type="curve" smooth="yes"/>
      <point x="20" y="59"/>
      <point x="115" y="-3"/>
      <point x="255" y="-3" type="curve" smooth="yes"/>
      <point x="432" y="-3"/>
      <point x="529" y="109"/>
      <point x="529" y="239" type="curve" smooth="yes"/>
      <point x="529" y="276"/>
      <point x="519" y="295"/>
      <point x="505" y="295" type="curve" smooth="yes"/>
      <point x="477" y="295"/>
      <point x="441" y="208"/>
    </contour>
  </outline>
</glyph>
<glyph name="gjTA" format="1">
  <advance width="758"/>
  <unicode hex="0AA4"/>
  <outline>
    <contour>
      <point x="38" y="260" type="curve" smooth="yes"/>
      <point x="-7" y="112"/>
      <point x="77" y="-3"/>
      <point x="208" y="-3" type="curve" smooth="yes"/>
      <point x="284" y="-3"/>
      <point x="344" y="40"/>
      <point x="363" y="103" type="curve" smooth="yes"/>
      <point x="373" y="136"/>
      <point x="369" y="163"/>
      <point x="355" y="163" type="curve" smooth="yes"/>
      <point x="342" y="163"/>
      <point x="334" y="138"/>
      <point x="312" y="138" type="curve" smooth="yes"/>
      <point x="286" y="138"/>
      <point x="262" y="173"/>
      <point x="281" y="238" type="curve" smooth="yes"/>
      <point x="301" y="306"/>
      <point x="358" y="355"/>
      <point x="434" y="355" type="curve" smooth="yes"/>
      <point x="482" y="355"/>
      <point x="528" y="341"/>
      <point x="564" y="325" type="curve"/>
      <point x="537" y="410" type="line"/>
      <point x="464" y="434"/>
      <point x="398" y="448"/>
      <point x="337" y="448" type="curve" smooth="yes"/>
      <point x="174" y="448"/>
      <point x="73" y="375"/>
    </contour>
    <contour>
      <point x="517" y="542" type="curve" smooth="yes"/>
      <point x="435" y="279" type="line" smooth="yes"/>
      <point x="413" y="213"/>
      <point x="404" y="172"/>
      <point x="404" y="137" type="curve" smooth="yes"/>
      <point x="404" y="63"/>
      <point x="448" y="-3"/>
      <point x="566" y="-3" type="curve" smooth="yes"/>
      <point x="669" y="-3"/>
      <point x="738" y="73"/>
      <point x="738" y="136" type="curve" smooth="yes"/>
      <point x="738" y="149"/>
      <point x="732" y="163"/>
      <point x="725" y="163" type="curve" smooth="yes"/>
      <point x="716" y="163"/>
      <point x="710" y="138"/>
      <point x="687" y="138" type="curve" smooth="yes"/>
      <point x="674" y="138"/>
      <point x="668" y="150"/>
      <point x="674" y="169" type="curve" smooth="yes"/>
      <point x="788" y="542" type="line" smooth="yes"/>
      <point x="793" y="555"/>
      <point x="794" y="566"/>
      <point x="794" y="575" type="curve" smooth="yes"/>
      <point x="794" y="599"/>
      <point x="784" y="624"/>
      <point x="719" y="624" type="curve" smooth="yes"/>
      <point x="645" y="624"/>
      <point x="536" y="599"/>
    </contour>
  </outline>
</glyph>
<glyph name="gjTHA" format="1">
  <advance width="865"/>
  <unicode hex="0AA5"/>
  <outline>
    <contour>
      <point x="93" y="499" type="curve" smooth="yes"/>
      <point x="93" y="430"/>
      <point x="165" y="386"/>
      <point x="263" y="386" type="curve"/>
      <point x="289" y="430" type="line"/>
      <point x="247" y="430"/>
      <point x="225" y="451"/>
      <point x="225" y="474" type="curve" smooth="yes"/>
      <point x="225" y="495"/>
      <point x="242" y="508"/>
      <point x="257" y="508" type="curve" smooth="yes"/>
      <point x="271" y="508"/>
      <point x="288" y="499"/>
      <point x="288" y="475" type="curve" smooth="yes"/>
      <point x="288" y="444"/>
      <point x="265" y="416"/>
      <point x="160" y="381" type="curve" smooth="yes"/>
      <point x="49" y="347"/>
      <point x="29" y="330"/>
      <point x="29" y="299" type="curve" smooth="yes"/>
      <point x="29" y="210"/>
      <point x="168" y="125"/>
      <point x="313" y="125" type="curve" smooth="yes"/>
      <point x="443" y="125"/>
      <point x="520" y="180"/>
      <point x="568" y="252" type="curve"/>
      <point x="566" y="357" type="line"/>
      <point x="540" y="281"/>
      <point x="474" y="246"/>
      <point x="390" y="246" type="curve" smooth="yes"/>
      <point x="345" y="246"/>
      <point x="320" y="255"/>
      <point x="348" y="267" type="curve" smooth="yes"/>
      <point x="402" y="295" type="line" smooth="yes"/>
      <point x="481" y="335"/>
      <point x="524" y="386"/>
      <point x="524" y="461" type="curve" smooth="yes"/>
      <point x="524" y="550"/>
      <point x="437" y="633"/>
      <point x="285" y="633" type="curve" smooth="yes"/>
      <point x="162" y="633"/>
      <point x="93" y="567"/>
    </contour>
    <contour>
      <point x="625" y="542" type="curve" smooth="yes"/>
      <point x="542" y="279" type="line" smooth="yes"/>
      <point x="520" y="213"/>
      <point x="511" y="172"/>
      <point x="511" y="137" type="curve" smooth="yes"/>
      <point x="511" y="63"/>
      <point x="555" y="-3"/>
      <point x="673" y="-3" type="curve" smooth="yes"/>
      <point x="776" y="-3"/>
      <point x="845" y="73"/>
      <point x="845" y="136" type="curve" smooth="yes"/>
      <point x="845" y="149"/>
      <point x="840" y="163"/>
      <point x="832" y="163" type="curve" smooth="yes"/>
      <point x="823" y="163"/>
      <point x="817" y="138"/>
      <point x="795" y="138" type="curve" smooth="yes"/>
      <point x="781" y="138"/>
      <point x="775" y="150"/>
      <point x="781" y="169" type="curve" smooth="yes"/>
      <point x="896" y="542" type="line" smooth="yes"/>
      <point x="899" y="555"/>
      <point x="901" y="566"/>
      <point x="901" y="575" type="curve" smooth="yes"/>
      <point x="901" y="599"/>
      <point x="890" y="624"/>
      <point x="826" y="624" type="curve" smooth="yes"/>
      <point x="752" y="624"/>
      <point x="643" y="599"/>
    </contour>
  </outline>
</glyph>
<glyph name="gjDA" format="1">
  <advance width="496"/>
  <unicode hex="0AA6"/>
  <outline>
    <contour>
      <point x="181" y="0" type="move" name="blwm"/>
    </contour>
    <contour>
      <point x="290" y="615" type="move" name="abvm"/>
    </contour>
    <contour>
      <point x="112" y="453" type="curve" smooth="yes"/>
      <point x="112" y="392"/>
      <point x="152" y="346"/>
      <point x="227" y="330" type="curve"/>
      <point x="199" y="386" type="line"/>
      <point x="87" y="367"/>
      <point x="20" y="302"/>
      <point x="20" y="204" type="curve" smooth="yes"/>
      <point x="20" y="94"/>
      <point x="105" y="0"/>
      <point x="256" y="0" type="curve" smooth="yes"/>
      <point x="386" y="0"/>
      <point x="481" y="96"/>
      <point x="481" y="188" type="curve" smooth="yes"/>
      <point x="481" y="214"/>
      <point x="475" y="225"/>
      <point x="466" y="225" type="curve" smooth="yes"/>
      <point x="452" y="225"/>
      <point x="424" y="202"/>
      <point x="350" y="202" type="curve" smooth="yes"/>
      <point x="302" y="202"/>
      <point x="270" y="222"/>
      <point x="270" y="263" type="curve" smooth="yes"/>
      <point x="270" y="303"/>
      <point x="308" y="322"/>
      <point x="361" y="334" type="curve" smooth="yes"/>
      <point x="411" y="347"/>
      <point x="445" y="357"/>
      <point x="445" y="370" type="curve" smooth="yes"/>
      <point x="445" y="395"/>
      <point x="352" y="397"/>
      <point x="352" y="464" type="curve" smooth="yes"/>
      <point x="352" y="495"/>
      <point x="363" y="514"/>
      <point x="386" y="514" type="curve" smooth="yes"/>
      <point x="401" y="514"/>
      <point x="409" y="505"/>
      <point x="411" y="485" type="curve" smooth="yes"/>
      <point x="412" y="470"/>
      <point x="413" y="466"/>
      <point x="420" y="466" type="curve" smooth="yes"/>
      <point x="453" y="466"/>
      <point x="473" y="492"/>
      <point x="470" y="530" type="curve" smooth="yes"/>
      <point x="465" y="584"/>
      <point x="417" y="632"/>
      <point x="320" y="632" type="curve" smooth="yes"/>
      <point x="200" y="632"/>
      <point x="112" y="561"/>
    </contour>
  </outline>
</glyph>
<glyph name="gjNA" format="1">
  <advance width="724"/>
  <unicode hex="0AA8"/>
  <outline>
    <contour>
      <point x="485" y="542" type="curve" smooth="yes"/>
      <point x="401" y="279" type="line" smooth="yes"/>
      <point x="380" y="213"/>
      <point x="369" y="172"/>
      <point x="369" y="137" type="curve" smooth="yes"/>
      <point x="369" y="63"/>
      <point x="413" y="-3"/>
      <point x="533" y="-3" type="curve" smooth="yes"/>
      <point x="636" y="-3"/>
      <point x="704" y="73"/>
      <point x="704" y="136" type="curve" smooth="yes"/>
      <point x="704" y="149"/>
      <point x="699" y="163"/>
      <point x="692" y="163" type="curve" smooth="yes"/>
      <point x="683" y="163"/>
      <point x="677" y="138"/>
      <point x="654" y="138" type="curve" smooth="yes"/>
      <point x="641" y="138"/>
      <point x="636" y="150"/>
      <point x="641" y="169" type="curve" smooth="yes"/>
      <point x="755" y="542" type="line" smooth="yes"/>
      <point x="758" y="555"/>
      <point x="761" y="566"/>
      <point x="761" y="575" type="curve" smooth="yes"/>
      <point x="761" y="599"/>
      <point x="750" y="624"/>
      <point x="686" y="624" type="curve" smooth="yes"/>
      <point x="611" y="624"/>
      <point x="502" y="599"/>
    </contour>
    <contour>
      <point x="16" y="287" type="curve" smooth="yes"/>
      <point x="17" y="186"/>
      <point x="93" y="125"/>
      <point x="190" y="125" type="curve" smooth="yes"/>
      <point x="275" y="125"/>
      <point x="348" y="185"/>
      <point x="348" y="261" type="curve" smooth="yes"/>
      <point x="348" y="276"/>
      <point x="343" y="293"/>
      <point x="336" y="293" type="curve" smooth="yes"/>
      <point x="324" y="293"/>
      <point x="318" y="268"/>
      <point x="298" y="268" type="curve" smooth="yes"/>
      <point x="284" y="268"/>
      <point x="267" y="277"/>
      <point x="267" y="307" type="curve" smooth="yes"/>
      <point x="267" y="351"/>
      <point x="301" y="376"/>
      <point x="345" y="376" type="curve" smooth="yes"/>
      <point x="394" y="376"/>
      <point x="445" y="353"/>
      <point x="496" y="316" type="curve"/>
      <point x="527" y="366" type="line"/>
      <point x="454" y="445"/>
      <point x="358" y="492"/>
      <point x="255" y="492" type="curve" smooth="yes"/>
      <point x="118" y="492"/>
      <point x="14" y="410"/>
    </contour>
  </outline>
</glyph>
<glyph name="gjBA" format="1">
  <advance width="904"/>
  <unicode hex="0AAC"/>
  <outline>
    <contour>
      <point x="554" y="355" type="curve"/>
      <point x="440" y="310" type="line"/>
      <point x="494" y="266"/>
      <point x="556" y="242"/>
      <point x="622" y="242" type="curve"/>
      <point x="622" y="412" type="line"/>
      <point x="609" y="368"/>
      <point x="587" y="355"/>
    </contour>
    <contour>
      <point x="309" y="365" type="curve" smooth="yes"/>
      <point x="309" y="477"/>
      <point x="387" y="539"/>
      <point x="471" y="539" type="curve" smooth="yes"/>
      <point x="484" y="539"/>
      <point x="489" y="545"/>
      <point x="489" y="553" type="curve" smooth="yes"/>
      <point x="489" y="583"/>
      <point x="431" y="633"/>
      <point x="322" y="633" type="curve" smooth="yes"/>
      <point x="165" y="633"/>
      <point x="49" y="516"/>
      <point x="49" y="339" type="curve" smooth="yes"/>
      <point x="49" y="201"/>
      <point x="153" y="125"/>
      <point x="285" y="125" type="curve" smooth="yes"/>
      <point x="438" y="125"/>
      <point x="556" y="226"/>
      <point x="556" y="357" type="curve" smooth="yes"/>
      <point x="556" y="430"/>
      <point x="516" y="470"/>
      <point x="464" y="470" type="curve" smooth="yes"/>
      <point x="420" y="470"/>
      <point x="391" y="440"/>
      <point x="391" y="390" type="curve" smooth="yes"/>
      <point x="391" y="351"/>
      <point x="405" y="327"/>
      <point x="431" y="300" type="curve"/>
      <point x="418" y="285"/>
      <point x="400" y="274"/>
      <point x="376" y="274" type="curve" smooth="yes"/>
      <point x="340" y="274"/>
      <point x="309" y="305"/>
    </contour>
    <contour>
      <point x="663" y="542" type="curve" smooth="yes"/>
      <point x="580" y="279" type="line" smooth="yes"/>
      <point x="559" y="213"/>
      <point x="549" y="172"/>
      <point x="549" y="137" type="curve" smooth="yes"/>
      <point x="549" y="63"/>
      <point x="595" y="-3"/>
      <point x="712" y="-3" type="curve" smooth="yes"/>
      <point x="816" y="-3"/>
      <point x="884" y="73"/>
      <point x="884" y="136" type="curve" smooth="yes"/>
      <point x="884" y="149"/>
      <point x="880" y="163"/>
      <point x="871" y="163" type="curve" smooth="yes"/>
      <point x="862" y="163"/>
      <point x="855" y="138"/>
      <point x="833" y="138" type="curve" smooth="yes"/>
      <point x="821" y="138"/>
      <point x="815" y="150"/>
      <point x="821" y="169" type="curve" smooth="yes"/>
      <point x="933" y="542" type="line" smooth="yes"/>
      <point x="937" y="555"/>
      <point x="940" y="566"/>
      <point x="940" y="575" type="curve" smooth="yes"/>
      <point x="940" y="599"/>
      <point x="931" y="624"/>
      <point x="865" y="624" type="curve" smooth="yes"/>
      <point x="791" y="624"/>
      <point x="681" y="599"/>
    </contour>
  </outline>
</glyph>
<glyph name="gjBHA" format="1">
  <advance width="1005"/>
  <unicode hex="0AAD"/>
  <outline>
    <contour>
      <point x="22" y="233" type="curve" smooth="yes"/>
      <point x="22" y="81"/>
      <point x="137" y="-3"/>
      <point x="316" y="-3" type="curve" smooth="yes"/>
      <point x="490" y="-3"/>
      <point x="580" y="103"/>
      <point x="580" y="185" type="curve" smooth="yes"/>
      <point x="580" y="199"/>
      <point x="576" y="207"/>
      <point x="571" y="207" type="curve" smooth="yes"/>
      <point x="555" y="207"/>
      <point x="532" y="174"/>
      <point x="446" y="174" type="curve" smooth="yes"/>
      <point x="323" y="174"/>
      <point x="241" y="227"/>
      <point x="241" y="333" type="curve" smooth="yes"/>
      <point x="241" y="453"/>
      <point x="330" y="550"/>
      <point x="389" y="550" type="curve" smooth="yes"/>
      <point x="424" y="550"/>
      <point x="416" y="524"/>
      <point x="406" y="492" type="curve" smooth="yes"/>
      <point x="390" y="442" type="line"/>
      <point x="371" y="442" type="line" smooth="yes"/>
      <point x="341" y="442"/>
      <point x="321" y="425"/>
      <point x="316" y="404" type="curve" smooth="yes"/>
      <point x="301" y="334"/>
      <point x="408" y="250"/>
      <point x="502" y="250" type="curve" smooth="yes"/>
      <point x="573" y="250"/>
      <point x="616" y="287"/>
      <point x="646" y="394" type="curve" smooth="yes"/>
      <point x="689" y="541"/>
      <point x="599" y="633"/>
      <point x="449" y="633" type="curve" smooth="yes"/>
      <point x="172" y="633"/>
      <point x="22" y="415"/>
    </contour>
    <contour>
      <point x="549" y="442" type="line"/>
      <point x="549" y="352" type="line"/>
      <point x="802" y="352" type="line"/>
      <point x="802" y="442" type="line"/>
    </contour>
    <contour>
      <point x="766" y="542" type="curve" smooth="yes"/>
      <point x="682" y="279" type="line" smooth="yes"/>
      <point x="661" y="213"/>
      <point x="652" y="172"/>
      <point x="652" y="137" type="curve" smooth="yes"/>
      <point x="652" y="63"/>
      <point x="695" y="-3"/>
      <point x="813" y="-3" type="curve" smooth="yes"/>
      <point x="917" y="-3"/>
      <point x="985" y="73"/>
      <point x="985" y="136" type="curve" smooth="yes"/>
      <point x="985" y="149"/>
      <point x="980" y="163"/>
      <point x="973" y="163" type="curve" smooth="yes"/>
      <point x="964" y="163"/>
      <point x="958" y="138"/>
      <point x="935" y="138" type="curve" smooth="yes"/>
      <point x="922" y="138"/>
      <point x="917" y="150"/>
      <point x="922" y="169" type="curve" smooth="yes"/>
      <point x="1036" y="542" type="line" smooth="yes"/>
      <point x="1039" y="555"/>
      <point x="1042" y="566"/>
      <point x="1042" y="575" type="curve" smooth="yes"/>
      <point x="1042" y="599"/>
      <point x="1031" y="624"/>
      <point x="968" y="624" type="curve" smooth="yes"/>
      <point x="893" y="624"/>
      <point x="784" y="599"/>
    </contour>
  </outline>
</glyph>
<glyph name="gjLA" format="1">
  <advance width="839"/>
  <unicode hex="0AB2"/>
  <outline>
    <contour>
      <point x="581" y="0" type="move" name="blwm"/>
    </contour>
    <contour>
      <point x="762" y="615" type="move" name="abvm"/>
    </contour>
    <contour>
      <point x="869" y="542" type="line" smooth="yes"/>
      <point x="872" y="555"/>
      <point x="874" y="566"/>
      <point x="874" y="575" type="curve" smooth="yes"/>
      <point x="874" y="599"/>
      <point x="865" y="624"/>
      <point x="800" y="624" type="curve" smooth="yes"/>
      <point x="670" y="624"/>
      <point x="542" y="443"/>
      <point x="472" y="443" type="curve" smooth="yes"/>
      <point x="448" y="443"/>
      <point x="451" y="474"/>
      <point x="432" y="474" type="curve" smooth="yes"/>
      <point x="409" y="474"/>
      <point x="363" y="422"/>
      <point x="363" y="369" type="curve" smooth="yes"/>
      <point x="363" y="324"/>
      <point x="390" y="298"/>
      <point x="430" y="298" type="curve" smooth="yes"/>
      <point x="463" y="298"/>
      <point x="487" y="314"/>
      <point x="547" y="376" type="curve"/>
      <point x="515" y="279" type="line" smooth="yes"/>
      <point x="494" y="213"/>
      <point x="484" y="172"/>
      <point x="484" y="137" type="curve" smooth="yes"/>
      <point x="484" y="63"/>
      <point x="528" y="-3"/>
      <point x="647" y="-3" type="curve" smooth="yes"/>
      <point x="751" y="-3"/>
      <point x="819" y="73"/>
      <point x="819" y="136" type="curve" smooth="yes"/>
      <point x="819" y="149"/>
      <point x="815" y="163"/>
      <point x="806" y="163" type="curve" smooth="yes"/>
      <point x="797" y="163"/>
      <point x="790" y="138"/>
      <point x="768" y="138" type="curve" smooth="yes"/>
      <point x="755" y="138"/>
      <point x="749" y="150"/>
      <point x="755" y="169" type="curve" smooth="yes"/>
    </contour>
    <contour>
      <point x="439" y="243" type="curve" smooth="yes"/>
      <point x="439" y="253"/>
      <point x="436" y="256"/>
      <point x="430" y="256" type="curve" smooth="yes"/>
      <point x="420" y="256"/>
      <point x="405" y="249"/>
      <point x="385" y="249" type="curve" smooth="yes"/>
      <point x="344" y="249"/>
      <point x="305" y="276"/>
      <point x="305" y="341" type="curve" smooth="yes"/>
      <point x="305" y="458"/>
      <point x="384" y="536"/>
      <point x="463" y="548" type="curve" smooth="yes"/>
      <point x="484" y="551"/>
      <point x="493" y="552"/>
      <point x="493" y="566" type="curve" smooth="yes"/>
      <point x="493" y="591"/>
      <point x="450" y="633"/>
      <point x="356" y="633" type="curve" smooth="yes"/>
      <point x="175" y="633"/>
      <point x="44" y="489"/>
      <point x="44" y="328" type="curve" smooth="yes"/>
      <point x="44" y="197"/>
      <point x="144" y="125"/>
      <point x="257" y="125" type="curve" smooth="yes"/>
      <point x="356" y="125"/>
      <point x="439" y="196"/>
    </contour>
  </outline>
</glyph>
<glyph name="gjLLA" format="1">
  <advance width="956"/>
  <unicode hex="0AB3"/>
  <outline>
    <contour>
      <point x="695" y="0" type="move" name="blwm"/>
    </contour>
    <contour>
      <point x="764" y="615" type="move" name="abvm"/>
    </contour>
    <contour>
      <point x="52" y="353" type="curve" smooth="yes"/>
      <point x="52" y="200"/>
      <point x="165" y="125"/>
      <point x="289" y="125" type="curve" smooth="yes"/>
      <point x="396" y="125"/>
      <point x="458" y="174"/>
      <point x="506" y="275" type="curve" smooth="yes"/>
      <point x="571" y="415" type="line" smooth="yes"/>
      <point x="597" y="466"/>
      <point x="615" y="476"/>
      <point x="639" y="476" type="curve" smooth="yes"/>
      <point x="670" y="476"/>
      <point x="690" y="451"/>
      <point x="669" y="390" type="curve" smooth="yes"/>
      <point x="632" y="279" type="line" smooth="yes"/>
      <point x="610" y="212"/>
      <point x="602" y="172"/>
      <point x="602" y="137" type="curve" smooth="yes"/>
      <point x="602" y="63"/>
      <point x="646" y="-3"/>
      <point x="764" y="-3" type="curve" smooth="yes"/>
      <point x="868" y="-3"/>
      <point x="935" y="73"/>
      <point x="935" y="136" type="curve" smooth="yes"/>
      <point x="935" y="149"/>
      <point x="932" y="163"/>
      <point x="924" y="163" type="curve" smooth="yes"/>
      <point x="914" y="163"/>
      <point x="908" y="138"/>
      <point x="885" y="138" type="curve" smooth="yes"/>
      <point x="872" y="138"/>
      <point x="868" y="149"/>
      <point x="872" y="169" type="curve" smooth="yes"/>
      <point x="926" y="352" type="line" smooth="yes"/>
      <point x="978" y="528"/>
      <point x="869" y="624"/>
      <point x="726" y="624" type="curve" smooth="yes"/>
      <point x="621" y="624"/>
      <point x="547" y="571"/>
      <point x="495" y="463" type="curve" smooth="yes"/>
      <point x="440" y="349" type="line" smooth="yes"/>
      <point x="414" y="295"/>
      <point x="393" y="272"/>
      <point x="363" y="272" type="curve" smooth="yes"/>
      <point x="331" y="272"/>
      <point x="310" y="295"/>
      <point x="310" y="341" type="curve" smooth="yes"/>
      <point x="310" y="432"/>
      <point x="357" y="513"/>
      <point x="449" y="518" type="curve" smooth="yes"/>
      <point x="470" y="519"/>
      <point x="478" y="525"/>
      <point x="478" y="541" type="curve" smooth="yes"/>
      <point x="478" y="570"/>
      <point x="423" y="633"/>
      <point x="315" y="633" type="curve" smooth="yes"/>
      <point x="156" y="633"/>
      <point x="52" y="517"/>
    </contour>
  </outline>
</glyph>
<glyph name="gjVA" format="1">
  <advance width="749"/>
  <unicode hex="0AB5"/>
  <outline>
    <contour>
      <point x="46" y="327" type="curve" smooth="yes"/>
      <point x="46" y="204"/>
      <point x="127" y="125"/>
      <point x="247" y="125" type="curve" smooth="yes"/>
      <point x="364" y="125"/>
      <point x="451" y="223"/>
      <point x="504" y="360" type="curve"/>
      <point x="460" y="384" type="line"/>
      <point x="435" y="305"/>
      <point x="401" y="272"/>
      <point x="363" y="272" type="curve" smooth="yes"/>
      <point x="331" y="272"/>
      <point x="306" y="291"/>
      <point x="306" y="347" type="curve" smooth="yes"/>
      <point x="306" y="451"/>
      <point x="365" y="518"/>
      <point x="452" y="518" type="curve" smooth="yes"/>
      <point x="470" y="518"/>
      <point x="476" y="523"/>
      <point x="476" y="538" type="curve" smooth="yes"/>
      <point x="476" y="570"/>
      <point x="436" y="633"/>
      <point x="318" y="633" type="curve" smooth="yes"/>
      <point x="160" y="633"/>
      <point x="46" y="506"/>
    </contour>
    <contour>
      <point x="509" y="542" type="curve" smooth="yes"/>
      <point x="425" y="279" type="line" smooth="yes"/>
      <point x="404" y="213"/>
      <point x="396" y="172"/>
      <point x="396" y="137" type="curve" smooth="yes"/>
      <point x="396" y="63"/>
      <point x="439" y="-3"/>
      <point x="557" y="-3" type="curve" smooth="yes"/>
      <point x="660" y="-3"/>
      <point x="729" y="73"/>
      <point x="729" y="136" type="curve" smooth="yes"/>
      <point x="729" y="149"/>
      <point x="724" y="163"/>
      <point x="716" y="163" type="curve" smooth="yes"/>
      <point x="706" y="163"/>
      <point x="702" y="138"/>
      <point x="679" y="138" type="curve" smooth="yes"/>
      <point x="666" y="138"/>
      <point x="659" y="150"/>
      <point x="666" y="169" type="curve" smooth="yes"/>
      <point x="779" y="542" type="line" smooth="yes"/>
      <point x="783" y="555"/>
      <point x="786" y="566"/>
      <point x="786" y="575" type="curve" smooth="yes"/>
      <point x="786" y="599"/>
      <point x="775" y="624"/>
      <point x="711" y="624" type="curve" smooth="yes"/>
      <point x="637" y="624"/>
      <point x="525" y="599"/>
    </contour>
  </outline>
</glyph>
<glyph name="gjSA" format="1">
  <advance width="881"/>
  <unicode hex="0AB8"/>
  <outline>
    <contour>
      <point x="166" y="255" type="line"/>
      <point x="194" y="-73"/>
      <point x="396" y="-203"/>
      <point x="616" y="-203" type="curve" smooth="yes"/>
      <point x="787" y="-203"/>
      <point x="869" y="-104"/>
      <point x="869" y="11" type="curve" smooth="yes"/>
      <point x="869" y="50"/>
      <point x="855" y="80"/>
      <point x="846" y="80" type="curve" smooth="yes"/>
      <point x="826" y="80"/>
      <point x="808" y="14"/>
      <point x="665" y="14" type="curve" smooth="yes"/>
      <point x="477" y="14"/>
      <point x="315" y="117"/>
      <point x="226" y="255" type="curve"/>
    </contour>
    <contour>
      <point x="454" y="394" type="curve"/>
      <point x="393" y="361" type="line"/>
      <point x="444" y="306"/>
      <point x="505" y="276"/>
      <point x="580" y="276" type="curve"/>
      <point x="591" y="475" type="line"/>
      <point x="566" y="402"/>
      <point x="532" y="380"/>
    </contour>
    <contour>
      <point x="612" y="542" type="curve" smooth="yes"/>
      <point x="556" y="376" type="line" smooth="yes"/>
      <point x="532" y="310"/>
      <point x="519" y="270"/>
      <point x="518" y="234" type="curve" smooth="yes"/>
      <point x="516" y="160"/>
      <point x="558" y="94"/>
      <point x="676" y="94" type="curve" smooth="yes"/>
      <point x="780" y="94"/>
      <point x="852" y="169"/>
      <point x="854" y="233" type="curve" smooth="yes"/>
      <point x="854" y="246"/>
      <point x="849" y="261"/>
      <point x="843" y="261" type="curve" smooth="yes"/>
      <point x="833" y="261"/>
      <point x="825" y="235"/>
      <point x="803" y="235" type="curve" smooth="yes"/>
      <point x="791" y="235"/>
      <point x="785" y="247"/>
      <point x="791" y="266" type="curve" smooth="yes"/>
      <point x="881" y="542" type="line" smooth="yes"/>
      <point x="887" y="555"/>
      <point x="890" y="566"/>
      <point x="890" y="575" type="curve" smooth="yes"/>
      <point x="891" y="599"/>
      <point x="881" y="624"/>
      <point x="816" y="624" type="curve" smooth="yes"/>
      <point x="742" y="624"/>
      <point x="632" y="599"/>
    </contour>
    <contour>
      <point x="485" y="430" type="curve" smooth="yes"/>
      <point x="510" y="530"/>
      <point x="465" y="628"/>
      <point x="341" y="628" type="curve" smooth="yes"/>
      <point x="239" y="628"/>
      <point x="167" y="565"/>
      <point x="144" y="491" type="curve" smooth="yes"/>
      <point x="135" y="463"/>
      <point x="142" y="451"/>
      <point x="151" y="451" type="curve" smooth="yes"/>
      <point x="161" y="451"/>
      <point x="172" y="467"/>
      <point x="194" y="467" type="curve" smooth="yes"/>
      <point x="214" y="467"/>
      <point x="223" y="452"/>
      <point x="218" y="430" type="curve" smooth="yes"/>
      <point x="213" y="410"/>
      <point x="191" y="381"/>
      <point x="158" y="356" type="curve"/>
      <point x="135" y="371"/>
      <point x="113" y="379"/>
      <point x="92" y="379" type="curve" smooth="yes"/>
      <point x="69" y="379"/>
      <point x="39" y="367"/>
      <point x="29" y="335" type="curve" smooth="yes"/>
      <point x="9" y="270"/>
      <point x="95" y="195"/>
      <point x="191" y="195" type="curve" smooth="yes"/>
      <point x="346" y="195"/>
      <point x="458" y="324"/>
    </contour>
  </outline>
</glyph>
<glyph name="gjHA" format="1">
  <advance width="808"/>
  <unicode hex="0AB9"/>
  <outline>
    <contour>
      <point x="291" y="-202" type="move" name="blwm"/>
    </contour>
    <contour>
      <point x="570" y="631" type="move" name="abvm"/>
    </contour>
    <contour>
      <point x="733" y="17" type="curve" smooth="yes"/>
      <point x="767" y="131"/>
      <point x="733" y="249"/>
      <point x="692" y="249" type="curve" smooth="yes"/>
      <point x="679" y="249"/>
      <point x="676" y="236"/>
      <point x="664" y="201" type="curve" smooth="yes"/>
      <point x="626" y="86"/>
      <point x="545" y="20"/>
      <point x="400" y="20" type="curve" smooth="yes"/>
      <point x="225" y="20"/>
      <point x="158" y="99"/>
      <point x="158" y="186" type="curve" smooth="yes"/>
      <point x="158" y="220"/>
      <point x="168" y="255"/>
      <point x="188" y="284" type="curve"/>
      <point x="187" y="171"/>
      <point x="267" y="104"/>
      <point x="400" y="104" type="curve" smooth="yes"/>
      <point x="517" y="104"/>
      <point x="606" y="171"/>
      <point x="612" y="262" type="curve" smooth="yes"/>
      <point x="615" y="309"/>
      <point x="594" y="346"/>
      <point x="555" y="375" type="curve"/>
      <point x="637" y="455" type="line" smooth="yes"/>
      <point x="695" y="513"/>
      <point x="710" y="529"/>
      <point x="710" y="559" type="curve" smooth="yes"/>
      <point x="710" y="603"/>
      <point x="558" y="651"/>
      <point x="497" y="651" type="curve" smooth="yes"/>
      <point x="465" y="651"/>
      <point x="443" y="622"/>
      <point x="432" y="599" type="curve" smooth="yes"/>
      <point x="415" y="566"/>
      <point x="348" y="452"/>
      <point x="347" y="430" type="curve" smooth="yes"/>
      <point x="346" y="401"/>
      <point x="415" y="392"/>
      <point x="412" y="349" type="curve" smooth="yes"/>
      <point x="410" y="318"/>
      <point x="385" y="297"/>
      <point x="343" y="297" type="curve" smooth="yes"/>
      <point x="202" y="297"/>
      <point x="314" y="471"/>
      <point x="246" y="471" type="curve" smooth="yes"/>
      <point x="185" y="471"/>
      <point x="37" y="309"/>
      <point x="29" y="129" type="curve" smooth="yes"/>
      <point x="20" y="-82"/>
      <point x="195" y="-205"/>
      <point x="405" y="-205" type="curve" smooth="yes"/>
      <point x="570" y="-205"/>
      <point x="693" y="-119"/>
    </contour>
  </outline>
</glyph>
<glyph name="gjAvagraha" format="1">
  <advance width="487"/>
  <unicode hex="0ABD"/>
  <outline>
    <contour>
      <point x="20" y="489" type="curve" smooth="yes"/>
      <point x="-31" y="329"/>
      <point x="165" y="203"/>
      <point x="141" y="134" type="curve" smooth="yes"/>
      <point x="137" y="123"/>
      <point x="125" y="118"/>
      <point x="116" y="118" type="curve" smooth="yes"/>
      <point x="77" y="118"/>
      <point x="77" y="148"/>
      <point x="56" y="148" type="curve" smooth="yes"/>
      <point x="49" y="148"/>
      <point x="45" y="144"/>
      <point x="42" y="134" type="curve" smooth="yes"/>
      <point x="22" y="67"/>
      <point x="79" y="-3"/>
      <point x="186" y="-3" type="curve" smooth="yes"/>
      <point x="270" y="-3"/>
      <point x="327" y="35"/>
      <point x="351" y="106" type="curve" smooth="yes"/>
      <point x="393" y="243"/>
      <point x="245" y="308"/>
      <point x="264" y="366" type="curve" smooth="yes"/>
      <point x="267" y="378"/>
      <point x="277" y="390"/>
      <point x="310" y="390" type="curve"/>
      <point x="389" y="390" type="line" smooth="yes"/>
      <point x="425" y="390"/>
      <point x="446" y="405"/>
      <point x="457" y="437" type="curve" smooth="yes"/>
      <point x="486" y="533"/>
      <point x="406" y="625"/>
      <point x="245" y="625" type="curve" smooth="yes"/>
      <point x="123" y="625"/>
      <point x="49" y="582"/>
    </contour>
  </outline>
</glyph>
<glyph name="gjmAA" format="1">
  <advance width="380"/>
  <unicode hex="0ABE"/>
  <outline>
    <contour>
      <point x="139" y="542" type="curve" smooth="yes"/>
      <point x="56" y="279" type="line" smooth="yes"/>
      <point x="34" y="213"/>
      <point x="26" y="172"/>
      <point x="26" y="137" type="curve" smooth="yes"/>
      <point x="26" y="63"/>
      <point x="70" y="-3"/>
      <point x="187" y="-3" type="curve" smooth="yes"/>
      <point x="291" y="-3"/>
      <point x="360" y="73"/>
      <point x="360" y="136" type="curve" smooth="yes"/>
      <point x="360" y="149"/>
      <point x="356" y="163"/>
      <point x="347" y="163" type="curve" smooth="yes"/>
      <point x="337" y="163"/>
      <point x="330" y="138"/>
      <point x="310" y="138" type="curve" smooth="yes"/>
      <point x="296" y="138"/>
      <point x="289" y="150"/>
      <point x="296" y="169" type="curve" smooth="yes"/>
      <point x="410" y="542" type="line" smooth="yes"/>
      <point x="413" y="555"/>
      <point x="415" y="566"/>
      <point x="415" y="575" type="curve" smooth="yes"/>
      <point x="415" y="599"/>
      <point x="406" y="624"/>
      <point x="341" y="624" type="curve" smooth="yes"/>
      <point x="266" y="624"/>
      <point x="157" y="599"/>
    </contour>
  </outline>
</glyph>
<glyph name="gjmU" format="1">
  <advance width="0"/>
  <unicode hex="0AC1"/>
  <outline>
    <contour>
      <point x="-278" y="0" type="move" name="_blwm"/>
    </contour>
    <contour>
      <point x="-405" y="-32" type="curve" smooth="yes"/>
      <point x="-405" y="-45"/>
      <point x="-400" y="-53"/>
      <point x="-393" y="-53" type="curve" smooth="yes"/>
      <point x="-374" y="-53"/>
      <point x="-360" y="-18"/>
      <point x="-337" y="-18" type="curve" smooth="yes"/>
      <point x="-323" y="-18"/>
      <point x="-308" y="-30"/>
      <point x="-308" y="-54" type="curve" smooth="yes"/>
      <point x="-308" y="-91"/>
      <point x="-337" y="-113"/>
      <point x="-372" y="-113" type="curve" smooth="yes"/>
      <point x="-428" y="-113"/>
      <point x="-469" y="-60"/>
      <point x="-490" y="-60" type="curve" smooth="yes"/>
      <point x="-502" y="-60"/>
      <point x="-507" y="-65"/>
      <point x="-507" y="-78" type="curve" smooth="yes"/>
      <point x="-507" y="-136"/>
      <point x="-417" y="-210"/>
      <point x="-289" y="-210" type="curve" smooth="yes"/>
      <point x="-173" y="-210"/>
      <point x="-96" y="-144"/>
      <point x="-96" y="-59" type="curve" smooth="yes"/>
      <point x="-96" y="26"/>
      <point x="-184" y="87"/>
      <point x="-265" y="87" type="curve" smooth="yes"/>
      <point x="-347" y="87"/>
      <point x="-405" y="38"/>
    </contour>
  </outline>
</glyph>
<glyph name="gjmUU" format="1">
  <advance width="0"/>
  <unicode hex="0AC2"/>
  <outline>
    <contour>
      <point x="-238" y="0" type="move" name="_blwm"/>
    </contour>
    <contour>
      <point x="-432" y="-45" type="curve" smooth="yes"/>
      <point x="-432" y="-148"/>
      <point x="-340" y="-210"/>
      <point x="-236" y="-210" type="curve" smooth="yes"/>
      <point x="-141" y="-210"/>
      <point x="-88" y="-147"/>
      <point x="-88" y="-95" type="curve" smooth="yes"/>
      <point x="-88" y="-82"/>
      <point x="-94" y="-76"/>
      <point x="-104" y="-76" type="curve" smooth="yes"/>
      <point x="-125" y="-76"/>
      <point x="-136" y="-105"/>
      <point x="-167" y="-105" type="curve" smooth="yes"/>
      <point x="-184" y="-105"/>
      <point x="-194" y="-88"/>
      <point x="-194" y="-68" type="curve" smooth="yes"/>
      <point x="-194" y="-38"/>
      <point x="-174" y="-5"/>
      <point x="-129" y="-5" type="curve" smooth="yes"/>
      <point x="-53" y="-5"/>
      <point x="-16" y="-89"/>
      <point x="16" y="-89" type="curve" smooth="yes"/>
      <point x="27" y="-89"/>
      <point x="33" y="-76"/>
      <point x="33" y="-60" type="curve" smooth="yes"/>
      <point x="33" y="14"/>
      <point x="-78" y="127"/>
      <point x="-236" y="127" type="curve" smooth="yes"/>
      <point x="-351" y="127"/>
      <point x="-432" y="59"/>
    </contour>
  </outline>
</glyph>
<glyph name="gjmvR" format="1">
  <advance width="0"/>
  <unicode hex="0AC3"/>
  <outline>
    <contour>
      <point x="-258" y="0" type="move" name="_blwm"/>
    </contour>
    <contour>
      <point x="-392" y="-104" type="curve" smooth="yes"/>
      <point x="-392" y="-176"/>
      <point x="-337" y="-221"/>
      <point x="-268" y="-221" type="curve" smooth="yes"/>
      <point x="-183" y="-221"/>
      <point x="-130" y="-155"/>
      <point x="-130" y="-72" type="curve" smooth="yes"/>
      <point x="-130" y="-53"/>
      <point x="-134" y="-42"/>
      <point x="-141" y="-42" type="curve" smooth="yes"/>
      <point x="-153" y="-42"/>
      <point x="-168" y="-69"/>
      <point x="-205" y="-69" type="curve" smooth="yes"/>
      <point x="-236" y="-69"/>
      <point x="-250" y="-59"/>
      <point x="-250" y="-40" type="curve" smooth="yes"/>
      <point x="-250" y="-21"/>
      <point x="-232" y="-11"/>
      <point x="-210" y="-6" type="curve" smooth="yes"/>
      <point x="-192" y="-2"/>
      <point x="-189" y="1"/>
      <point x="-189" y="8" type="curve" smooth="yes"/>
      <point x="-189" y="20"/>
      <point x="-204" y="39"/>
      <point x="-245" y="39" type="curve" smooth="yes"/>
      <point x="-310" y="39"/>
      <point x="-392" y="-20"/>
    </contour>
  </outline>
</glyph>
<glyph name="gjmvRR" format="1">
  <advance width="0"/>
  <unicode hex="0AC4"/>
  <outline>
    <contour>
      <point x="-275" y="49" type="line"/>
      <point x="-348" y="49"/>
      <point x="-393" y="28"/>
      <point x="-405" y="-14" type="curve" smooth="yes"/>
      <point x="-425" y="-72"/>
      <point x="-379" y="-112"/>
      <point x="-313" y="-125" type="curve"/>
      <point x="-352" y="-81" type="line"/>
      <point x="-401" y="-85"/>
      <point x="-457" y="-97"/>
      <point x="-481" y="-157" type="curve" smooth="yes"/>
      <point x="-505" y="-223"/>
      <point x="-450" y="-296"/>
      <point x="-314" y="-296" type="curve" smooth="yes"/>
      <point x="-225" y="-296"/>
      <point x="-152" y="-256"/>
      <point x="-127" y="-208" type="curve" smooth="yes"/>
      <point x="-112" y="-181"/>
      <point x="-105" y="-156"/>
      <point x="-125" y="-156" type="curve"/>
      <point x="-142" y="-156"/>
      <point x="-179" y="-177"/>
      <point x="-241" y="-177" type="curve" smooth="yes"/>
      <point x="-285" y="-177"/>
      <point x="-302" y="-165"/>
      <point x="-294" y="-143" type="curve" smooth="yes"/>
      <point x="-288" y="-125"/>
      <point x="-269" y="-122"/>
      <point x="-247" y="-122" type="curve" smooth="yes"/>
      <point x="-220" y="-122" type="line" smooth="yes"/>
      <point x="-177" y="-122"/>
      <point x="-155" y="-109"/>
      <point x="-151" y="-87" type="curve" smooth="yes"/>
      <point x="-146" y="-66"/>
      <point x="-163" y="-56"/>
      <point x="-206" y="-56" type="curve" smooth="yes"/>
      <point x="-222" y="-56" type="line" smooth="yes"/>
      <point x="-252" y="-56"/>
      <point x="-267" y="-45"/>
      <point x="-259" y="-28" type="curve" smooth="yes"/>
      <point x="-254" y="-15"/>
      <point x="-241" y="-9"/>
      <point x="-205" y="0" type="curve"/>
    </contour>
  </outline>
</glyph>
<glyph name="gjmEcandra" format="1">
  <advance width="0"/>
  <unicode hex="0AC5"/>
  <outline>
    <contour>
      <point x="-97" y="615" type="move" name="_abvm"/>
    </contour>
    <contour>
      <point x="122" y="756" type="curve" smooth="yes"/>
      <point x="145" y="822"/>
      <point x="108" y="873"/>
      <point x="61" y="873" type="curve" smooth="yes"/>
      <point x="-1" y="873"/>
      <point x="-32" y="786"/>
      <point x="-95" y="786" type="curve" smooth="yes"/>
      <point x="-163" y="786"/>
      <point x="-213" y="882"/>
      <point x="-249" y="882" type="curve" smooth="yes"/>
      <point x="-258" y="882"/>
      <point x="-266" y="876"/>
      <point x="-270" y="865" type="curve" smooth="yes"/>
      <point x="-290" y="808"/>
      <point x="-182" y="659"/>
      <point x="-30" y="659" type="curve" smooth="yes"/>
      <point x="36" y="659"/>
      <point x="100" y="694"/>
    </contour>
  </outline>
</glyph>
